<svg width="12" height="268" viewBox="0 0 12 268" fill="none" xmlns="http://www.w3.org/2000/svg">
    <path opacity="0.5" d="M5.46968 267.53C5.76257 267.823 6.23745 267.823 6.53034 267.53L11.3033 262.757C11.5962 262.464 11.5962 261.99 11.3033 261.697C11.0104 261.404 10.5355 261.404 10.2427 261.697L6.00001 265.939L1.75737 261.697C1.46448 261.404 0.989604 261.404 0.696711 261.697C0.403817 261.99 0.403817 262.464 0.696711 262.757L5.46968 267.53ZM6 0L5.25 3.27835e-08L5.25001 267L6.00001 267L6.75001 267L6.75 -3.27835e-08L6 0Z" fill="url(#paint0_linear_21263_6)"/>
    <defs>
        <linearGradient id="paint0_linear_21263_6" x1="5.5" y1="1.38949e-06" x2="6" y2="149" gradientUnits="userSpaceOnUse">
            <stop stop-color="#0D0D0D"/>
            <stop offset="1" stop-color="#4250EB"/>
        </linearGradient>
    </defs>
</svg>
