<svg width="108" height="49" viewBox="0 0 108 49" fill="none" xmlns="http://www.w3.org/2000/svg">
    <path d="M77.9171 11.8211C77.088 12.2974 76.4284 12.9699 75.9478 13.8386C75.4673 14.7072 75.2316 15.6787 75.2128 16.7715C75.2128 17.8643 75.4577 18.8356 75.9384 19.695C76.4188 20.5543 77.069 21.2174 77.9078 21.7031C78.7369 22.1888 79.6697 22.4317 80.6968 22.4317C81.9406 22.4317 83.0149 22.1328 83.91 21.5537C84.8145 20.9652 85.4647 20.1526 85.8699 19.0878H84.5507C84.2303 19.8257 83.7404 20.4048 83.0808 20.8252C82.4212 21.2455 81.6297 21.4509 80.6968 21.4509C79.8676 21.4509 79.1327 21.2641 78.4731 20.8812C77.8135 20.4982 77.3046 19.9565 76.9277 19.2467C76.5509 18.5367 76.3624 17.7054 76.3624 16.762C76.3624 15.8188 76.5509 14.9968 76.9277 14.2776C77.2952 13.5677 77.8135 13.0166 78.4731 12.6337C79.1327 12.2507 79.877 12.0639 80.6968 12.0639C81.6297 12.0639 82.4212 12.2787 83.0808 12.699C83.7404 13.1194 84.2303 13.7078 84.5507 14.4644H85.8699C85.4647 13.3996 84.8145 12.5683 83.9194 11.9798C83.0336 11.3914 81.9595 11.0925 80.7063 11.0925C79.6791 11.0925 78.7557 11.3354 77.9171 11.8211Z" fill="white"/>
    <path d="M16.0946 12.148V11.2233H10.0359V22.3383H11.1572V17.2198H15.3314V16.2951H11.1572V12.148H16.0946Z" fill="white"/>
    <path d="M23.3973 22.3383V11.2233H22.276V22.3383H23.3973Z" fill="white"/>
    <path d="M38.728 22.3383H37.6067L31.3972 12.9886V22.3383H30.2759V11.2233H31.3972L37.6067 20.5543V11.2233H38.728V22.3383Z" fill="white"/>
    <path fill-rule="evenodd" clip-rule="evenodd" d="M47.0106 19.695H52.1083L53.0883 22.3383H54.2756L50.2049 11.3634H48.9329L44.8434 22.3383H46.0307L47.0106 19.695ZM49.5642 12.7645L51.7691 18.7796H47.3499L49.5642 12.7645Z" fill="white"/>
    <path d="M68.8619 22.3383H67.7406L61.531 12.9886V22.3383H60.4004V11.2233H61.531L67.7406 20.5543V11.2233H68.8619V22.3383Z" fill="white"/>
    <path d="M93.5683 12.1293V16.2764H97.8178V17.2012H93.5683V21.4137H98.2984V22.3383H92.4375V11.2046H98.289V12.1293H93.5683Z" fill="white"/>
    <path d="M22.3608 38.0861V26.8217H19.7978L16.1795 35.2L12.5611 26.8217H9.9699V38.0861H12.2502V30.7633L15.3126 38.0861H17.0369L20.0804 30.7633V38.0861H22.3608Z" fill="white"/>
    <path fill-rule="evenodd" clip-rule="evenodd" d="M31.5762 35.9379H27.0533L26.3088 38.0861H23.9156L28.005 26.803H30.6621L34.7328 38.0861H32.3206L31.5762 35.9379ZM29.3053 29.4183L30.951 34.1258H27.6563L29.3053 29.4183Z" fill="white"/>
    <path d="M43.1002 29.1287C43.5524 29.3809 43.9105 29.7358 44.1743 30.2122V30.2029H46.7844C46.4265 29.082 45.7762 28.2134 44.8339 27.5969C43.8917 26.9805 42.7798 26.6723 41.4983 26.6723C40.4053 26.6723 39.4253 26.9245 38.5395 27.4102C37.6538 27.8958 36.966 28.5777 36.4571 29.4557C35.9577 30.3337 35.7033 31.3238 35.7033 32.4352C35.7033 33.5468 35.9484 34.5369 36.4571 35.4055C36.9565 36.2835 37.6538 36.9654 38.5395 37.451C39.4253 37.946 40.4147 38.1889 41.5077 38.1889C42.4877 38.1889 43.3734 37.9834 44.1556 37.5818C44.9471 37.1801 45.5877 36.6384 46.0871 35.9753C46.5865 35.312 46.9163 34.5836 47.0671 33.799V31.8281H40.914V33.5374H44.8245C44.6456 34.3594 44.2875 34.9945 43.7315 35.4522C43.1849 35.9098 42.4688 36.134 41.6019 36.134C40.8953 36.134 40.2734 35.9846 39.7457 35.6857C39.218 35.3868 38.8034 34.9571 38.5019 34.3966C38.2003 33.8364 38.0495 33.1824 38.0495 32.4259C38.0495 31.6973 38.2003 31.0529 38.4925 30.4925C38.794 29.9321 39.1991 29.5024 39.7174 29.2035C40.2357 28.9046 40.8387 28.7552 41.5077 28.7552C42.1108 28.7552 42.6479 28.886 43.1002 29.1287Z" fill="white"/>
    <path d="M58.478 38.0861H56.1978L51.034 30.3523V38.0861H48.7538V26.803H51.034L56.1978 34.5462V26.803H58.478V38.0861Z" fill="white"/>
    <path fill-rule="evenodd" clip-rule="evenodd" d="M63.1706 35.9379H67.6935L68.4378 38.0861H70.8502L66.7795 26.803H64.1222L60.0327 38.0861H62.4262L63.1706 35.9379ZM65.4414 29.4276L67.081 34.1351H63.7924L65.4414 29.4276Z" fill="white"/>
    <path d="M80.1221 26.8217V28.643H77.0973V38.0861H74.8171V28.643H71.7923V26.8217H80.1221Z" fill="white"/>
    <path d="M84.0607 31.4638V28.643H88.3763V26.803H81.7804V38.0861H88.3763V36.2461H84.0607V33.2572H87.8863V31.4638H84.0607Z" fill="white"/>
    <path d="M92.2208 37.7966C91.5895 37.5257 91.0806 37.1428 90.7132 36.6384C90.3457 36.134 90.1572 35.5363 90.1478 34.8451H92.5883C92.6166 35.312 92.7862 35.6764 93.0877 35.9379C93.3892 36.2087 93.7943 36.3395 94.3126 36.3395C94.8403 36.3395 95.2643 36.2087 95.5658 35.9565C95.8673 35.7044 96.0182 35.3774 96.0182 34.9665C96.0182 34.6302 95.9145 34.3594 95.7071 34.1446C95.4999 33.9297 95.2456 33.7616 94.9345 33.6401C94.6236 33.5187 94.1996 33.3786 93.653 33.2292C92.9181 33.0144 92.3151 32.7996 91.8534 32.594C91.3917 32.3885 90.9959 32.071 90.6661 31.6413C90.3363 31.2209 90.1666 30.6512 90.1666 29.9414C90.1666 29.2782 90.3362 28.6897 90.6755 28.1948C91.0147 27.6996 91.4858 27.3168 92.0889 27.0553C92.6919 26.7937 93.3892 26.663 94.1713 26.663C95.3397 26.663 96.2914 26.9431 97.0263 27.5129C97.7614 28.0733 98.1665 28.8672 98.2419 29.8759H95.7354C95.7167 29.4931 95.5471 29.1661 95.236 28.9139C94.9252 28.6618 94.5199 28.531 94.0111 28.531C93.5683 28.531 93.2102 28.643 92.9464 28.8672C92.6825 29.0913 92.5506 29.4183 92.5506 29.848C92.5506 30.1469 92.6543 30.399 92.8521 30.5952C93.05 30.7914 93.3045 30.9594 93.5964 31.0809C93.8981 31.2023 94.3126 31.3424 94.8592 31.5105C95.5941 31.7254 96.1971 31.9402 96.6684 32.155C97.1395 32.3699 97.5352 32.6967 97.8744 33.1264C98.2137 33.5561 98.3833 34.1258 98.3833 34.817C98.3833 35.4241 98.2231 35.9753 97.9121 36.4983C97.6012 37.0121 97.1395 37.423 96.5269 37.7312C95.9239 38.0394 95.1984 38.1889 94.3598 38.1889C93.5683 38.1982 92.8521 38.0675 92.2208 37.7966Z" fill="white"/>
    <path fill-rule="evenodd" clip-rule="evenodd" d="M0.5 48.65V0.650024H107.5V48.65H0.5ZM105.157 46.3056V2.98511H2.85569V46.3056H105.157Z" fill="white"/>
</svg>
