<svg width="160" height="30" viewBox="0 0 160 30" fill="none" xmlns="http://www.w3.org/2000/svg">
    <path d="M18.5868 4.96225H12.2848V28.7068H6.80202V4.96225H0.5V0.593256H18.5238V4.96225H18.5868Z" fill="white"/>
    <path d="M26.6534 28.7068H21.1706V0.593256H30.3086C33.0814 0.593256 35.2241 1.35308 36.7996 2.80941C38.3751 4.26574 39.1314 6.29195 39.1314 8.88802C39.1314 10.3443 38.8163 11.6107 38.1231 12.6871C37.4929 13.7636 36.5476 14.5867 35.2872 15.2199C36.7366 15.7264 37.7449 16.4863 38.3752 17.626C39.0054 18.7657 39.3205 20.1588 39.3205 21.8684V23.8312C39.3205 24.5911 39.3835 25.4142 39.5725 26.3007C39.7616 27.1871 40.0767 27.8203 40.5178 28.2002V28.5802H34.846C34.4049 28.1369 34.0898 27.5037 34.0268 26.554C33.9637 25.6042 33.8377 24.6544 33.8377 23.7046V21.805C33.8377 20.412 33.5226 19.3356 32.9554 18.5125C32.3882 17.6893 31.569 17.3727 30.4976 17.3727H26.6534V28.7068ZM26.6534 13.1304H30.3086C31.4429 13.1304 32.2622 12.8138 32.8294 12.1173C33.3966 11.4208 33.7117 10.471 33.7117 9.20461C33.7117 7.93823 33.3966 6.86181 32.8294 6.10199C32.2622 5.34216 31.4429 4.96225 30.3086 4.96225H26.6534V13.1304Z" fill="white"/>
    <path d="M56.8401 22.6915H49.4667L47.9542 28.7068H42.4084L50.286 0.593256H55.9578L63.8353 28.7068H58.2895L56.8401 22.6915ZM50.538 18.3225H55.7057L53.1849 8.38146H53.0589L50.538 18.3225Z" fill="white"/>
    <path d="M66.041 28.7068V0.593256H74.4857C77.3847 0.593256 79.7164 1.66968 81.607 3.88583C83.4976 6.03867 84.3799 8.88802 84.3799 12.3072V17.0561C84.3799 20.4754 83.4346 23.3247 81.607 25.4775C79.7794 27.6304 77.3847 28.7701 74.4857 28.7701L66.041 28.7068ZM71.5238 4.96225V24.3378H74.1706C75.6831 24.3378 76.8805 23.7046 77.6998 22.3116C78.519 20.9186 78.9602 19.209 78.9602 16.9928V12.2439C78.9602 10.0278 78.519 8.31815 77.6998 6.98845C76.8805 5.65876 75.6831 5.02557 74.1706 5.02557C74.1706 4.96225 71.5238 4.96225 71.5238 4.96225Z" fill="white"/>
    <path d="M102.341 16.3596H92.9507V24.3378H103.979V28.7068H87.4679V0.593256H103.979V4.96225H92.9507V11.9906H102.341V16.3596Z" fill="white"/>
    <path d="M112.298 28.7068H106.815V0.593256H115.953C118.726 0.593256 120.869 1.35308 122.444 2.80941C124.02 4.26574 124.776 6.29195 124.776 8.88802C124.776 10.3443 124.461 11.6107 123.768 12.6871C123.137 13.7636 122.129 14.5867 120.869 15.2199C122.318 15.7264 123.326 16.4863 123.957 17.626C124.587 18.7657 124.902 20.1588 124.902 21.8684V23.8312C124.902 24.5911 124.965 25.4142 125.154 26.3007C125.343 27.1871 125.658 27.8203 126.099 28.2002V28.5802H120.427C119.986 28.1369 119.671 27.5037 119.608 26.554C119.545 25.6042 119.419 24.6544 119.419 23.7046V21.805C119.419 20.412 119.167 19.3356 118.537 18.5125C117.907 17.6893 117.15 17.3727 116.079 17.3727H112.298V28.7068ZM112.298 13.1304H115.953C117.087 13.1304 117.907 12.8138 118.474 12.1173C119.041 11.4208 119.356 10.471 119.356 9.20461C119.356 7.93823 119.041 6.86181 118.474 6.10199C117.907 5.34216 117.087 4.96225 115.953 4.96225H112.298V13.1304Z" fill="white"/>
    <path d="M141.665 21.3618C141.665 20.2854 141.413 19.3989 140.846 18.7657C140.279 18.1326 139.271 17.4994 137.884 16.8662C134.985 15.8531 132.779 14.7133 131.33 13.3836C129.88 12.1173 129.124 10.281 129.124 7.93823C129.124 5.65876 129.944 3.75919 131.645 2.30286C133.347 0.846531 135.489 0.150024 138.136 0.150024C140.783 0.150024 142.989 0.973169 144.627 2.55614C146.266 4.13911 147.085 6.22863 147.022 8.69806L146.959 8.8247H141.665C141.665 7.55832 141.35 6.4819 140.72 5.72208C140.09 4.96225 139.207 4.51902 138.01 4.51902C136.939 4.51902 136.056 4.83561 135.489 5.53212C134.859 6.22863 134.607 7.05177 134.607 8.00155C134.607 8.95133 134.922 9.71116 135.615 10.281C136.309 10.9142 137.443 11.5474 139.144 12.3072C141.791 13.1937 143.808 14.3334 145.131 15.7264C146.455 17.1195 147.148 18.9557 147.148 21.3618C147.148 23.7679 146.329 25.6675 144.69 27.0605C143.052 28.4535 140.909 29.15 138.262 29.15C135.615 29.15 133.284 28.3902 131.33 26.8072C129.376 25.2243 128.431 23.0081 128.494 20.0954L128.557 19.9688H133.851C133.851 21.7417 134.229 22.9448 134.922 23.7046C135.678 24.4644 136.75 24.8443 138.199 24.8443C139.334 24.8443 140.216 24.5278 140.783 23.8946C141.35 23.2614 141.665 22.4382 141.665 21.3618Z" fill="white"/>
    <path d="M153.702 0.150024H159.437L159.5 0.276662L154.71 5.27885H150.299L153.702 0.150024Z" fill="white"/>
</svg>
