<svg width="131" height="49" viewBox="0 0 131 49" fill="none" xmlns="http://www.w3.org/2000/svg">
    <path fill-rule="evenodd" clip-rule="evenodd" d="M47.1017 15.0945V29.5389H50.6271H54.1525V23.9834C54.1525 20.3167 54.1525 18.3167 54.1525 18.0945C54.2627 17.5389 54.3729 16.9834 54.7034 16.5389C55.1441 15.7611 55.9153 15.4278 56.7966 15.5389C58.0085 15.65 58.7797 16.3167 59 17.7611C59 17.9834 59 20.2056 59 23.7611V29.4278H62.5254H66.0508V22.7611C66.0508 17.0945 66.0509 15.9834 65.9407 15.4278C65.7203 13.4278 65.0593 11.8722 63.8475 10.7611C62.8559 9.76113 61.6441 9.20558 60.2119 8.98336C59.661 8.87225 58.1186 8.98336 57.678 9.09447C56.3559 9.4278 55.3644 9.87225 54.4831 10.8722L53.9322 11.3167V5.98336V0.650024H50.4068H46.8814V15.0945H47.1017ZM122.017 0.872247C121.797 1.31669 114.636 18.7611 114.636 18.7611C114.636 18.7611 116.508 18.7611 118.822 18.7611H123.008L126.754 9.76114C128.847 4.76114 130.5 0.650024 130.5 0.650024C130.5 0.650024 128.627 0.650024 126.314 0.650024H122.127L122.017 0.872247ZM31.678 9.09447C30.1356 9.31669 28.9237 9.76114 27.7119 10.5389C25.2881 12.0945 23.7458 14.7611 23.3051 17.8722C23.0847 19.3167 23.1949 21.0945 23.5254 22.4278C24.4068 25.8722 26.7203 28.5389 29.6949 29.5389C30.7966 29.8722 31.2373 29.9834 32.5593 29.9834C33.5508 29.9834 33.8814 29.9834 34.2119 29.8722C35.6441 29.5389 36.6356 28.9834 37.5169 28.0945L37.9576 27.65V28.5389V29.4278H41.3729H44.7881V19.4278V9.4278H41.3729H37.9576V10.3167V11.2056L37.6271 10.8722C36.8559 9.98336 35.7542 9.4278 34.322 9.09447C33.8814 8.98336 33.661 8.98336 32.7797 8.98336C32.2288 9.09447 31.7881 9.09447 31.678 9.09447ZM76.6271 9.09447C74.7542 9.31669 72.7712 10.2056 71.339 11.3167C68.5848 13.65 67.1525 17.3167 67.7034 21.0945C68.2542 25.3167 71.2288 28.5389 75.4153 29.65C76.2966 29.8722 77.178 29.9834 78.2797 29.9834C80.2627 29.9834 81.6949 29.65 83.2373 28.8722C86.322 27.3167 88.3051 24.5389 88.7458 21.0945C88.8559 20.2056 88.8559 18.7611 88.7458 17.9834C88.5254 16.3167 87.8644 14.65 86.8729 13.3167C86.4322 12.7611 85.5508 11.7611 85 11.3167C83.4576 10.0945 81.6949 9.31669 79.7119 9.09447C78.9407 8.98336 77.3983 8.98336 76.6271 9.09447ZM99.1017 9.09447C97.2288 9.31669 95.3559 10.0945 93.9237 11.3167C93.3729 11.7611 92.3814 12.7611 92.0508 13.3167C91.0593 14.65 90.5085 16.3167 90.178 17.9834C90.0678 18.7611 90.0678 20.3167 90.178 21.0945C90.839 25.5389 94.0339 28.9834 98.4407 29.8722C99.322 30.0945 99.7627 30.0945 100.754 30.0945C102.627 30.0945 104.28 29.7611 105.822 28.8722C109.898 26.7611 112.102 22.0945 111.11 17.3167C110.229 12.8722 106.703 9.65002 102.186 9.09447C101.415 8.98336 99.8729 8.98336 99.1017 9.09447ZM0.5 9.53891C0.5 9.53891 2.37288 14.0945 4.68644 19.65C7 25.2056 8.87288 29.7611 8.87288 29.7611C8.87288 29.7611 8.21187 31.4278 7.33051 33.4278C6.44915 35.4278 5.78814 36.9834 5.78814 37.0945C5.78814 37.2056 7.44068 37.0945 9.5339 37.0945H13.2797L18.8983 23.4278C21.9831 15.8722 24.5169 9.76113 24.5169 9.65002C24.5169 9.65002 23.7458 9.53891 20.7712 9.65002H17.0254L14.7119 15.4278C13.7203 18.5389 12.7288 21.2056 12.7288 21.2056C12.7288 21.2056 11.7373 18.5389 10.4153 15.4278L8.21186 9.65002H4.35593C2.26271 9.53891 0.5 9.53891 0.5 9.53891ZM35.0932 15.5389C36.5254 15.8722 37.6271 16.9834 38.0678 18.4278C38.178 18.9834 38.178 19.9834 38.0678 20.5389C37.7373 21.9834 36.6356 23.0945 35.2034 23.4278C34.6525 23.5389 33.661 23.5389 33.1102 23.4278C31.8983 23.0945 30.7966 22.2056 30.3559 21.0945C29.8051 19.8722 30.0254 18.3167 30.6864 17.2056C31.678 15.7611 33.3305 15.2056 35.0932 15.5389ZM79.0508 15.65C80.5932 15.8722 81.8051 17.0945 82.1356 18.65C82.2458 19.2056 82.2458 20.0945 82.1356 20.65C81.8051 22.0945 80.7034 23.0945 79.3814 23.5389C78.9407 23.65 77.7288 23.65 77.2881 23.5389C76.1864 23.2056 75.3051 22.4278 74.7542 21.4278C74.4237 20.7611 74.4237 20.4278 74.4237 19.65C74.4237 18.9834 74.5339 18.65 74.7542 18.0945C75.0848 17.4278 75.5254 16.7611 76.1864 16.3167C76.8475 15.65 77.9492 15.4278 79.0508 15.65ZM101.415 15.65C102.737 15.8722 103.839 16.7611 104.28 17.9834C104.5 18.5389 104.61 18.8722 104.61 19.5389C104.61 20.3167 104.5 20.65 104.28 21.3167C103.839 22.3167 102.847 23.0945 101.746 23.4278C101.305 23.5389 100.093 23.5389 99.6525 23.4278C98.3305 23.0945 97.2288 21.9834 96.8983 20.5389C96.7881 19.9834 96.7881 18.9834 96.8983 18.4278C97.339 16.65 98.8814 15.4278 100.644 15.4278C100.864 15.5389 101.195 15.5389 101.415 15.65ZM116.398 20.5389C114.305 20.7611 112.763 22.3167 112.322 24.3167C112.212 24.8722 112.212 25.8722 112.322 26.4278C112.763 28.2056 114.085 29.4278 115.847 29.8722C116.068 29.8722 116.508 29.9834 116.839 29.9834C118.161 29.9834 119.263 29.5389 120.144 28.65C121.136 27.65 121.466 26.65 121.466 25.3167C121.466 23.65 120.695 22.2056 119.373 21.4278C118.492 20.65 117.28 20.4278 116.398 20.5389ZM58.339 31.4278C56.9068 31.8722 56.2458 33.5389 57.017 34.7611C57.2373 35.0945 57.678 35.5389 58.0085 35.65C58.339 35.7611 58.339 35.7611 59 35.7611C59.5508 35.7611 59.661 35.7611 59.9915 35.65C60.4322 35.4278 60.8729 34.9834 61.0932 34.5389C61.6441 33.4278 61.0932 32.0945 59.9915 31.5389C59.661 31.3167 59.5508 31.3167 59.1102 31.3167C58.6695 31.3167 58.5593 31.3167 58.339 31.4278ZM52.3898 31.5389C50.517 31.8722 49.3051 33.0945 48.7542 35.0945C48.6441 35.4278 48.6441 35.7611 48.6441 36.2056V36.9834H47.8729H47.1017V38.65V40.3167H47.8729H48.6441V44.3167V48.3167H50.7373H52.8305V44.3167V40.3167H54.2627H55.6949V38.65V36.9834H54.2627H52.8305V36.65C52.9407 35.8723 53.2712 35.3167 53.9322 35.2056C54.3729 35.0945 55.0339 35.0945 55.4746 35.3167C55.6949 35.4278 55.8051 35.4278 55.8051 35.4278C55.8051 35.4278 55.8051 34.65 55.8051 33.65V31.8722L55.4746 31.7611C55.0339 31.5389 54.4831 31.5389 53.7119 31.5389C53.161 31.4278 52.7203 31.5389 52.3898 31.5389ZM69.1356 36.7611C68.2542 36.9834 67.5932 37.4278 67.1525 37.9834L66.9322 38.3167V37.65V36.9834H64.839H62.7458V42.65V48.3167H64.839H66.9322V45.2056C66.9322 43.4278 66.9322 41.9834 66.9322 41.7611C67.0424 41.3167 67.2627 40.8722 67.4831 40.65C68.0339 40.2056 69.0254 40.3167 69.4661 40.8722C69.7966 41.3167 69.7966 41.3167 69.7966 44.8723V48.2056H71.8898H73.983V44.4278C73.983 40.4278 73.983 39.9834 73.7627 39.2056C73.5424 38.5389 73.322 37.9834 72.7712 37.5389C72.3305 37.0945 71.8898 36.7611 71.2288 36.65C70.678 36.65 69.5763 36.65 69.1356 36.7611ZM79.6017 36.65C78.9407 36.7611 77.9492 37.0945 77.3983 37.5389C76.1864 38.4278 75.4153 39.7611 75.0847 41.4278C74.9746 42.0945 74.9746 43.3167 75.0847 43.9834C75.3051 44.9834 75.6356 45.9834 76.1864 46.65C76.9576 47.65 77.9492 48.3167 79.161 48.5389C79.822 48.65 80.9237 48.65 81.4746 48.4278C82.1356 48.2056 82.5763 47.9834 83.1271 47.5389L83.5678 47.0945V47.65V48.2056H85.661H87.7542V42.5389V36.8722H85.661H83.5678V37.4278V37.9834L83.2373 37.8722C82.6864 37.3167 81.9153 36.8723 81.0339 36.7611C80.7034 36.65 79.9322 36.65 79.6017 36.65ZM95.5763 36.7611C94.8051 36.8723 94.0339 37.4278 93.5932 37.9834L93.3729 38.2056V37.5389V36.8722H91.2797H89.1864V42.5389V48.2056H91.2797H93.3729V44.9834C93.3729 41.5389 93.3729 41.5389 93.5932 40.9834C93.8136 40.5389 94.2542 40.3167 94.6949 40.3167C95.1356 40.3167 95.3559 40.4278 95.6864 40.65C96.1271 41.0945 96.1271 40.9834 96.1271 44.7611V48.0945H98.2203H100.314V43.9834C100.314 39.8722 100.314 39.8723 100.203 39.4278C100.093 39.2056 99.983 38.7611 99.8729 38.4278C99.6525 37.9834 99.5424 37.8722 99.2119 37.5389C98.7712 37.0945 98.4407 36.8723 98 36.65C97.2288 36.65 96.3475 36.5389 95.5763 36.7611ZM106.483 36.7611C104.61 37.0945 103.178 37.9834 102.297 39.5389C102.076 39.9834 101.856 40.5389 101.636 41.0945C101.525 41.65 101.525 41.7611 101.525 42.65C101.525 43.65 101.525 43.9834 101.856 44.7611C102.517 46.65 104.059 48.0945 106.153 48.5389C106.483 48.65 106.814 48.65 107.585 48.65C108.686 48.65 109.127 48.5389 109.898 48.2056L110.339 47.9834V46.0945V44.2056L110.008 44.4278C109.458 44.7611 109.127 44.8723 108.466 44.8723C107.805 44.8723 107.475 44.8722 107.034 44.65C106.593 44.4278 106.263 44.0945 106.042 43.65C105.932 43.3167 105.932 43.3167 105.932 42.7611C105.932 42.3167 105.932 42.2056 106.042 41.8722C106.373 40.9834 107.144 40.5389 108.246 40.4278C109.017 40.4278 109.347 40.4278 110.449 40.9834C110.449 40.9834 110.449 40.0945 110.449 39.0945V37.2056L110.119 37.0945C108.907 36.65 107.585 36.5389 106.483 36.7611ZM115.958 36.7611C112.763 37.3167 110.78 40.0945 111 43.3167C111.11 44.4278 111.441 45.4278 111.992 46.2056C112.763 47.4278 113.975 48.2056 115.517 48.5389C116.178 48.65 117.941 48.65 118.712 48.5389C119.814 48.3167 120.805 47.7611 121.576 46.9834C121.907 46.65 122.458 45.8722 122.458 45.8722C122.458 45.8722 121.686 45.5389 120.695 45.2056L118.932 44.5389L118.712 44.7611C118.381 45.0945 118.161 45.2056 117.72 45.3167C116.508 45.65 115.297 44.9834 115.076 43.8722V43.65H118.932H122.788V42.65C122.788 41.9834 122.788 41.5389 122.678 41.3167C122.458 39.9834 121.907 39.0945 121.136 38.2056C120.364 37.4278 119.483 36.9834 118.271 36.7611C117.831 36.65 116.508 36.65 115.958 36.7611ZM56.9068 42.65V48.3167H59H61.0932V42.65V36.9834H59H56.9068V42.65ZM117.61 39.8723C117.941 39.9834 118.051 40.0945 118.381 40.3167C118.602 40.5389 118.822 40.7611 118.822 41.0945V41.3167H116.949C114.856 41.3167 114.966 41.3167 115.186 40.8722C115.517 40.0945 116.508 39.65 117.61 39.8723ZM82.0254 40.4278C82.5763 40.5389 83.2373 41.0945 83.4576 41.65C84.0085 42.8723 83.4576 44.3167 82.1356 44.7611C81.6949 44.8722 81.0339 44.8722 80.5932 44.7611C79.9322 44.5389 79.2712 43.9834 79.161 43.3167C79.0508 42.9834 79.0508 42.8722 79.0508 42.5389C79.0508 42.0945 79.0508 41.9834 79.2712 41.65C79.7119 40.65 80.8136 40.2056 82.0254 40.4278Z" fill="white"/>
</svg>
