<svg width="117" height="24" viewBox="0 0 117 24" fill="none" xmlns="http://www.w3.org/2000/svg">
    <g clip-path="url(#clip0_21226_231)">
        <path d="M24.6401 14.9144C23.0242 21.3679 16.4596 25.2954 9.97738 23.6861C3.49783 22.0771 -0.44668 15.5404 1.16999 9.08729C2.78515 2.63304 9.34977 -1.29485 15.8301 0.314101C22.3119 1.92305 26.256 8.4605 24.6401 14.9144Z" fill="#F7931A"/>
        <path d="M18.2396 10.2836C18.4805 8.68071 17.2547 7.81902 15.5787 7.24418L16.1224 5.07281L14.7949 4.74341L14.2656 6.85756C13.9167 6.77098 13.5582 6.68929 13.2021 6.60835L13.7352 4.48027L12.4085 4.15088L11.8644 6.32149C11.5756 6.25599 11.292 6.19124 11.0168 6.12311L11.0183 6.11633L9.18762 5.6612L8.83449 7.07289C8.83449 7.07289 9.81939 7.29763 9.7986 7.31156C10.3362 7.4452 10.4334 7.79944 10.4171 8.08027L9.79784 10.5539C9.83489 10.5633 9.88291 10.5769 9.93584 10.598C9.89161 10.5871 9.84435 10.575 9.79557 10.5633L8.9275 14.0286C8.86171 14.1912 8.69498 14.4351 8.31917 14.3425C8.3324 14.3617 7.35431 14.1027 7.35431 14.1027L6.69531 15.6157L8.42276 16.0445C8.74413 16.1247 9.05907 16.2086 9.3691 16.2877L8.81975 18.4839L10.1457 18.8133L10.6897 16.6404C11.0519 16.7383 11.4036 16.8286 11.7476 16.9137L11.2054 19.0764L12.5329 19.4058L13.0822 17.2137C15.3458 17.6402 17.0479 17.4682 17.7644 15.4297C18.3417 13.7884 17.7356 12.8416 16.5447 12.2242C17.412 12.0251 18.0653 11.457 18.2396 10.2836ZM15.2067 14.5183C14.7964 16.1597 12.021 15.2724 11.1211 15.0499L11.8501 12.1403C12.7499 12.3639 15.6354 12.8066 15.2067 14.5183ZM15.6173 10.2599C15.243 11.7529 12.9329 10.9944 12.1835 10.8084L12.8444 8.16949C13.5938 8.35546 16.0071 8.70255 15.6173 10.2599Z" fill="white"/>
        <path d="M36.2625 7.24211C37.2436 7.24211 38.0912 7.41716 38.8035 7.76086C39.5193 8.10795 40.1098 8.5755 40.5835 9.16352C41.0509 9.75454 41.3987 10.4453 41.6233 11.237C41.8463 12.0309 41.9583 12.8844 41.9583 13.798C41.9583 15.2014 41.7 16.5273 41.1786 17.7771C40.6573 19.0288 39.9499 20.1145 39.0501 21.0405C38.151 21.9655 37.0893 22.6947 35.8651 23.2334C34.6428 23.7724 33.3138 24.042 31.8869 24.042C31.7024 24.042 31.378 24.0367 30.9198 24.0273C30.4616 24.0179 29.9349 23.9708 29.3451 23.8914C28.7515 23.809 28.1239 23.687 27.4611 23.5236C26.7987 23.3632 26.1696 23.1385 25.5771 22.8532L30.8748 0.689228L35.6197 -0.0429688L33.7229 7.82222C34.129 7.64002 34.538 7.49885 34.9464 7.39608C35.3551 7.29481 35.7936 7.24211 36.2625 7.24211ZM32.2824 20.294C32.997 20.294 33.6703 20.119 34.3029 19.7753C34.9373 19.4312 35.4848 18.9667 35.9434 18.3881C36.402 17.8068 36.7649 17.1522 37.0296 16.4207C37.2942 15.6893 37.4281 14.9262 37.4281 14.1323C37.4281 13.1569 37.2644 12.3961 36.9381 11.8461C36.6118 11.2984 36.008 11.0228 35.1312 11.0228C34.8439 11.0228 34.4738 11.0774 34.0148 11.1749C33.5543 11.2784 33.1422 11.4934 32.7728 11.8167L30.7531 20.1694C30.8748 20.1909 30.9826 20.2112 31.0744 20.2304C31.1644 20.2511 31.2639 20.2658 31.3629 20.276C31.4676 20.2876 31.5875 20.2937 31.7323 20.2937C31.8771 20.2937 32.0582 20.294 32.2824 20.294ZM46.879 23.6177H42.3469L46.1742 7.58205H50.7373L46.879 23.6177ZM49.0843 5.62827C48.4518 5.62827 47.8782 5.44079 47.3693 5.06509C46.8563 4.69166 46.6022 4.11682 46.6022 3.34208C46.6022 2.91594 46.6892 2.51614 46.8616 2.13894C47.0366 1.76249 47.2654 1.43837 47.552 1.1628C47.8382 0.8895 48.1697 0.671159 48.5463 0.50665C48.9251 0.344776 49.3282 0.263839 49.7577 0.263839C50.3898 0.263839 50.9603 0.451311 51.4711 0.827009C51.98 1.20459 52.236 1.77943 52.236 2.55003C52.236 2.97767 52.1494 3.37897 51.9755 3.75542C51.8027 4.13187 51.574 4.456 51.2874 4.73156C51.0035 5.00524 50.6688 5.22283 50.293 5.38583C49.9138 5.55034 49.5123 5.62827 49.0843 5.62827ZM54.709 3.58677L59.4558 2.85457L58.2902 7.58129H63.3739L62.4559 11.2999H57.4028L56.0569 16.909C55.9329 17.3765 55.8625 17.8132 55.8429 18.219C55.8206 18.6267 55.8724 18.9768 55.9949 19.2716C56.1166 19.5671 56.3355 19.7949 56.6531 19.956C56.9692 20.1197 57.4217 20.2022 58.0153 20.2022C58.5042 20.2022 58.9806 20.1559 59.4411 20.064C59.8989 19.9737 60.3628 19.8479 60.8324 19.6834L61.1704 23.1603C60.5579 23.384 59.8948 23.5763 59.1802 23.7382C58.4645 23.9023 57.6172 23.9814 56.638 23.9814C55.23 23.9814 54.1385 23.7732 53.3608 23.3587C52.5842 22.9412 52.0352 22.3709 51.7067 21.6489C51.3827 20.9295 51.2379 20.1002 51.2783 19.1658C51.3203 18.2292 51.4621 17.2448 51.7067 16.208L54.709 3.58677ZM63.1742 17.2143C63.1742 15.8331 63.3988 14.5306 63.8476 13.3113C64.2956 12.0908 64.941 11.0236 65.7785 10.1077C66.6129 9.19627 67.6295 8.47424 68.8262 7.94419C70.0171 7.41716 71.3506 7.15139 72.8202 7.15139C73.7401 7.15139 74.5616 7.23797 75.2845 7.41151C76.0105 7.58656 76.6672 7.81281 77.2611 8.09665L75.6982 11.6353C75.2898 11.4704 74.866 11.3251 74.4278 11.1933C73.9892 11.0589 73.4539 10.9942 72.8206 10.9942C71.3079 10.9942 70.112 11.5133 69.222 12.5482C68.3354 13.5838 67.8889 14.9778 67.8889 16.7264C67.8889 17.7628 68.1135 18.6008 68.5642 19.2419C69.0126 19.883 69.8409 20.2018 71.0436 20.2018C71.6372 20.2018 72.21 20.1401 72.7586 20.0196C73.3113 19.8976 73.7994 19.744 74.2293 19.5626L74.5677 23.1901C73.9945 23.4114 73.3624 23.6113 72.669 23.7864C71.9741 23.9554 71.1468 24.0431 70.1876 24.0431C68.9214 24.0431 67.8496 23.8587 66.9728 23.4954C66.0957 23.1265 65.3709 22.6367 64.8 22.0163C64.2261 21.3944 63.814 20.6682 63.5591 19.8348C63.3043 19.0021 63.1742 18.1272 63.1742 17.2143ZM83.307 24.0431C82.2254 24.0431 81.2858 23.879 80.4888 23.5541C79.6941 23.2292 79.0359 22.7733 78.5152 22.1823C77.9939 21.5943 77.6037 20.8975 77.3364 20.0945C77.0691 19.2919 76.9405 18.4031 76.9405 17.4293C76.9405 16.2077 77.1375 14.9865 77.5356 13.7686C77.9319 12.5482 78.5198 11.4516 79.2979 10.477C80.0699 9.50082 81.0223 8.70274 82.1437 8.08047C83.2639 7.46233 84.5524 7.15139 85.9997 7.15139C87.0618 7.15139 87.9964 7.3159 88.8043 7.64077C89.6085 7.9649 90.2709 8.42454 90.7945 9.01256C91.3125 9.60359 91.7061 10.2974 91.9707 11.1015C92.2373 11.9026 92.3689 12.7936 92.3689 13.7683C92.3689 14.9861 92.1745 16.2073 91.7889 17.4289C91.4029 18.6444 90.8301 19.7437 90.0739 20.7206C89.3193 21.6952 88.3756 22.4929 87.2421 23.1125C86.1101 23.7322 84.7974 24.0431 83.307 24.0431ZM85.5721 10.9946C84.9003 10.9946 84.3063 11.1888 83.7978 11.5724C83.2874 11.9605 82.8586 12.4484 82.5131 13.0368C82.1637 13.6278 81.9047 14.2723 81.7297 14.9729C81.5561 15.675 81.4711 16.3387 81.4711 16.9692C81.4711 17.9868 81.6359 18.7792 81.9599 19.3495C82.2885 19.9168 82.8787 20.2022 83.7365 20.2022C84.4107 20.2022 85.0016 20.0094 85.5131 19.6217C86.0205 19.2366 86.4496 18.7483 86.7979 18.1588C87.1449 17.5708 87.4062 16.9244 87.5812 16.2227C87.7525 15.5229 87.8398 14.8555 87.8398 14.226C87.8398 13.2111 87.6758 12.4168 87.3487 11.8472C87.0221 11.2799 86.4292 10.9946 85.5721 10.9946ZM97.3074 23.6177H92.7715L96.5988 7.58205H101.164L97.3074 23.6177ZM99.5093 5.62827C98.8772 5.62827 98.304 5.44079 97.7958 5.06509C97.2854 4.69166 97.0291 4.11682 97.0291 3.34208C97.0291 2.91594 97.1172 2.51614 97.29 2.13894C97.4628 1.76249 97.693 1.43837 97.9796 1.1628C98.2643 0.8895 98.5989 0.671159 98.9747 0.50665C99.3513 0.344776 99.7543 0.263839 100.182 0.263839C100.816 0.263839 101.388 0.451311 101.898 0.827009C102.408 1.20459 102.666 1.77943 102.666 2.55003C102.666 2.97767 102.574 3.37897 102.403 3.75542C102.231 4.13187 102.001 4.456 101.716 4.73156C101.428 5.00524 101.098 5.22283 100.721 5.38583C100.342 5.55034 99.9396 5.62827 99.5093 5.62827ZM104.43 8.31123C104.774 8.2111 105.159 8.09063 105.576 7.95963C105.996 7.82862 106.464 7.70665 106.987 7.59673C107.505 7.48342 108.089 7.39156 108.731 7.32041C109.374 7.24776 110.106 7.21237 110.919 7.21237C113.309 7.21237 114.957 7.90542 115.867 9.28737C116.775 10.6693 116.933 12.5606 116.343 14.9578L114.258 23.6162H109.696L111.717 15.1401C111.84 14.6108 111.937 14.0992 112.008 13.5992C112.08 13.1038 112.076 12.6671 111.992 12.2892C111.911 11.9157 111.722 11.6101 111.427 11.3733C111.128 11.1403 110.676 11.0232 110.063 11.0232C109.472 11.0232 108.871 11.0864 108.258 11.2084L105.287 23.6158H100.723L104.43 8.31123Z" fill="#4D4D4D"/>
    </g>
    <defs>
        <clipPath id="clip0_21226_231">
            <rect width="116" height="24" fill="white" transform="translate(0.75)"/>
        </clipPath>
    </defs>
</svg>
