<svg width="43" height="42" viewBox="0 0 43 42" fill="none" xmlns="http://www.w3.org/2000/svg">
    <g clip-path="url(#clip0_21227_430)">
        <path d="M21.75 42C33.348 42 42.75 32.598 42.75 21C42.75 9.40202 33.348 0 21.75 0C10.152 0 0.75 9.40202 0.75 21C0.75 32.598 10.152 42 21.75 42Z" fill="#988430"/>
        <path d="M21.7502 41.3275C32.9767 41.3275 42.0775 32.2267 42.0775 21.0002C42.0775 9.77371 32.9767 0.672852 21.7502 0.672852C10.5237 0.672852 1.42285 9.77371 1.42285 21.0002C1.42285 32.2267 10.5237 41.3275 21.7502 41.3275Z" fill="#7A6A2A"/>
        <path d="M21.7496 40.8992C32.7396 40.8992 41.6487 31.9901 41.6487 21.0001C41.6487 10.0102 32.7396 1.10107 21.7496 1.10107C10.7597 1.10107 1.85059 10.0102 1.85059 21.0001C1.85059 31.9901 10.7597 40.8992 21.7496 40.8992Z" fill="#BA9F33"/>
        <path fill-rule="evenodd" clip-rule="evenodd" d="M9.93146 18.7571C9.81252 18.6484 9.68685 18.5396 9.57127 18.4309C9.45569 18.3223 9.33697 18.2134 9.21802 18.1048L8.86455 17.7688C8.80676 17.711 8.7456 17.6601 8.68781 17.6021C8.63002 17.5513 8.56215 17.4935 8.50436 17.4424C8.0353 16.9973 7.56356 16.5522 7.101 16.1069C7.58013 16.5453 8.04919 16.9805 8.52833 17.4254L8.69476 17.5921C8.75255 17.6496 8.8137 17.7007 8.87149 17.7585L9.22474 18.0846C9.34369 18.1933 9.45927 18.3021 9.57821 18.4206C9.69716 18.5391 9.81274 18.6482 9.93168 18.7566L9.93146 18.7571ZM3.70628 18.6899C3.70628 18.6899 5.41204 18.8664 6.24465 18.9853C7.01588 19.0942 9.42858 19.4645 9.42858 19.4645L3.70628 18.6899ZM3.70628 18.6899C4.18541 18.7306 4.66455 18.7815 5.14369 18.8326C5.38829 18.8563 5.62282 18.8834 5.85735 18.9072L6.21732 18.9481C6.33626 18.9649 6.45185 18.982 6.57079 18.999L7.99812 19.2266L8.71156 19.3455C8.94608 19.3863 9.18061 19.4306 9.42522 19.4714C9.19069 19.4477 8.94608 19.4136 8.71156 19.3796L7.99812 19.2777L6.57079 19.0671C6.45185 19.0501 6.33626 19.0261 6.21732 19.0093L5.85713 18.9679C5.6226 18.9441 5.37799 18.9101 5.14346 18.8827C4.66433 18.8252 4.18519 18.7638 3.70605 18.6892L3.70628 18.6899ZM9.25879 19.9089C9.25879 19.9089 7.43745 20.3712 6.82234 20.548C6.21754 20.7144 4.38589 21.2717 4.38589 21.2717L9.25857 19.9091L9.25879 19.9089Z" fill="#CFB66C"/>
        <path fill-rule="evenodd" clip-rule="evenodd" d="M9.25842 19.9092C8.8541 20.0281 8.45202 20.1437 8.04188 20.2526L6.82533 20.5787C6.42101 20.6977 6.01893 20.8132 5.61573 20.9322L5.01093 21.0986C4.81045 21.1564 4.60661 21.2073 4.39941 21.2653C4.59967 21.1981 4.80373 21.1293 5.00421 21.0715L5.60901 20.878C6.01333 20.7521 6.41541 20.6331 6.81861 20.5075C7.22965 20.4056 7.6342 20.2967 8.04524 20.1981C8.43589 20.0996 8.84716 20.0012 9.25842 19.9094V19.9092ZM4.64066 22.3933C4.84092 22.3185 7.1517 21.2415 7.68863 20.99C7.95743 20.8641 8.73874 20.5868 8.73874 20.5868L4.64066 22.3933Z" fill="#CFB66C"/>
        <path fill-rule="evenodd" clip-rule="evenodd" d="M4.64085 22.3933C4.81736 22.3261 4.98402 22.2438 5.15381 22.1657L5.65669 21.9311L6.66603 21.4453C7.00203 21.2856 7.32863 21.1093 7.67515 20.9592C7.85189 20.8846 8.02863 20.8235 8.20514 20.7657L8.47394 20.6808C8.56555 20.657 8.65067 20.6297 8.74274 20.606C8.40674 20.7657 8.05304 20.9016 7.71659 21.0578C7.38059 21.2244 7.03698 21.3604 6.69023 21.5098L5.66408 21.9616C5.31957 22.1012 4.98357 22.2506 4.64062 22.3933H4.64085ZM4.86485 23.3341C4.86485 23.3341 6.95791 22.1074 7.67829 21.7132C8.05551 21.5026 9.27541 20.8976 9.27541 20.8976L4.86485 23.3341Z" fill="#CFB66C"/>
        <path fill-rule="evenodd" clip-rule="evenodd" d="M4.86523 23.3348C5.21848 23.1173 5.57867 22.8964 5.93887 22.6722L6.47647 22.3458C6.65992 22.2372 6.83666 22.1352 7.0237 22.0266C7.20715 21.9177 7.38389 21.8091 7.57071 21.7072C7.65964 21.6523 7.75282 21.6046 7.84936 21.5645L8.13474 21.4218C8.51195 21.2384 8.88917 21.0513 9.28677 20.8916C8.92658 21.1194 8.55608 21.3132 8.18581 21.5134C8.00235 21.6153 7.81531 21.7072 7.63186 21.8091C7.4484 21.911 7.27167 22.0199 7.08463 22.1184C6.90117 22.2271 6.72443 22.329 6.53762 22.4276L5.98367 22.73L4.86568 23.3348H4.86523ZM9.25877 21.1667C9.25877 21.1667 7.95733 22.1657 7.53599 22.4851C7.11464 22.8046 5.87435 23.7017 5.87435 23.7017L9.25877 21.1667Z" fill="#CFB66C"/>
        <path fill-rule="evenodd" clip-rule="evenodd" d="M16.7275 29.2231L16.0615 27.9624L16.4488 26.3857L19.2114 25.3188L18.0356 22.9063L18.6167 20.4699L19.7076 18.2881L23.0785 17.7581L25.5555 15.3965L30.9042 15.8008L31.9541 21.5197L29.9323 28.7202L28.7805 32.448L24.1114 32.6248L21.9435 31.1229L19.4052 30.0624L16.7275 29.2231Z" fill="#E2CC85"/>
        <path fill-rule="evenodd" clip-rule="evenodd" d="M24.9175 29.1827C24.9175 29.1827 24.2717 29.4784 23.1703 29.4103C22.8516 28.9822 20.6192 28.7818 20.6192 28.7818C20.6192 28.7818 20.3405 28.6969 19.8477 28.9007C19.3518 29.1023 18.8827 29.0774 18.4444 29.1861C18.006 29.2947 17.5708 28.724 17.2348 28.605C16.8988 28.4794 16.4532 28.177 16.4532 28.177L15.5124 28.0851L13.6232 27.2866L10.6218 24.2964L9.80624 25.5732L9.55469 27.1533L10.4621 29.0257L12.9053 31.2514L17.6693 32.461L20.4931 31.629L24.0305 30.1338L24.9175 29.1825V29.1827Z" fill="#F1D789"/>
        <path fill-rule="evenodd" clip-rule="evenodd" d="M7.99154 18.6146L8.59634 16.7832L9.31695 15.6005L11.6376 15.4067L10.9409 17.4389L9.00088 20.8914L9.80616 23.9734L8.37906 24.6868L7.94047 24.0142L7.58722 22.4715L7.56348 20.7384L7.99154 18.6146Z" fill="#F4ECB4"/>
        <path fill-rule="evenodd" clip-rule="evenodd" d="M10.594 29.0567L10.1489 28.4349C10.1489 28.4349 10.0299 28.1392 10.098 27.881C10.1652 27.6193 10.1556 27.6023 10.1218 27.5037C10.088 27.4052 9.80236 27.0654 9.81938 26.7731C9.83618 26.4774 9.79564 26.3788 10.0129 26.1445C10.2405 25.9169 10.1726 25.5227 10.1726 25.5227L10.4683 25.7061L10.5355 25.6042C10.5355 25.6042 10.6441 25.6891 10.6441 25.8217C10.6679 25.6383 10.5693 24.7886 10.7936 24.5951C11.0178 24.4016 11.4154 25.5023 11.4154 25.5023L11.1708 23.9052L10.542 22.2675L9.42402 20.7723L9.35682 19.1241V18.9814C9.35682 18.9814 8.84364 19.7699 8.70095 20.3926C8.59903 20.8207 8.84364 21.3406 8.79279 21.9557C8.7518 22.5675 8.70095 22.5197 8.85036 22.7621C8.99976 23.0045 9.36354 23.5029 9.22085 23.8631C9.09519 24.1724 8.6669 23.9549 8.6669 23.9549C8.6669 23.9549 8.582 24.2062 8.46642 24.2981C8.42565 24.1487 8.38152 24.0535 8.29999 23.9621C8.29304 24.0199 8.27624 24.0981 8.27624 24.0981C8.27624 24.0981 8.20143 23.8635 8.12661 23.5678C8.02492 23.1738 7.91605 22.6539 7.81749 22.3753C7.77672 22.535 7.6748 23.0208 7.6748 23.0208L7.7326 23.7685L8.01125 24.7947L8.28005 25.4667L8.54168 26.289L8.76904 26.8414L8.9525 27.2627L9.11221 28.2109L9.88344 29.0263L10.2947 29.21L10.5935 29.057L10.594 29.0567Z" fill="#F3E19D"/>
        <path fill-rule="evenodd" clip-rule="evenodd" d="M8.39595 17.1194C8.39595 17.1194 7.84199 18.0602 7.68251 19.0086C7.52302 19.957 7.38011 20.9592 7.48091 22.2503C7.58283 23.552 7.77659 24.3503 7.93294 24.9213C8.20174 25.8695 8.89793 27.1879 8.89793 27.1879L8.92167 27.1369C8.80465 26.9151 8.71125 26.6816 8.64302 26.4402C8.55118 26.08 8.51713 25.652 8.43223 25.4582C8.35742 25.2647 8.23175 25.098 8.1706 24.8601C8.11281 24.6326 8.1034 24.2724 7.92599 24.004C7.85118 23.8951 7.75934 23.6098 7.73223 23.3244C7.69819 22.8961 7.74926 22.417 7.70849 22.023C7.63367 21.3671 7.58283 20.922 7.6507 20.5786C7.71857 20.2352 8.07227 19.2604 8.28977 18.4856C8.43246 17.9894 8.34734 17.5714 8.60897 17.1398C8.8706 16.7117 9.03054 16.3345 9.08811 16.0728C9.15531 15.835 8.39505 17.1194 8.39505 17.1194H8.39595Z" fill="#F2E8B0"/>
        <path fill-rule="evenodd" clip-rule="evenodd" d="M11.0228 16.7422C11.0228 16.7422 10.7374 16.8273 10.6015 16.9767C10.4655 17.1194 10.4077 17.2383 10.2242 17.4796C10.0408 17.7208 10.0305 17.918 9.88085 18.2204C9.73144 18.516 9.40171 18.9611 9.36095 19.1208C9.32018 19.2806 9.25231 20.028 9.16741 20.3815C9.09259 20.735 9.25231 21.17 9.25231 21.17L9.44584 21.129C9.44584 21.129 9.44584 21.3806 9.6396 21.5506C9.83314 21.717 9.86719 20.9863 9.86719 20.9863L10.5909 18.5431L11.6816 17.8024L11.8005 17.2043L11.0224 16.7422H11.0228Z" fill="#F5EEC0"/>
        <path fill-rule="evenodd" clip-rule="evenodd" d="M11.5529 17.8499C11.5529 17.8499 11.0397 17.8837 10.7884 18.0674C10.6864 18.142 10.6457 18.2031 10.537 18.295C10.3366 18.4614 10.1325 18.6144 10.0342 18.8326C9.92529 19.0499 9.80635 19.3796 9.72481 20.0014C9.69077 20.263 9.69077 20.5043 9.66702 20.7151C9.63297 21.0005 9.58213 21.228 9.60923 21.3871C9.64328 21.7132 9.97973 21.8832 10.0124 22.2535L10.7091 21.9003L11.3649 19.3142L12.7582 18.4406L11.9697 17.5571L11.552 17.8483L11.5529 17.8499Z" fill="#E6DB9D"/>
        <path fill-rule="evenodd" clip-rule="evenodd" d="M7.87718 35.2639C7.88009 35.2383 7.883 35.2128 7.88591 35.1866C7.98761 34.313 8.00486 33.6508 8.07945 33.2362C8.18809 32.6484 8.26291 32.4298 8.24588 32.2099C8.22214 31.8566 8.19503 31.5983 8.22908 31.3264C8.27993 30.9662 8.6334 30.5381 8.62332 30.2425C8.61638 30.0079 8.49743 29.8552 8.39551 29.7125C8.29359 29.5698 8.21206 29.4508 8.21206 29.4508C8.21206 29.4508 8.9087 28.9717 8.90198 27.0415C8.9162 27.0455 8.92989 27.0512 8.94274 27.0585L9.28591 28.0336L9.52044 28.319L10.4209 29.9976L11.5797 31.1226L13.2922 32.2744L14.366 33.443L14.4746 36.559L13.0713 38.3804L12.8415 38.7966C11.0156 37.8799 9.34123 36.6884 7.87695 35.2636L7.87718 35.2639Z" fill="#E5CB7A"/>
        <path fill-rule="evenodd" clip-rule="evenodd" d="M12.1641 38.245C12.1641 38.245 12.1878 37.8577 12.5072 37.6061C12.5583 37.691 12.5921 37.7728 12.582 37.8337C12.6398 37.732 13.0442 37.0795 13.9583 36.9095C14.8724 36.743 15.0933 36.0771 15.0933 36.0771L17.0334 34.3135L19.2523 32.2713L21.9504 31.3231L23.2113 31.0138C23.2113 31.0138 23.235 31.1056 23.1875 31.3095C23.4219 31.2927 23.9418 31.1737 24.482 30.9833C24.6995 30.8984 24.9036 30.8644 25.0123 30.9766C25.172 31.126 25.1957 31.4795 25.2058 31.69C25.4674 31.6322 25.7698 31.3809 26.0122 31.4047C26.3997 31.4454 26.7429 31.9008 27.1371 31.9008C27.657 31.9008 27.8913 31.5814 28.2551 31.3298C28.4726 31.1804 28.7851 30.9938 28.9618 30.8677C29.3832 30.5584 33.8414 29.1958 33.8414 29.1958L35.4045 29.2977L35.6561 30.9764L35.5217 35.3645C35.5051 35.3804 35.4885 35.397 35.4717 35.4129L28.3646 39.1248L18.5131 40.635C16.3063 40.2745 14.1768 39.542 12.2151 38.4687L12.1647 38.2447L12.1641 38.245Z" fill="#D8C173"/>
        <path fill-rule="evenodd" clip-rule="evenodd" d="M8.47461 35.8224C8.61461 35.5297 8.7405 35.2848 8.76267 35.1973C8.78014 35.3738 8.81218 35.7611 8.87669 36.1728C8.74124 36.0576 8.60722 35.9408 8.47461 35.8222V35.8224Z" fill="#F1D789"/>
        <path fill-rule="evenodd" clip-rule="evenodd" d="M15.6715 39.952L16.9456 39.5976L17.0542 39.6317C17.0542 39.6317 17.112 39.6657 17.112 39.7811C17.2717 39.6895 17.4077 39.7063 17.5063 39.6454C17.5571 39.754 17.608 40.1142 17.8324 40.1583C18.0667 40.2094 18.3183 40.0564 18.5732 39.8629C18.8245 39.6624 19.1108 39.4108 19.3274 39.3089C19.4069 39.455 19.4773 39.6059 19.5382 39.7607C19.8236 39.5331 20.3197 38.6089 21.0264 38.6257C21.2307 38.143 21.572 37.7307 22.008 37.4399C22.6639 36.9948 23.0749 36.9607 23.5881 37.0015C23.7919 36.7367 24.0431 36.5121 24.3289 36.3389C24.4138 36.3729 24.6483 36.5156 24.9406 36.3797C25.2363 36.2439 25.5692 35.7171 26.0075 35.6492C26.2437 35.6167 26.4839 35.6671 26.6871 35.7919C26.6871 35.7919 27.9639 34.5243 28.8449 34.1029C28.8109 34.001 28.743 33.6171 29.7759 32.7674C29.8337 32.8185 29.7929 32.9612 29.8337 32.969C29.8505 32.969 30.1025 32.8604 30.4214 32.6156C30.8157 32.3201 31.2879 32.0108 31.5732 31.9259C32.1108 31.7662 32.6812 32.0923 32.6812 32.0923C32.7296 32.0583 32.7837 32.033 32.8409 32.0175C32.9766 31.9937 33.0752 31.9767 33.15 31.9503C33.1433 32.127 33.2418 32.4294 33.15 32.6911C33.2564 32.7509 33.3691 32.7987 33.486 32.8337C33.4284 32.9594 33.3025 33.2788 33.092 33.4318C33.2685 33.5167 33.2922 33.6153 33.5438 33.7006C33.4419 33.8433 33.275 34.0881 33.2006 34.2382C33.1258 34.3979 32.8572 35.0605 32.7383 35.3119C32.6126 35.5634 32.4428 36.0255 32.3611 36.1183C32.2793 36.211 31.9838 36.6041 31.7563 36.7976C31.9579 36.7228 32.7826 36.4715 33.1325 36.3763C33.0284 36.5291 32.5004 37.3124 31.9928 38.0657C29.5625 39.5224 26.8497 40.4443 24.0351 40.7702C21.2205 41.096 18.3687 40.8182 15.6699 39.9554L15.6715 39.952Z" fill="#E0CD81"/>
        <path fill-rule="evenodd" clip-rule="evenodd" d="M11.636 17.7585C11.636 17.7585 11.3405 17.7585 11.2827 17.7993C11.2249 17.84 11.5784 17.9252 11.687 17.9659C11.7957 18.0067 12.0302 18.1935 12.0913 18.3431C12.1491 18.4858 14.2151 19.3182 14.2151 19.3182L15.6762 19.2434L16.18 18.5474L15.2217 17.7081L15.8937 15.7271L15.0036 15.8697L12.8628 17.1465L11.7889 17.5578L11.636 17.7585Z" fill="#DFC57C"/>
        <path fill-rule="evenodd" clip-rule="evenodd" d="M14.8453 18.4143C14.8664 18.4485 14.8962 18.4765 14.9316 18.4956C14.9669 18.5147 15.0067 18.5241 15.0469 18.5229C15.3493 18.5229 15.6277 18.5977 15.7433 18.7505C15.9371 18.9953 16.474 19.7769 16.474 19.7769L17.7584 20.239L17.8413 18.7265L16.4379 17.7515L14.8408 18.3392V18.4141H14.8444L14.8453 18.4143Z" fill="#E5CC7C"/>
        <path fill-rule="evenodd" clip-rule="evenodd" d="M14.5936 18.9749C14.5936 18.9749 14.8279 18.9919 15.1235 18.8831C15.4192 18.7742 15.9051 18.5399 16.1159 18.6317C16.4113 18.7574 16.3502 19.1516 16.6698 19.5053C16.8634 19.7228 17.2168 19.7161 17.4173 19.9506C17.6178 20.1852 18.3075 20.0763 18.3075 20.0763L18.5691 21.4875L17.5192 22.8333L17.1758 24.505H15.7561L14.4592 23.9905L13.8203 22.4449L14.1397 20.8818L14.5936 18.9749Z" fill="#D2C281"/>
        <path fill-rule="evenodd" clip-rule="evenodd" d="M17.3399 19.0426C17.3751 19.0534 17.4117 19.0591 17.4486 19.0596C17.4078 19.0936 17.3227 19.1682 17.3567 19.362C17.3908 19.5557 17.4994 19.8003 17.4078 19.9498C17.4809 20.0297 17.5355 20.1249 17.5675 20.2284C17.6253 20.3951 17.6423 20.5478 18.0193 20.5718C17.9649 20.6053 17.9147 20.6452 17.8699 20.6907C17.8699 20.6907 18.1315 20.9183 18.2641 21.1289C18.3999 21.1231 18.7601 21.0111 18.7601 21.0111L18.8349 21.0621L18.9946 20.9949C18.9946 20.9949 18.8452 20.9371 18.9538 20.5736C19.0558 20.2542 19.1476 20.2712 19.1554 20.2474C19.1633 20.2237 19.2303 19.8873 19.2303 19.7513C19.2811 19.5748 19.3219 19.0378 19.3219 19.0378L19.2132 17.852L18.6017 17.4815L18.1044 17.0015L17.6354 17.8849L17.3265 18.1929L17.3027 18.9574L17.3399 19.0426Z" fill="#E2C270"/>
        <path fill-rule="evenodd" clip-rule="evenodd" d="M18.8105 18.0504C18.8105 18.0504 18.9192 18.3595 18.9602 18.5974C18.9746 18.5511 18.9826 18.5031 18.9839 18.4547C18.9839 18.4547 19.0688 18.9237 19.0856 19.1175C19.1197 19.1105 19.1528 19.1005 19.1604 19.1343C19.1681 19.1681 19.2456 19.5455 19.2276 19.7561C19.3691 19.5227 19.5649 19.3269 19.7984 19.1854C19.9344 19.1002 20.0941 19.0086 20.2607 19.0017C20.5224 18.995 20.7125 19.1683 21.0252 19.1683C21.7794 19.1683 22.4626 18.6144 22.9655 18.4446C23.3358 18.3187 23.6552 18.2271 23.8794 18.023C23.9883 17.9314 24.1821 17.7276 24.3586 17.4249C24.5931 17.0217 24.8377 16.6707 25.0825 16.6266C24.9718 16.647 24.8591 16.6549 24.7465 16.6504C24.7465 16.6504 24.8214 16.5755 24.9481 16.4736C25.0749 16.3717 25.2268 16.246 25.4441 16.246C25.8316 16.246 26.0251 16.3036 26.2426 16.3036C26.4601 16.2969 26.5858 16.246 26.5858 16.246C26.5858 16.246 26.8136 16.4057 27.3266 16.4057C27.8398 16.4125 28.1829 16.4566 28.4515 16.4806C28.7201 16.5045 29.6203 16.4057 29.8786 16.4134C30.047 16.4198 30.2123 16.4603 30.3647 16.5323L29.5321 14.1131L26.5412 11.499L24.7607 12.7597L22.0216 15.4985L19.3712 16.4806L18.8173 17.1024V18.0504H18.8105Z" fill="#CCB360"/>
        <path fill-rule="evenodd" clip-rule="evenodd" d="M24.7578 16.6639C24.7578 16.6639 24.8326 16.5893 24.958 16.4874C25.0835 16.3855 25.2369 16.2596 25.4542 16.2596C25.8415 16.2596 26.0352 16.3174 26.2527 16.3174C26.4702 16.3106 26.5959 16.2596 26.5959 16.2596C26.5959 16.2596 26.8239 16.4191 27.3367 16.4191C27.8499 16.4258 28.193 16.4699 28.4616 16.4936C28.7302 16.5174 29.6304 16.4191 29.8887 16.4264C30.057 16.4328 30.2223 16.4733 30.3746 16.5454L29.9973 15.4545L29.5592 14.6221L28.3086 13.2526C28.3086 13.2526 26.8078 12.3691 26.7964 12.3624C26.7897 12.3557 26.2765 12.2197 26.2765 12.2197L24.9172 13.042L23.6839 16.2329L23.6602 16.9049L24.4585 17.2821C24.659 16.9461 24.8801 16.6773 25.0873 16.6433C24.9002 16.6637 24.7575 16.6637 24.7575 16.6637L24.7578 16.6639Z" fill="#D5B457"/>
        <path fill-rule="evenodd" clip-rule="evenodd" d="M24.7406 16.8918C24.6216 16.8986 24.5233 16.8748 24.496 16.7899C24.394 16.5046 24.3125 16.4638 24.2272 16.4638C24.1418 16.4638 24.0267 16.6472 23.9584 16.664C23.89 16.6808 23.8089 16.4535 23.8089 16.4535L23.7341 16.4194C23.7341 16.4194 23.2958 16.7048 22.9866 17.0413C22.6775 17.3777 22.1711 17.9487 21.9435 18.0504C21.7159 18.1521 20.9341 18.1863 20.6667 18.2441C20.3992 18.3019 20.1026 18.4957 20.0619 18.5398C20.0211 18.5839 20.181 18.6314 20.2048 18.6756C20.2285 18.7163 19.9429 18.6993 19.9192 18.7428C19.9024 18.7768 19.9864 18.9703 20.028 19.0689C20.101 19.0327 20.181 19.0129 20.2624 19.0111C20.524 19.0044 20.7144 19.1778 21.0269 19.1778C21.7813 19.1778 22.4643 18.6238 22.9672 18.4538C23.3376 18.3281 23.6571 18.2363 23.8813 18.0325C23.9899 17.9408 24.1837 17.7368 24.3604 17.4344C24.4895 17.2272 24.6153 17.0334 24.7412 16.8907L24.7406 16.8918Z" fill="#D2B257"/>
        <path fill-rule="evenodd" clip-rule="evenodd" d="M13.9217 33.7088C13.9217 33.7088 13.8545 33.4573 13.2317 32.8083C13.055 32.6249 12.9464 32.4723 12.8274 32.3632C12.5317 32.0844 12.3584 32.0098 12.1478 31.8501C11.6857 31.5069 11.1828 31.5069 10.7955 31.0855C10.4082 30.6642 9.95686 29.8591 9.64326 29.0364C9.33414 28.2141 9.24902 27.9525 9.24902 27.9287C9.24902 27.905 9.33414 27.7453 9.44278 27.769C9.55142 27.7927 9.55142 28.0033 9.57875 28.0544C9.63288 28.1377 9.69427 28.2161 9.76221 28.2887C9.92192 28.4724 10.1495 28.6919 10.2651 29.0194C10.2413 28.7407 10.1461 28.4316 10.1461 28.4316C10.1461 28.4316 10.7442 28.8088 11.2538 29.2028C11.767 29.5971 11.9776 29.733 12.1274 29.9844C12.2773 30.2357 12.6303 30.8985 12.7994 31.0923C12.9685 31.286 15.2858 32.0165 15.2858 32.0165L16.3881 32.8383L16.9354 34.0379L16.5071 34.7099L15.6848 34.8866L14.3493 34.2885L13.9217 33.7086V33.7088Z" fill="#D2B159"/>
        <path fill-rule="evenodd" clip-rule="evenodd" d="M10.9541 29.5769C10.9541 29.5769 11.2328 30.022 11.9124 30.4433C12.5241 30.8138 13.4925 31.1503 14.3558 31.3507C14.8517 31.4697 15.3479 31.5613 15.793 31.5682C16.9925 31.585 17.8181 31.2421 18.8411 31.1299C19.3951 31.0721 20.0747 31.028 20.7814 30.8611C21.6886 30.6436 22.2256 30.3987 22.9562 30.0547C23.4862 29.8101 23.9723 29.6266 24.3663 29.3921C24.9203 29.0659 25.3246 28.7024 25.7937 28.5938C25.7359 28.7535 25.6747 29.0388 25.2126 29.3345C25.4572 29.3276 25.7937 29.3108 25.7937 29.3108C25.7937 29.3108 25.4675 29.5043 24.8932 29.9393C24.5397 30.2081 24.0709 30.6631 23.5917 30.9655C23.2824 31.1592 22.9459 31.3015 22.7251 31.4175C22.1875 31.7132 21.9706 31.8626 21.6174 32.2239C21.7431 32.2172 21.7534 32.2239 21.7534 32.2239C21.7534 32.2239 21.3081 32.2817 20.9889 32.4515C20.9217 32.4515 20.8052 32.4277 20.6013 32.4855C20.4416 32.5364 20.2308 32.6522 20.0136 32.7131C19.7042 32.805 19.6025 32.7642 19.6025 32.7642L19.6534 32.8661C19.6534 32.8661 19.2502 32.8592 19.1158 32.8728C19.1395 32.8795 19.1328 32.8898 19.1328 32.8898C19.1092 32.8938 19.0864 32.9018 19.0656 32.9136C19.0009 32.9555 18.9298 32.9864 18.855 33.0052C18.8143 33.0119 18.7802 33.0119 18.7291 33.0222C18.7462 33.063 18.8788 33.291 18.9399 33.4254C18.8891 33.4595 18.1243 34.0372 18.1243 34.0372C18.1481 34.0745 18.1674 34.1144 18.1821 34.1561C18.2059 34.2307 18.2162 34.3396 18.2399 34.3904C18.2975 34.4923 18.3315 34.5094 18.3315 34.5094C18.3315 34.5094 18.2399 34.5264 18.08 34.5672C17.9442 34.6012 17.7776 34.6588 17.5424 34.6928C17.4702 34.7022 17.3976 34.7079 17.3249 34.7098C17.3589 34.7847 17.5083 35.07 17.233 35.3995C16.9578 35.729 16.8729 35.777 16.788 35.9875C16.7452 35.9552 16.6997 35.9267 16.652 35.9024C16.5604 35.8617 16.4345 35.8007 16.3904 35.719C16.3646 35.8279 16.3306 35.9347 16.2884 36.0384C16.2035 36.266 16.0779 36.4904 16.0541 36.6602C15.9623 36.5583 15.7925 36.3578 15.558 36.3986C15.3234 36.4394 15.1366 36.7588 15.0959 36.8506C15.0959 36.7928 15.0551 36.7487 15.045 36.8166C15.0381 36.8914 14.909 37.6727 14.1887 38.3048C14.1819 38.1451 14.1819 37.7916 14.1649 37.6763C14.0977 37.7435 14.0155 37.8427 13.5261 38.0535C13.0469 38.2641 13.1229 38.4748 13.1229 38.4748C13.1229 38.4748 13.0821 38.1388 13.3404 37.7849C13.602 37.4317 13.7617 37.265 13.7617 37.2379C13.7575 37.2103 13.7457 37.1844 13.7277 37.1631C13.6936 37.129 13.6258 37.0883 13.6258 37.0612C13.6665 37.0444 14.0708 36.8506 14.0471 36.4494C14.0234 36.0895 13.8706 35.9024 13.7617 35.77C13.7449 35.753 13.9217 35.6274 13.8977 35.5866C13.8807 35.5628 13.6634 35.4029 13.6361 35.3178C13.6425 35.267 13.6539 35.2169 13.6701 35.1684C13.6938 35.0936 13.7109 35.0425 13.7042 34.9916C13.6871 34.9067 13.5953 34.6722 13.5682 34.6485C13.5919 34.6552 13.7617 34.6485 13.7617 34.6485C13.7617 34.6485 13.626 34.431 13.602 34.329C13.578 34.2271 13.5272 33.9585 13.5001 33.9077C13.5579 33.9144 13.7006 33.9245 13.7006 33.9077C13.7075 33.8566 13.5749 33.7717 13.6334 33.7061C13.6741 33.7128 13.7523 33.7469 13.8269 33.8421C13.7861 33.7332 13.7183 33.5226 13.5754 33.4377C13.6426 33.414 13.871 33.3526 14.0715 33.4716C14.272 33.5905 14.3403 33.7569 14.3403 33.7569C14.3403 33.7569 14.4593 33.8488 14.6429 33.9848C14.8535 34.1512 15.1218 34.388 15.5501 34.5555C15.642 34.6066 15.8763 34.6066 16.0463 34.5725C16.1203 34.5549 16.1913 34.5263 16.2569 34.4876C16.2805 34.4737 16.3056 34.4623 16.3317 34.4536C16.2951 34.3803 16.2531 34.3098 16.206 34.2428C16.2638 34.2428 16.3317 34.2497 16.3317 34.2497C16.3317 34.2497 16.3724 34.1579 16.189 33.9809C16.2298 33.9402 16.2808 33.9138 16.2808 33.845C16.223 33.8383 16.1211 33.7534 16.0974 33.7193C16.1312 33.6956 16.1823 33.6174 16.2401 33.5937C16.189 33.5529 16.0633 33.3829 16.0055 33.3661C16.0607 33.3456 16.1142 33.3206 16.1652 33.2913C16.1652 33.2913 15.8799 33.2164 15.788 33.1553C15.6962 33.0881 15.5604 32.9718 15.4789 32.9378C15.3938 32.9037 15.2444 32.8869 15.1832 32.8188C15.2408 32.8359 15.3326 32.8188 15.4007 32.8188C15.4516 32.8188 15.4755 32.8256 15.4923 32.8256C15.4856 32.8018 15.4856 32.7507 15.6182 32.7339C15.682 32.7243 15.7439 32.7048 15.8017 32.6761C15.8017 32.6761 15.6758 32.6694 15.5329 32.5335C15.39 32.3975 15.2713 32.2889 15.1897 32.2718C15.1048 32.2548 14.9451 32.3296 14.8466 32.3227C14.7106 32.3059 14.6528 32.2378 14.6528 32.2378C14.6528 32.2378 14.201 32.2785 13.1986 31.667C12.3319 31.1368 11.9547 30.668 11.9547 30.668C11.8736 30.6386 11.7952 30.6021 11.7204 30.5591C11.3943 30.3893 10.9422 30.0359 10.9559 29.5735L10.9541 29.5769Z" fill="#C2A44D"/>
        <path fill-rule="evenodd" clip-rule="evenodd" d="M23.4554 9.18176C23.534 9.20729 23.6039 9.25441 23.657 9.31772C23.8167 9.50118 23.9187 9.84771 23.5551 10.2182C23.6978 10.2691 23.7567 10.2854 23.8813 10.2691C23.7556 10.4187 23.4702 10.7381 23.4532 11.0168C23.4362 11.2443 23.5789 11.3124 23.5789 11.3124C23.5789 11.3124 23.3613 11.5638 23.3513 11.9844C23.454 11.8686 23.5664 11.7617 23.6873 11.665C23.9388 11.4645 24.2853 11.237 24.5199 11.0943C24.5167 11.1541 24.5247 11.2139 24.5436 11.2708C24.5436 11.2708 24.9818 10.9106 25.35 11.0705C25.5165 11.1453 25.4416 11.3796 25.4416 11.3796C25.4416 11.3796 25.6694 11.2947 25.8292 11.4545C25.9889 11.6142 26.2147 12.0261 26.3305 12.1858C26.3813 12.2606 26.5139 12.4033 26.6497 12.6242C26.8351 12.9334 26.99 13.26 27.112 13.5993C27.1187 13.4225 27.1629 13.1475 27.666 13.3206C28.1688 13.4973 28.7396 13.8678 29.2187 14.5974C29.6979 15.327 29.8166 16.1506 30.0578 16.4642C30.3024 16.7666 30.554 17.2695 30.571 17.4803C30.588 17.6911 30.4962 18.3705 30.9991 20.2088C31.1418 19.6381 31.3593 18.3705 31.3593 18.3705L31.4782 17.2525L31.6142 13.7932L28.002 10.7923L25.1782 8.74316L23.3398 8.9199L23.4552 9.18153L23.4554 9.18176Z" fill="#CAA13E"/>
        <path fill-rule="evenodd" clip-rule="evenodd" d="M30.1671 14.3293C30.1671 14.3293 30.116 13.9933 29.2666 13.4221C28.417 12.8581 27.7544 12.8581 27.1429 12.3789C26.6738 12.0017 26.1846 11.1351 25.8661 10.8497C25.5567 10.5677 25.5059 9.75209 25.5059 9.75209L26.549 8.87849L28.1005 6.63602L29.412 5.19189L30.0405 6.06549L30.9141 7.09164L31.4 9.15087L31.5767 12.165L30.1655 14.3295L30.1671 14.3293Z" fill="#B59544"/>
        <path fill-rule="evenodd" clip-rule="evenodd" d="M31.2172 17.9423C31.2429 17.4852 31.1865 17.0272 31.0505 16.59C30.8265 15.8934 30.3371 14.6564 30.1097 14.1932C30.0179 13.68 30.086 13.6393 30.1845 13.5815C30.2831 13.5237 30.6536 13.3127 30.8565 12.5723C31.0595 11.832 31.6892 11.8078 31.6892 11.8078L32.0765 11.5225L32.6645 12.9937L33.1774 14.3225L33.3371 15.3385L33.4561 16.205L33.1774 18.0366L31.8014 19.2803L31.217 17.9423H31.2172Z" fill="#C89D3A"/>
        <path fill-rule="evenodd" clip-rule="evenodd" d="M12.0146 38.3576V38.3199C12.0432 38.3021 12.0685 38.2793 12.0892 38.2527C12.113 38.2187 12.1302 38.1779 12.147 38.1678C12.1811 38.1508 12.3408 38.1006 12.4257 38.1168C12.5106 38.1329 12.735 38.2254 12.854 38.2187C13.0986 38.212 13.384 38.0249 13.836 38.1101C14.5156 38.2357 14.6753 38.6978 15.0696 38.9595C15.3384 39.1431 15.6166 39.0614 15.6573 39.0614H15.749C15.766 39.0614 15.8916 38.9187 15.9597 38.9256C16.0957 38.9324 16.1091 39.0446 16.194 39.0513C16.3945 39.075 16.782 38.9494 16.9758 39.0005C17.0333 39.0185 17.0855 39.0501 17.1281 39.0926C17.1707 39.1352 17.2024 39.1874 17.2204 39.2448C17.2612 39.3705 17.2271 39.5302 17.1286 39.6221C16.918 39.8156 16.7175 39.9993 16.6768 40.1597C16.7286 40.1992 16.7784 40.2414 16.8259 40.286C15.1446 39.8576 13.527 39.2099 12.0146 38.3596V38.3576Z" fill="#CEB052"/>
        <path fill-rule="evenodd" clip-rule="evenodd" d="M30.1094 31.5679C30.1094 31.5679 30.6394 30.8612 30.823 30.5111C31.0065 30.1502 30.242 25.5806 30.242 25.5806L31.778 20.5482L31.737 18.9103C31.737 18.9103 31.8118 17.3981 31.9885 16.7422C32.1993 17.1194 32.8552 17.5748 32.9979 17.8161C33.0651 17.3537 33.2933 16.3787 33.2595 15.3389C33.3852 15.5324 33.6876 17.4796 33.6876 17.4796L33.99 18.7912L34.3842 20.1844L34.8226 21.6559L35.0842 22.672L35.2336 22.9166L35.3595 23.3446L35.4784 23.807L35.8216 24.8909L36.0232 25.7811L36.1829 27.3952C36.2176 27.5188 36.2427 27.6449 36.2577 27.7724C36.2644 27.9492 36.234 28.0511 36.234 28.0818C36.234 28.1125 36.2918 28.4691 36.268 28.7376C36.234 29.0064 36.234 29.2168 36.0232 29.4096C35.8124 29.6025 35.68 30.7552 35.68 30.7552L35.3028 30.5039C35.3028 30.5039 35.3776 30.1605 35.2009 29.848C35.0242 29.5355 34.681 29.4708 34.4872 29.5219C34.2937 29.5626 33.9064 29.6236 33.7805 29.7324C33.6616 29.8411 33.3695 30.1775 33.1009 30.3305C32.7649 30.5321 32.2174 30.548 31.9253 30.6159C31.6297 30.6831 31.3035 30.8847 30.9601 31.1188C30.6909 31.2931 30.4066 31.443 30.1107 31.5668L30.1094 31.5679Z" fill="#CCA847"/>
        <path fill-rule="evenodd" clip-rule="evenodd" d="M30.1094 38.9926C30.1094 38.9926 30.1318 39.0072 30.175 39.0309C32.5892 37.8998 34.7523 36.2966 36.5366 34.3157C36.5171 33.628 36.4918 32.9231 36.464 32.6619C36.4065 32.108 36.4472 31.5439 36.4302 31.2178C36.4132 30.8917 36.2297 29.5629 36.1448 29.2197C36.053 28.8766 35.876 28.7065 35.8492 28.7065C35.8254 28.7135 35.6825 29.3523 35.6825 29.5129C35.6825 29.6736 35.6484 30.0602 35.6484 30.1587C35.6247 30.1518 35.6146 30.0915 35.6146 30.0669C35.5806 30.1518 35.5398 30.3014 35.5228 30.3184C35.5058 30.3355 35.5465 30.1758 35.5228 30.1417C35.499 30.1077 35.4556 30.1247 35.465 30.0398C35.469 29.9894 35.477 29.9395 35.4887 29.8904C35.4887 29.8904 35.3868 30.0398 35.3122 30.4204C35.2374 30.7976 35.2374 30.8079 35.2103 30.8417C35.1866 30.8827 35.0506 31.0184 35.0436 31.0695C35.0369 31.1611 35.1695 31.253 35.1796 31.3038C35.1863 31.3889 35.0607 31.783 35.0199 31.9758C34.9791 32.1687 34.9962 32.5466 34.9527 32.7403C34.9187 32.9171 34.8855 33.019 34.7692 33.0936C34.8541 33.1106 34.9357 33.1343 34.9357 33.1343C34.9357 33.1343 35.0546 33.6372 34.7522 34.0655C34.6436 34.2149 34.6165 34.283 34.5009 34.419C34.2731 34.6703 34.0964 34.9566 34.0793 35.1427C34.0676 35.0878 34.0596 35.0321 34.0556 34.9761C34.0556 34.9761 33.7023 35.3873 33.5527 35.6219C33.3592 35.9243 33.0906 35.9072 33.0151 35.9821C32.9396 36.0569 32.9233 36.1926 32.9479 36.3015C32.8807 36.3183 32.7544 36.3423 32.6692 36.6039C32.6285 36.7396 32.5266 36.8727 32.3668 36.9641C32.2071 37.0555 32.0134 37.083 31.9148 37.1068C31.9997 37.1305 32.0338 37.1305 32.0745 37.1576C32.0237 37.2425 31.7891 37.3751 31.5275 37.5451C31.2659 37.7048 31.14 37.9391 31.0755 38.0921C31.0083 38.2348 30.9091 38.3267 30.7493 38.3437C30.8165 38.3845 30.916 38.4794 30.9668 38.5101C30.892 38.5271 30.7652 38.5271 30.5388 38.7209C30.3009 38.918 30.2194 38.9758 30.1105 38.9928L30.1094 38.9926Z" fill="#C39D3C"/>
        <path fill-rule="evenodd" clip-rule="evenodd" d="M25.381 40.5674C25.5111 40.4762 25.652 40.4014 25.8006 40.3449C26.3305 40.1344 26.8912 40.0936 27.1121 40.0257C27.3229 39.9585 27.4893 39.8658 27.7509 39.8149C27.744 39.8745 27.7382 39.9305 27.7319 39.9834C26.9605 40.2259 26.1751 40.4209 25.3799 40.5674H25.381Z" fill="#D2BA6B"/>
        <path fill-rule="evenodd" clip-rule="evenodd" d="M35.1559 26.6274C35.1559 26.6274 35.0473 27.2152 34.8535 27.5857C34.6598 27.9562 34.4503 28.4691 34.4503 28.4691C34.4516 28.3535 34.4652 28.2384 34.4911 28.1257C34.2465 28.2684 33.6518 28.6118 33.4831 28.7646C33.3234 28.9073 33.0548 29.1588 32.9869 29.2778C33.1466 28.8089 33.3131 28.3876 33.3404 28.1938C33.0958 28.3706 31.9538 29.3118 31.3593 29.9336L29.5073 31.4322C29.2936 31.5475 29.0735 31.6506 28.8481 31.7409C28.5289 31.8766 28.1517 31.9922 27.873 32.1011C27.9478 31.9006 28.0665 31.7236 28.2332 31.5538C28.4099 31.3874 28.9399 30.8131 29.0215 30.5458C29.0963 30.2672 29.1133 30.1008 29.0147 29.8662C28.9229 29.89 28.7123 29.9003 28.5696 29.941C28.427 29.9818 28.274 30.1346 28.274 30.1346C28.274 30.1346 28.3826 29.5128 28.6171 28.925C28.4404 28.9317 28.138 28.9825 28.138 28.9825C28.138 28.9825 28.5593 28.2758 29.2804 27.7832C29.0596 27.8302 28.8435 27.8973 28.6348 27.9835C28.2135 28.1602 27.7514 28.4219 27.4082 28.5646C27.6017 28.2958 28.961 26.3559 29.7698 24.548C30.5762 22.7437 30.8775 22.2816 31.0543 21.3132C31.1459 20.8341 31.1214 20.126 31.1459 19.4919C31.1696 18.8631 31.2478 18.2991 31.1969 17.9219C31.4075 18.1835 32.196 18.9209 32.2231 20.5691C32.2468 22.2171 31.4689 24.443 30.643 25.6423C30.8446 25.7 31.367 25.7681 31.9037 24.8359C32.4404 23.9036 32.4339 23.6433 32.6276 23.2558C32.6514 23.4495 32.6444 23.5174 32.6444 23.5174C32.6444 23.5174 33.4262 22.5694 33.7965 21.3766C33.8713 21.8898 34.0921 22.3418 33.7454 23.2831C33.4363 24.1325 33.0319 24.3399 33.0319 24.3399C33.0319 24.3399 33.2324 24.3059 33.5279 24.1291C33.579 24.2548 33.5689 24.3979 33.6538 24.4486C33.7387 24.4992 33.8543 24.5845 33.8713 24.6661C33.9629 24.5301 34.1056 24.3567 34.1499 24.2277C34.1159 24.4965 34.0921 25.6718 34.2171 26.2699C34.479 26.2462 34.7473 26.2291 34.9308 25.7567C34.8051 26.2191 34.8051 26.4975 34.89 26.8917C35.0294 26.7968 35.155 26.6267 35.155 26.6267L35.1559 26.6274Z" fill="#C0993A"/>
        <path fill-rule="evenodd" clip-rule="evenodd" d="M26.3269 7.89721C26.3269 7.89721 26.0653 8.00585 25.6202 8.00585C25.2329 8.00585 25.3415 7.85645 24.7367 7.85645C23.8058 7.85645 20.5538 8.39405 19.9828 8.38643C19.6123 8.37971 21.2332 8.54614 21.2332 8.54614L25.3756 8.60393L26.208 8.53673L26.5173 7.90729L26.3269 7.89721Z" fill="#A88F33"/>
        <path fill-rule="evenodd" clip-rule="evenodd" d="M15.5859 15.9947C15.5859 15.9947 15.0557 16.3991 14.8315 16.7084C14.6073 17.0177 14.4883 17.2214 14.2334 17.4729C14.2932 17.4752 14.353 17.4672 14.4101 17.4492C14.4101 17.4492 14.4101 17.5164 14.3694 17.5341C14.4046 17.5301 14.4403 17.5341 14.4737 17.5457C14.5072 17.5574 14.5377 17.5763 14.5629 17.6013C14.4881 17.642 14.2842 17.8461 14.444 18.0873C14.5629 18.2708 14.8145 18.2876 14.8145 18.2876C14.8145 18.2876 14.7567 18.4543 14.9979 18.4372C15.5178 18.4135 16.0989 18.1857 16.3672 18.2435C16.636 18.3107 16.7888 18.3353 16.979 18.665C17.1806 18.9912 17.3562 19.0423 17.3562 19.0423C17.3562 19.0423 17.4751 18.7396 17.448 18.2878C17.5455 18.0443 17.5996 17.7855 17.6077 17.5233L17.431 16.2219L16.6598 15.2466L15.6607 15.8005L15.5859 15.9941V15.9947Z" fill="#E3C571"/>
        <path fill-rule="evenodd" clip-rule="evenodd" d="M16.5342 15.8011C16.5342 15.8011 16.609 15.9779 16.9217 15.9947C16.8877 16.0695 16.8877 16.0798 16.898 16.1374C16.9047 16.1951 16.9148 16.28 16.9148 16.28C16.9492 16.2634 16.9803 16.2406 17.0066 16.2128C17.0236 16.2877 16.9896 16.4064 17.0066 16.4915C17.0171 16.5433 17.0342 16.5935 17.0574 16.6409C17.0624 16.6293 17.0681 16.618 17.0745 16.6071C17.0812 16.5901 17.1417 16.7905 17.309 16.9431C17.3088 16.9196 17.3146 16.8965 17.3258 16.8759C17.3284 16.9185 17.3425 16.9596 17.3666 16.9948C17.354 16.9889 17.3426 16.9808 17.3327 16.9711C17.3327 16.9711 17.3495 17.5087 17.4414 17.7867C17.4567 17.7687 17.4704 17.7494 17.4821 17.7289C17.4821 17.7121 17.4754 17.8785 17.4584 17.9977C17.4347 18.1166 17.4517 18.2831 17.4517 18.2831C17.5129 18.2348 17.5803 18.1948 17.6519 18.1641C17.7539 18.1231 17.9207 17.9975 18.0224 17.7188C18.0814 17.561 18.1269 17.3985 18.1584 17.2329C18.1913 17.2962 18.2139 17.3642 18.2256 17.4345C18.2325 17.5194 18.3923 17.4753 18.3923 17.4753L18.4263 17.1048L18.6279 16.2655L18.8114 15.7456L19.6948 14.3695L21.291 13.1402L22.6843 13.4597L23.8599 11.8625L21.8347 10.646L19.9181 10.8465L18.1788 13.2556L16.7857 15.4407L16.5342 15.8009V15.8011Z" fill="#D8B65B"/>
        <path fill-rule="evenodd" clip-rule="evenodd" d="M26.572 12.3146C26.572 12.3146 26.4531 12.3383 26.1099 12.5162C25.7668 12.694 25.5289 12.7505 25.3963 13.0121C25.2636 13.2737 25.2536 13.4811 25.2536 13.4811C25.2536 13.4811 25.4881 13.3792 25.6241 13.3452C25.7668 13.3114 25.9265 13.3214 25.9094 13.3792C25.8931 13.4189 25.8704 13.4555 25.8422 13.4879C25.8422 13.4879 26.111 13.4811 26.1039 13.6138C26.0967 13.7464 26.053 13.8924 26.0022 13.9569C25.9511 14.0241 25.7405 14.1236 25.7168 14.2018C25.659 14.3615 25.7405 14.3682 25.7099 14.4972C25.6861 14.6231 25.5741 14.8677 25.207 15.2958C24.8298 15.7241 24.6694 16.0265 24.6694 16.0265C24.6694 16.0265 24.4859 15.6833 24.3907 15.3876C24.3235 15.4214 23.9627 15.6219 23.9627 15.6219L23.1267 12.7099L23.1435 12.5162C23.1435 12.5162 23.2183 12.4245 23.2353 12.2545C23.1097 12.2138 23.0926 12.1797 22.926 12.0202C22.7593 11.8607 22.6236 11.6667 22.3452 11.5341C22.3044 11.4593 22.2533 11.3576 22.0495 11.3166C21.8456 11.2756 21.7233 11.242 21.7233 11.242C21.7233 11.242 21.832 11.201 21.883 11.1162C21.7572 11.1332 21.6555 11.1739 21.3802 11.1672C21.1015 11.1603 21.0708 11.1502 20.918 11.1739C20.7653 11.1977 20.582 11.2658 20.5137 11.0313C20.4389 10.9735 20.2792 11.0245 20.1432 11.2248C20.0073 11.425 19.9598 11.585 19.6981 11.6632C19.6797 11.7785 19.6394 11.8892 19.5792 11.9893C19.5044 12.1152 19.3854 12.2409 19.2257 12.4277C18.9742 12.7234 19.0149 13.2092 18.614 13.5797C18.2097 13.95 18.6812 12.5533 18.6812 12.5533L19.3268 11.0077L21.1651 9.21014L24.0196 9.0166L24.2982 10.495L25.6915 10.9741L26.5716 12.3163L26.572 12.3146Z" fill="#D3AE4D"/>
        <path fill-rule="evenodd" clip-rule="evenodd" d="M27.0235 12.6407L25.824 10.9112L24.9847 10.2654C24.9847 10.2654 24.3866 9.16466 24.3458 9.13061C24.3118 9.10687 23.7477 9.04572 23.3875 9.02197L23.4547 9.18841C23.5334 9.21394 23.6032 9.26105 23.6563 9.32437C23.8161 9.50783 23.918 9.85436 23.5544 10.2249C23.6971 10.2757 23.756 10.2921 23.8806 10.2757C23.7549 10.4253 23.4695 10.7448 23.4525 11.0234C23.4355 11.251 23.5782 11.3189 23.5782 11.3189C23.5782 11.3189 23.3607 11.5704 23.3506 11.9909C23.4533 11.875 23.5657 11.7682 23.6866 11.6714C23.9381 11.4698 24.2847 11.2432 24.5192 11.1005C24.516 11.1603 24.524 11.2203 24.5429 11.2772C24.5429 11.2772 24.9811 10.917 25.3493 11.0767C25.5158 11.1515 25.441 11.3861 25.441 11.3861C25.441 11.3861 25.6688 11.3012 25.8285 11.4609C25.9882 11.6206 26.2158 12.0316 26.3314 12.1916C26.3822 12.2664 26.5148 12.4091 26.6506 12.6297C26.836 12.939 26.9909 13.2656 27.1129 13.605C27.1196 13.469 27.1469 13.2789 27.3817 13.2789L27.0249 12.64L27.0235 12.6407Z" fill="#CAA13E"/>
        <path fill-rule="evenodd" clip-rule="evenodd" d="M9.04164 17.5543C9.04164 17.5543 8.95674 17.3435 9.04164 16.9324C9.12653 16.5214 9.25914 16.3276 9.30327 15.7228C9.3474 15.118 9.74164 14.3636 9.74164 14.3636L10.8323 13.8677L11.6037 14.0782L11.8313 15.1113L10.856 15.6489C10.856 15.6489 10.8052 15.8765 10.5299 16.06C10.2546 16.2434 9.87402 16.3861 9.78241 16.5731C9.72764 16.6877 9.68767 16.8087 9.66346 16.9333C9.66346 16.9333 9.38481 16.8755 9.21837 17.059C9.04164 17.246 9.04836 17.4125 9.04164 17.5552V17.5543Z" fill="#F4EFC8"/>
        <path fill-rule="evenodd" clip-rule="evenodd" d="M11.2437 17.2793C11.2437 17.2793 11.1519 17.3371 11.084 17.4809C11.0168 17.3722 10.8562 16.7264 10.8495 16.1454C10.8427 15.5643 10.808 15.4203 10.9424 15.22C11.0768 15.0198 11.6039 14.8088 11.5291 14.4481C11.4543 14.105 11.1415 13.9623 10.7576 14.0608C10.4888 14.128 10.2888 14.6997 10.0101 14.9851C9.79934 15.2026 9.54801 15.1685 9.48014 15.2875C9.3883 15.4472 9.4732 15.6069 9.44609 15.7088C9.43915 15.7428 9.35425 15.9263 9.20126 16.1472C8.89214 16.5923 8.36888 17.221 8.30078 17.7851C8.32453 17.4656 8.30773 17.4589 8.39262 17.1054L8.34155 17.0205L8.67755 15.9196L8.89505 15.0124L9.38113 13.4932L10.2373 11.9404L11.0699 11.0093L11.9363 11.0671L12.0382 12.3685L12.5344 14.8119L13.5775 16.0963L11.9056 17.2215L11.243 17.2793H11.2437Z" fill="#EBCC73"/>
        <path fill-rule="evenodd" clip-rule="evenodd" d="M11.7636 17.7409C11.7636 17.7409 11.6209 17.7749 11.5698 17.7478C11.5188 17.7207 11.4681 17.69 11.4849 17.656C11.5017 17.6219 11.5936 17.5644 11.5936 17.5371C11.5955 17.5124 11.5877 17.4879 11.5718 17.4689C11.556 17.4498 11.5333 17.4377 11.5087 17.4351C11.4305 17.425 11.4068 17.4759 11.4068 17.4759C11.4068 17.4759 11.332 17.4183 11.271 17.4087C11.3071 17.4043 11.3433 17.402 11.3797 17.4018C11.2858 17.3592 11.1862 17.3306 11.084 17.3169C11.1689 17.266 11.3355 17.1164 11.4442 17.1164C11.5528 17.1164 11.6209 17.0996 11.6039 17.0418C11.5869 16.984 11.502 16.8991 11.4104 16.8651C11.4442 16.8243 11.4681 16.7631 11.3866 16.5963C11.3015 16.4298 11.3355 16.3176 11.3629 16.2771C11.3866 16.226 11.4715 16.1344 11.5123 16.0766C11.553 16.0188 11.5871 15.9406 11.655 15.8998C11.689 15.8761 11.7976 15.8326 11.9065 15.7912C12.0255 15.7504 12.124 15.6994 12.1919 15.7504C12.2667 15.8013 12.2327 15.8694 12.2327 15.8694C12.2327 15.8694 12.4672 15.7842 12.6777 15.8931C12.8885 15.9948 13.4017 16.0595 13.4017 16.0595L13.5856 16.43L12.3691 17.4732L11.8662 17.7248L11.7643 17.7416L11.7636 17.7409Z" fill="#E5C66B"/>
        <path fill-rule="evenodd" clip-rule="evenodd" d="M13.4521 16.0353C13.4521 16.0353 13.0749 16.2869 12.99 16.3785C13.0408 16.3854 13.1257 16.4195 13.0917 16.4703C13.0509 16.5212 12.8063 16.6979 12.6703 16.8646C12.5276 17.031 12.3917 17.2418 12.3442 17.3437C12.2933 17.4353 11.9058 17.7039 11.7734 17.7377C12.0521 17.7377 12.6128 17.3946 12.8233 17.3946C12.8166 17.4965 12.8811 17.6121 13.0001 17.6221C13.119 17.6322 13.4622 17.697 13.9243 17.4116C14.3864 17.1329 14.2336 16.9255 14.4272 16.7898C14.7977 16.5449 14.9471 16.3274 15.1509 16.1917C15.3547 16.0559 15.4603 16.025 15.4603 16.025C15.4603 16.025 15.467 15.9231 15.5275 15.9334C15.544 15.9353 15.5597 15.9417 15.5729 15.9519C15.5861 15.9621 15.5963 15.9757 15.6023 15.9912C15.6023 15.9912 15.9557 15.7396 16.4087 15.6718C16.3981 15.667 16.3896 15.6586 16.3849 15.648C16.3849 15.648 16.4187 15.631 16.4257 15.614C16.4257 15.614 16.4494 15.5799 16.4665 15.597C16.4835 15.614 16.5072 15.7396 16.5413 15.7907C16.6161 15.7567 16.7588 15.4372 16.7588 15.4372L17.1022 14.4552V13.5581L16.8334 13.6092L14.8174 14.4653L13.5939 15.7329L13.4512 16.0353H13.4521Z" fill="#E6BD62"/>
        <path fill-rule="evenodd" clip-rule="evenodd" d="M19.2562 11.6351C19.3652 11.6086 19.4698 11.5662 19.5664 11.5092C19.5257 11.618 19.5257 11.737 19.3489 11.9953C19.1722 12.2535 19.1655 12.2909 19.0228 12.5593C18.8801 12.838 18.8631 13.2389 18.7271 13.4154C18.788 13.3858 18.8534 13.3664 18.9206 13.3579C18.9206 13.3579 18.7849 13.4768 18.7271 13.6025C18.6693 13.7281 18.5674 13.9898 18.3161 14.1497C18.0647 14.3096 17.7451 14.4113 17.4019 14.7885C17.0585 15.1588 16.7053 15.6279 16.5283 15.7965C16.6202 15.6368 16.7458 15.3174 16.7799 15.1068C16.8139 14.8963 16.7729 14.6445 16.8307 14.3661C16.8885 14.0876 16.8885 13.8869 17.1667 13.4009C17.4449 12.9148 17.9212 11.226 17.9212 11.226L18.9473 10.8999L19.2566 11.634L19.2562 11.6351Z" fill="#B6933F"/>
        <path fill-rule="evenodd" clip-rule="evenodd" d="M18.5147 11.0131C18.5147 11.0131 18.2055 11.4582 18.1206 11.8524C18.0357 12.2467 18.1137 12.2126 18.0628 12.4064C18.0324 12.5245 18.0324 12.6484 18.0628 12.7666C18.1699 12.5941 18.3165 12.4496 18.4905 12.345C18.7828 12.1685 19.0207 12.0426 19.1625 11.8932C19.3052 11.7335 19.4241 11.4719 19.7332 11.2714C19.6076 11.2544 19.4308 11.1966 19.3972 11.2042C19.5231 11.0615 19.9001 10.844 20.2807 10.5824C20.6579 10.3136 20.6341 10.2051 21.2459 9.93679C21.0454 9.97084 20.9502 9.91976 20.7836 9.93679C20.8508 9.7941 21.086 9.726 21.3212 9.4917C21.5564 9.2574 21.1717 8.91064 21.1717 8.91064L19.3797 9.99458L18.5133 11.014L18.5147 11.0131Z" fill="#C49937"/>
        <path fill-rule="evenodd" clip-rule="evenodd" d="M13.6523 10.2043L13.6931 9.87817L14.2063 9.05587L14.7432 7.61174V5.6374L14.7025 4.49567L14.7874 3.74796L14.8519 3.5103L14.92 3.41846L15.3581 3.64604L15.9631 4.46834L16.0209 6.05538L15.4329 8.55971L13.7543 10.3914L13.6523 10.2043Z" fill="#DFC068"/>
        <path fill-rule="evenodd" clip-rule="evenodd" d="M14.9875 3.32678C14.9875 3.32678 14.7187 3.33373 14.6614 4.45171C14.604 5.56969 14.5763 6.15747 14.5355 6.71142C14.4947 7.26537 14.3997 7.6016 14.352 7.92797C14.3043 8.25433 14.2772 8.6992 14.1244 8.97113C14.0572 9.0968 13.9137 9.49104 13.5772 9.78672C13.2 10.1129 12.6364 10.3407 12.5511 10.3577C12.4014 10.3915 11.6436 10.4663 11.3345 10.6363C11.2259 10.6941 11.0388 10.762 10.8316 10.9558C10.4204 11.326 9.87337 11.9886 9.47913 12.7872C8.87433 13.98 8.26953 17.3474 8.26953 17.3474L8.4055 17.1198C8.4055 17.1198 8.42252 16.8174 8.72492 16.2872C9.0206 15.7572 8.93571 15.1625 9.34675 14.1464C9.50646 13.7591 9.70694 13.2563 9.95155 12.828C10.3391 12.1313 10.8079 11.5332 11.2803 11.2071C12.0515 10.6771 12.9012 10.5615 12.9012 10.5615L13.8153 9.95673C13.8153 9.95673 13.975 9.64761 14.1858 9.29414C14.4813 8.79821 14.8578 8.24425 14.94 7.43897C15.0659 6.24617 14.7633 5.46464 14.7803 4.75792C14.7973 4.0512 14.8041 3.53129 14.947 3.40541C15.0899 3.27952 14.9877 3.32723 14.9877 3.32723L14.9875 3.32678Z" fill="#A88F33"/>
        <path fill-rule="evenodd" clip-rule="evenodd" d="M14.9882 8.66155C14.9882 8.66155 15.3914 7.66923 15.576 6.78913C15.6101 6.61239 15.6779 6.43588 15.695 6.29319C15.7799 5.46059 15.8036 5.11742 15.695 4.66203C15.6101 4.32603 15.2839 4.02318 15.1139 3.78843C14.9475 3.54359 14.8693 3.45243 14.9033 3.40091C14.9374 3.34939 15.0698 3.26516 15.1988 3.27524C15.3359 3.27923 15.4709 3.31108 15.5953 3.36884C15.7198 3.4266 15.8312 3.50908 15.9228 3.61124C16.1844 3.91364 16.3916 4.94001 16.3916 4.94001L16.6095 6.29431L17.1635 8.00007L14.9887 8.66289L14.9882 8.66155Z" fill="#C99E3D"/>
        <path fill-rule="evenodd" clip-rule="evenodd" d="M18.7768 7.62894C18.7768 7.62894 18.702 7.66276 18.5662 7.62894C18.572 7.68441 18.5624 7.7404 18.5384 7.79076C18.5144 7.84111 18.477 7.88386 18.4303 7.91431C18.2876 7.85652 16.9519 7.9721 16.9519 7.9721C16.9519 7.9721 16.3301 7.86324 16.1363 7.04094C16.0006 6.4937 16.2382 5.7395 16.16 5.24334C16.0411 4.51265 15.8747 4.36974 15.8576 4.14238C15.8406 3.91502 15.8236 3.857 15.8236 3.71431C15.7488 3.69729 15.7046 3.67354 15.6301 3.67354C15.613 3.60634 15.6469 3.54765 15.5723 3.42871C15.613 3.44573 15.8917 3.47978 16.2178 3.7889C16.4866 4.04046 16.4866 4.13207 16.5272 4.18314C16.578 4.23399 16.9893 4.58634 17.166 4.93758C17.3428 5.28881 17.6859 6.40881 17.7641 6.59226C17.7878 6.66708 17.8389 6.7419 17.9657 6.91169C18.1628 7.15652 18.4516 7.56129 18.7777 7.62849L18.7768 7.62894Z" fill="#B58634"/>
        <path fill-rule="evenodd" clip-rule="evenodd" d="M16.5752 4.2002C16.781 4.53273 16.966 4.87776 17.1289 5.23328C17.3294 5.68509 17.4483 6.05559 17.6999 6.35799C17.5639 5.96397 17.3227 5.18916 17.18 4.91386C17.0203 4.62266 16.6941 4.30906 16.5752 4.20042V4.2002Z" fill="#A88F33"/>
        <path fill-rule="evenodd" clip-rule="evenodd" d="M14.2638 9.78636C14.2638 9.78636 13.9206 9.87125 13.2818 10.2077C13.071 10.3163 12.8707 10.408 12.677 10.4931C12.1736 10.7207 11.6338 10.931 11.2055 11.047C11.2395 11.0878 11.2563 11.1046 11.2563 11.1046C11.2563 11.1046 11.2563 11.2713 11.3482 11.3662C11.2973 11.4173 10.6175 11.8794 10.8182 13.4255C10.9539 13.3746 11.1137 13.3065 11.1374 13.3065C11.1784 13.3135 11.1885 13.4255 11.2393 13.4255C11.2902 13.4255 11.4568 13.3583 11.6336 13.1298C11.6268 13.2216 11.5249 14.1458 12.0719 14.7677C12.1739 14.6487 12.4321 14.2545 12.4321 14.2545L12.4388 14.1288C12.4388 14.1288 12.4626 13.6905 12.6055 13.2895C12.7484 12.8885 13.0268 12.5929 13.0268 12.5929L14.4808 10.5166L14.2633 9.78613L14.2638 9.78636Z" fill="#E6C367"/>
        <path fill-rule="evenodd" clip-rule="evenodd" d="M12.9047 12.8351C12.8381 12.8821 12.7648 12.9187 12.6872 12.9437C12.6634 12.8588 12.6294 12.5665 12.8299 12.2811C13.0644 11.9377 13.5774 11.4926 13.72 11.1387C13.8119 10.9109 13.7711 10.3401 14.5867 9.60945C15.4023 8.87876 15.7215 8.62744 15.7215 8.62744L17.0399 7.96484L18.6608 8.60369L17.8555 11.7599L17.2303 13.2383L14.7439 12.7694L12.9045 12.8351H12.9047Z" fill="#DCBA5A"/>
        <path fill-rule="evenodd" clip-rule="evenodd" d="M13.8535 11.978L14.1629 11.5907V11.3154C14.1629 11.3154 14.506 11.2236 14.8763 10.8464C15.2466 10.4691 15.7598 9.7454 16.2118 9.78953C16.6638 9.8406 16.7079 10.7715 16.725 11.0334C16.742 11.2953 16.7998 11.8895 16.8914 12.2092C16.9933 12.5286 15.7904 13.7382 15.7904 13.7382L14.9735 14.36L13.8535 11.978Z" fill="#E9CE77"/>
        <path fill-rule="evenodd" clip-rule="evenodd" d="M14.8115 15.2028C14.8115 15.2028 15.0631 14.8086 14.8787 14.7237C14.9874 14.4791 15.1878 14.2208 15.1878 14.2208C15.1878 14.2208 15.3305 13.8676 15.7926 13.4326C16.2548 12.9976 16.5404 12.7086 16.6152 12.4165C16.6613 12.2261 16.6864 12.0313 16.69 11.8354C16.7399 11.8763 16.7934 11.9126 16.8497 11.9441C16.9245 11.9781 17.2778 12.2702 17.2269 12.8582C17.1761 13.4462 16.9581 13.6908 16.9581 13.6908C16.9581 13.6908 16.7476 13.9014 16.5981 14.0103C16.4382 14.1189 16.3806 14.2446 16.1121 14.2549C16.1397 14.2329 16.1707 14.2157 16.2039 14.2038C16.2039 14.2038 15.9253 14.17 15.7756 14.3057C15.626 14.4415 15.3079 14.8597 15.1482 14.9856C14.9885 15.0875 14.8122 15.2031 14.8122 15.2031L14.8115 15.2028Z" fill="#CDAE50"/>
        <path fill-rule="evenodd" clip-rule="evenodd" d="M26.11 8.59343C25.7085 8.44712 25.2866 8.36458 24.8596 8.34883C24.1459 8.32508 23.1028 8.36585 22.08 8.37257C20.979 8.37929 19.98 7.99535 18.5937 7.92748C18.3661 7.79151 17.7873 7.19679 15.9805 8.45747C16.0891 8.45075 17.2922 8.17881 17.71 8.7023C18.1313 9.2222 18.0124 10.1057 17.9548 10.3162C17.8459 10.7853 17.4925 11.4683 17.35 11.9474C17.2075 12.4265 17.2411 12.6783 17.1392 13.0143C17.0373 13.3503 16.8131 13.5172 16.9455 13.9045C17.1222 13.7958 17.2143 13.7958 17.5095 13.1332C17.8047 12.4707 17.744 11.9982 18.2335 11.4376C18.7126 10.8735 19.5103 10.1021 19.8136 9.90831C20.1169 9.71455 22.5251 8.46419 25.0466 9.65699C25.6548 9.59247 26.1102 8.59321 26.1102 8.59321L26.11 8.59343Z" fill="#D2A83E"/>
        <path fill-rule="evenodd" clip-rule="evenodd" d="M16.9957 8.13099C16.9932 8.10546 16.9875 8.08033 16.9789 8.05618C16.9553 8.00648 16.9243 7.96064 16.887 7.92021C16.887 7.92021 16.289 7.81157 15.9866 7.84539C15.4563 7.90319 14.9772 8.55906 14.753 8.89551C14.5288 9.23195 14.2501 9.75163 13.9477 10.0202C13.951 9.99404 13.945 9.96755 13.9307 9.94539C13.9307 9.94539 13.9477 9.96914 13.9139 10.0032C13.8801 10.0372 13.8798 10.054 13.8969 10.0704L13.9479 10.1212C13.9647 10.1212 14.4338 9.91045 15.0726 9.31483C15.7522 8.69301 16.2722 8.37403 16.5441 8.26472C16.6891 8.20309 16.8407 8.15823 16.9959 8.13099H16.9957Z" fill="#C29637"/>
        <path fill-rule="evenodd" clip-rule="evenodd" d="M28.5972 5.57617C28.5972 5.57617 28.4883 5.71192 28.3524 5.86155C28.05 6.18097 27.6557 6.54094 27.3193 6.91144C27.0001 7.26491 26.6399 7.5402 26.2353 8.00232C25.8308 8.46443 25.3617 8.97739 25.243 9.12702C25.1344 9.27665 25.0495 9.52126 25.0495 9.64692C24.9917 9.60616 24.9238 9.56203 24.9238 9.56203C24.9524 9.61538 24.9866 9.66554 25.0257 9.71166C25.1106 9.8306 25.243 9.98046 25.3111 10.0719C25.3947 10.1882 25.4546 10.3198 25.4876 10.4591C25.5284 10.4659 25.79 10.5169 26.1164 9.98001C26.4428 9.44308 26.8706 8.85531 26.8706 8.85531L27.5502 7.84596L27.9785 6.98984L28.5161 6.03156L28.5979 5.57617H28.5972Z" fill="#AC8132"/>
        <path fill-rule="evenodd" clip-rule="evenodd" d="M29.2941 4.89014C29.2941 4.89014 28.8829 5.22614 28.7231 5.42774C28.5634 5.62934 28.1855 6.15843 28.1855 6.15843L28.3215 6.1414L29.0114 5.52988L29.2802 5.05074L29.2939 4.89103L29.2941 4.89014Z" fill="#A88F33"/>
        <path fill-rule="evenodd" clip-rule="evenodd" d="M29.1678 31.8944C29.1678 31.8944 29.1611 31.6157 29.3174 31.4493C29.4772 31.2826 29.8815 31.038 30.2757 30.1205C30.67 29.203 30.7139 28.9958 30.7139 28.9958C30.7139 28.9958 30.0071 29.6006 29.5715 29.7433C29.6734 29.5325 29.7312 29.3831 29.7822 29.2742C29.7244 29.2234 29.4798 29.1656 29.4561 29.1385C29.5918 29.0025 29.6667 28.6694 29.942 28.4486C30.2954 28.1798 30.941 27.7179 31.4428 27.3062C31.9445 26.8945 32.931 25.9369 33.0569 25.6582C33.1317 25.7668 33.1485 25.8347 33.1485 25.8347C33.1485 25.8347 32.6526 26.4805 32.3943 26.8915C32.1665 27.245 32.1835 27.4455 32.1835 27.4455L32.6526 27.2439C32.6526 27.2439 32.7883 27.7468 32.1734 28.5115C32.4422 28.4096 32.5507 28.4707 32.7034 28.3856C32.4519 28.5456 32.1053 28.7631 31.7792 29.3609C31.4598 29.959 31.0248 30.6556 30.2909 31.0904C29.5773 31.5492 29.166 31.8923 29.166 31.8923L29.1678 31.8944Z" fill="#A67A2E"/>
        <path fill-rule="evenodd" clip-rule="evenodd" d="M27.3261 8.94703C27.3261 8.94703 27.0474 9.52786 27.0066 9.9799C26.9999 10.0888 26.9726 10.1737 26.9726 10.2993C26.9659 10.7036 26.9963 11.1557 26.9054 11.3662C26.8714 11.2813 26.8543 11.2235 26.8203 11.1897C26.7694 11.3324 26.6776 11.7775 26.6028 11.9439C26.569 11.8353 26.4941 11.4581 26.5011 11.013C26.508 10.5679 26.5179 10.4828 26.5179 10.3912C26.5011 10.5269 26.4092 10.7106 26.3752 10.8192C26.3243 10.7276 26.2665 10.6087 26.1985 10.5101C26.1577 10.5773 26.1068 10.6765 26.0627 10.7276C26.0558 10.6868 26.039 10.578 26.0287 10.4252C26.0219 10.2485 26.0116 10.0209 26.0219 9.97318C26.0387 9.88156 26.1817 9.52137 26.4841 9.19164C26.8442 8.7974 27.2147 8.03983 27.3234 7.8053C27.432 7.57078 27.8941 6.5957 27.8941 6.5957H28.2476L27.7344 7.76454C27.7344 7.76454 27.4253 8.40338 27.2656 8.63814C27.1059 8.87289 26.7694 9.54556 26.6198 9.80719C26.7284 9.6645 26.8203 9.58969 26.9291 9.45372C27.0344 9.35852 27.3265 8.94748 27.3265 8.94748L27.3261 8.94703Z" fill="#8C6228"/>
        <path fill-rule="evenodd" clip-rule="evenodd" d="M29.301 4.8457C29.2433 5.02341 29.1521 5.18841 29.0322 5.33178C28.8215 5.58333 28.3694 5.91956 28.1488 6.18791C27.9472 6.44954 27.544 7.16321 27.7272 8.00925C27.7944 7.8258 27.921 7.46225 28.2574 7.05098C28.5939 6.63972 28.9541 6.16753 29.131 5.80062C29.3075 5.43012 29.3313 5.13802 29.3313 5.13802L29.3985 5.05313L29.3577 4.85937L29.2999 4.8457H29.301Z" fill="#CBA94C"/>
        <path fill-rule="evenodd" clip-rule="evenodd" d="M36.182 27.3849C36.182 27.3849 36.046 27.0147 36.0053 26.6782C35.9645 26.3418 36.0725 26.275 35.9475 25.89C35.8726 25.6554 35.7369 25.6884 35.7029 25.6554C35.6688 25.6225 35.6451 25.2681 35.6518 25.0744C35.6585 24.8806 35.6451 24.6293 35.611 24.5204C35.5602 24.4797 35.5261 24.4456 35.4513 24.1943C35.3664 23.9427 35.3256 23.8171 35.2849 23.7425C35.2441 23.6679 35.1249 23.5998 35.1249 23.525C35.1249 23.3753 35.2609 23.2974 35.2609 23.2562C35.2542 23.1713 35.1523 23.2394 35.1249 23.2154C35.0911 23.1746 35.2101 22.93 35.1659 22.896C35.1489 22.8792 35.03 23.0219 34.9993 22.9811C34.9652 22.9401 34.9245 22.5358 34.8633 22.2674C34.8057 22.0058 34.7444 21.8156 34.7376 21.7374C34.7309 21.6626 34.2686 20.3442 34.1566 20.0247C34.0663 19.7548 33.9904 19.4803 33.929 19.2024C33.8949 19.0427 33.8712 18.7164 33.8542 18.7504C33.8372 18.7845 33.8475 18.9509 33.8201 18.9442C33.7964 18.9372 33.7115 18.3564 33.6844 18.2645C33.6606 18.1727 33.5177 17.8613 33.4828 17.636C33.4487 17.4082 33.3741 16.8135 33.3231 16.4092C33.272 16.0048 33.2483 15.8384 33.2483 15.7372C33.2566 15.4895 33.243 15.2416 33.2075 14.9964C33.1403 14.5681 33.0059 14.0482 32.8881 13.746C32.6605 13.175 32.0555 11.7139 31.9473 11.3503C31.9473 11.2585 32.0662 11.3096 32.0662 11.3096C32.0662 11.3096 32.3617 12.0503 32.5792 12.6211C32.79 13.1921 32.9904 13.6949 33.0415 13.746C33.0823 13.7969 33.4017 14.3575 33.5444 15.275C33.6871 16.1925 33.7379 17.0386 33.823 17.6026C33.8638 17.8714 33.8979 18.1566 33.9828 18.442C34.0744 18.7513 34.2171 19.0707 34.4041 19.5599C34.5638 19.9712 34.6828 20.3144 34.7473 20.6101C34.8221 20.9873 34.8221 21.2726 34.8662 21.4597C34.9072 21.6194 34.9681 21.9386 35.111 22.4005C35.254 22.8624 35.4643 23.4573 35.607 23.8276C35.8859 24.5684 36.0102 25.1868 36.0523 25.5166C36.0895 25.8564 36.2154 27.0321 36.1813 27.3854L36.182 27.3849Z" fill="#A88F33"/>
        <path fill-rule="evenodd" clip-rule="evenodd" d="M29.318 4.8046L29.3009 4.84536C29.3009 4.84536 29.3518 4.86239 29.3417 4.93048C29.3424 5.02365 29.3367 5.11675 29.3247 5.20914C29.3079 5.32808 29.2738 5.4197 29.2671 5.49452C29.2671 5.65423 29.2909 5.83768 29.0655 6.29308C28.9983 6.41874 28.9569 6.52738 28.9228 6.6022C28.8379 6.78565 28.8209 6.81298 28.7461 6.89788C28.865 6.83068 29.2933 6.56188 29.5106 6.6022C29.3612 6.68709 29.1334 6.85375 28.9907 7.07125C29.0247 7.07797 29.1674 7.1053 29.3939 7.07125C29.7711 7.01346 30.1925 6.87749 30.5627 6.9046C30.9673 6.92834 30.8076 6.41874 30.8076 6.41874L30.3407 5.3926L29.4573 4.771L29.318 4.80482V4.8046Z" fill="#BE9C44"/>
        <path fill-rule="evenodd" clip-rule="evenodd" d="M31.6218 12.4914C31.6218 12.4914 31.2275 12.0972 31.0678 10.7442C30.9081 9.38498 30.9422 7.38422 30.9422 7.38422L30.6227 6.60268C30.6227 6.60268 30.5555 6.08278 30.3882 5.88924C30.2209 5.6957 29.8923 5.36934 29.7426 5.20962C29.593 5.04991 29.4232 4.83241 29.3213 4.79836C29.3721 4.71346 29.5999 4.23433 30.4731 4.22761C31.3463 4.22089 31.6155 4.70674 31.7067 4.88348C31.7978 5.06022 32.2095 5.82428 32.3623 7.28028C32.505 8.73449 32.5119 8.84335 32.4882 9.34623C32.4712 9.62489 32.3793 10.2705 32.2194 10.9602C32.0734 11.5448 31.9136 12.1973 31.6213 12.4928L31.6218 12.4914Z" fill="#A17C34"/>
        <path fill-rule="evenodd" clip-rule="evenodd" d="M30.3852 13.65C30.5166 13.6595 30.6479 13.6299 30.7624 13.5649C30.8881 13.5582 31.3435 13.616 31.6934 13.1709C31.7171 13.2726 31.7785 13.5481 31.6186 13.7927C31.7037 13.7076 31.8294 13.6738 31.8464 13.65C31.8531 13.7757 31.972 14.163 31.4692 15.1042C31.6049 14.9548 31.7646 14.9616 31.9073 14.9445C31.9143 15.1213 32.0092 15.7158 31.7579 16.0354C31.5915 16.2529 31.3195 16.1848 31.3195 16.1848C31.3235 16.1373 31.3235 16.0896 31.3195 16.0421C31.3128 15.9503 31.2788 15.8587 31.3027 15.7975C31.1713 15.7375 31.0517 15.6546 30.9493 15.5527C30.6536 15.274 30.2696 14.7985 30.2425 14.445C30.2085 14.0508 30.562 13.9659 30.562 13.9659C30.5324 13.9394 30.5071 13.9084 30.4872 13.874C30.4701 13.8165 30.4531 13.7246 30.3852 13.65Z" fill="#8C6228"/>
        <path fill-rule="evenodd" clip-rule="evenodd" d="M27.7649 9.37507C27.7649 9.37507 27.7479 9.35133 27.6562 9.45997C27.6733 9.35133 27.6903 9.24918 27.697 9.15062C27.7404 9.05938 27.7965 8.97475 27.8637 8.8993C27.8126 9.00099 27.7786 9.09283 27.7786 9.09283C27.7786 9.09283 27.9044 8.8583 28.0879 8.71562C28.2136 8.6137 28.3733 8.56621 28.4411 8.47101C28.516 8.36909 28.4989 8.35206 28.516 8.33504C28.516 8.33504 28.6826 8.2264 28.9375 7.90675C28.9714 7.86598 29.0224 7.82186 29.0565 7.78109C29.114 7.75734 29.25 7.69619 29.4097 7.61443C29.5764 7.52282 29.7632 7.39715 29.8788 7.34563C30.1064 7.24371 30.3478 7.25402 30.4598 7.09408C30.5447 7.07034 30.6363 6.81542 30.6195 6.59814C30.7452 6.64899 31.3908 7.04995 31.6119 7.92669C31.7716 8.54851 31.486 9.50678 31.367 9.96912C31.2481 10.4315 31.2313 10.7744 31.0646 10.985C30.8539 11.2638 30.1745 11.657 30.0078 11.8516C29.8651 12.0113 29.4371 12.4156 29.4539 12.7077C29.4709 12.9252 29.7392 13.0437 29.7972 13.085C29.8553 13.1262 29.8548 13.1768 29.9637 13.1522C30.0725 13.1275 30.1131 13.0773 30.1574 13.0773C30.2083 13.0841 30.2083 13.0944 30.232 13.0944C30.2492 13.0939 30.2664 13.0915 30.2831 13.0874C30.2831 13.0874 30.2661 13.3968 29.5423 13.4906C29.4913 13.4976 29.4404 13.5144 29.3757 13.5247C29.4608 13.4839 29.5116 13.4839 29.6035 13.3582C29.5016 13.3412 29.2092 13.3242 29.1344 13.3004C29.1582 13.2597 29.2363 13.1508 29.3009 13.1C29.3586 13.0491 29.2941 13.0328 29.2433 13.0592C29.1557 13.1188 29.0718 13.1834 28.9917 13.2527C28.9068 13.3276 28.832 13.4295 28.6961 13.5215C28.6553 13.3856 28.662 13.1273 28.8219 12.9405C28.781 12.9472 28.7028 13.0661 28.6282 13.0424C28.6147 12.9185 28.6227 12.7931 28.6519 12.6719C28.6927 12.5189 28.9136 12.2506 28.9136 12.2506L29.9805 10.3441L30.2081 8.89997L27.7649 9.37462V9.37507Z" fill="#92723A"/>
        <path fill-rule="evenodd" clip-rule="evenodd" d="M27.7068 9.457C27.7068 9.457 27.649 9.49777 27.7646 9.57595C27.7476 9.59969 27.7068 9.68459 27.6557 9.74238C27.5982 9.80958 27.5368 9.85124 27.5131 9.90904C27.4622 10.028 27.4214 10.1095 27.4214 10.1606C27.4214 10.2117 27.4044 10.5378 27.2617 10.7484C27.2107 10.8232 27.1529 10.9488 27.1121 11.0337C27.0272 11.1831 26.9524 11.3025 26.9354 11.3697C26.9015 11.4887 26.8778 11.8148 26.8778 11.8148C26.8778 11.8148 26.9526 11.723 26.9797 11.6892C26.9387 11.7741 26.8946 11.8657 26.8301 11.9338C26.8708 11.8997 26.9898 11.8148 27.1903 11.6381C27.4689 11.4038 27.9039 11.0095 28.4341 10.6973C28.2742 10.7551 28.1385 10.7551 28.0298 10.7721C28.1147 10.6872 28.8792 9.79009 29.2802 9.7052C29.3045 9.67433 29.3167 9.63557 29.3142 9.59633L28.9708 9.56251L28.2742 9.71192L28.1725 9.17432L27.7068 9.45633V9.457Z" fill="#B18E3E"/>
        <path fill-rule="evenodd" clip-rule="evenodd" d="M28.8143 12.5153C28.8143 12.5153 28.7225 12.6069 28.6376 12.8347C28.5722 12.7665 28.5162 12.6899 28.4709 12.6069C28.3453 12.3964 28.1517 12.1278 27.6997 12.2808C27.693 12.1381 27.6827 12.0633 27.6997 11.9614C27.7745 11.9446 28.0021 11.7611 28.2297 11.4925C28.3896 11.3091 28.539 11.0983 28.6409 10.8299C28.7081 10.7789 28.8244 10.694 28.9769 10.5954C29.1944 10.446 29.4561 10.2419 29.4968 10.0144C29.3949 10.0551 29.1774 10.1571 28.8511 10.1403C28.9769 10.0825 29.1705 10.0213 29.1467 9.76976C29.1978 9.73571 29.2386 9.71197 29.2386 9.71197C29.2003 9.69919 29.16 9.69342 29.1196 9.69494C29.1127 9.6712 29.1026 9.63737 29.0448 9.65417C28.987 9.67097 28.9776 9.6712 28.97 9.69494C28.9463 9.70189 28.8681 9.69494 28.8103 9.73593C28.7525 9.77693 28.5928 9.91245 28.5316 9.93619C28.5554 9.89542 28.5892 9.83449 28.5892 9.83449C28.5892 9.83449 28.4228 9.85129 28.3038 9.90169C28.0863 9.97651 27.835 10.1125 27.5801 10.2449C27.6038 10.2041 27.6141 10.1777 27.6309 10.17C27.6477 10.1624 27.6887 10.1532 27.6887 10.1463C27.6887 10.1394 27.6719 10.0791 27.682 10.0547C27.7582 9.89324 27.8481 9.73863 27.9508 9.59257C28.0697 9.43264 28.0935 9.20505 28.0935 9.20505L28.6134 8.94342L30.0745 8.60742L31.0227 8.66521L30.9038 9.32109L30.3438 10.4662L29.8647 11.5093L29.3174 12.1484L28.8145 12.5153H28.8143Z" fill="#543E26"/>
        <path fill-rule="evenodd" clip-rule="evenodd" d="M31.1832 9.67659C31.1832 9.67659 30.6123 10.3833 30.4526 10.4922C30.5545 10.2747 31.1832 8.97995 31.4108 8.61975C31.36 8.57899 31.2919 8.57899 31.4516 7.94775C31.3159 8.26695 31.2681 8.43361 31.1561 8.51851C31.0441 8.6034 31.0303 8.5763 30.9545 8.5763C30.9688 8.55044 30.9747 8.52076 30.9713 8.4914C30.9713 8.4914 30.4922 8.43361 30.1649 8.43361C29.8377 8.43361 29.1899 8.61035 28.8295 8.75303C28.5441 8.87198 28.3844 8.87198 28.2824 8.94657C28.1805 9.03147 28.1227 9.12331 28.0717 9.14705C28.0309 9.17079 27.8374 9.23195 27.793 9.29646C27.7522 9.36366 27.6844 9.43915 27.6844 9.45617C27.6844 9.47319 27.6673 9.49716 27.7184 9.47991C27.7352 9.47319 27.8611 9.4051 28.0038 9.3202C28.1973 9.21156 28.4319 9.0859 28.6019 9.01108C29.0877 8.81732 29.2407 8.85137 29.458 8.8106C29.6856 8.76983 30.0119 8.67463 30.2292 8.67463C30.4467 8.66791 30.858 8.67463 30.9532 8.69166C30.9124 8.72571 30.8784 8.76647 30.8954 8.90916C30.8954 8.94993 30.8614 8.99406 30.8282 9.09262C30.7265 9.37127 30.5327 9.83339 30.425 10.0679C30.2756 10.3871 30.1058 10.6557 30.0218 10.8221C29.9378 10.9886 29.753 11.4269 29.57 11.6615C29.387 11.896 29.2913 12.0387 29.234 12.0897C29.1767 12.1408 28.7649 12.443 28.7956 12.5519C28.8704 12.5281 29.3429 12.3503 29.6858 11.9641C30.0287 11.5779 30.0971 11.3423 30.3654 11.1315C30.6338 10.9207 30.8446 10.5674 30.9702 10.2753C31.0755 10.0034 31.0518 9.91851 31.1841 9.67726L31.1832 9.67659Z" fill="#806031"/>
        <path fill-rule="evenodd" clip-rule="evenodd" d="M18.879 14.9515C18.879 14.9515 18.8041 15.2606 18.6341 15.4136C18.4677 15.5633 18.172 15.6923 18.1382 15.9438C18.0974 16.1952 18.4339 16.321 18.4339 16.321C18.4339 16.321 18.2502 16.6234 18.2502 16.851C18.2502 17.0856 18.2435 17.1297 18.2672 17.3539C18.2403 17.3712 18.2174 17.3942 18.2 17.4211C18.2 17.4211 18.2168 17.6386 18.3835 17.7744C18.5501 17.9101 18.6926 17.9919 18.7775 17.9578C18.7905 17.9855 18.8018 18.0139 18.8115 18.0429C18.8115 18.0429 18.9374 17.7235 19.0223 17.4449C19.1072 17.1595 19.182 17.2 19.2159 16.8161C19.2497 16.4322 19.6191 15.7729 19.6191 15.7729L19.8711 15.2096L19.46 14.8901L18.879 14.9513V14.9515Z" fill="#B6903C"/>
        <path fill-rule="evenodd" clip-rule="evenodd" d="M19.6433 15.5054C19.5585 15.5924 19.4803 15.6855 19.4092 15.784C19.3006 15.9337 19.2157 16.0694 19.0559 16.1274C18.8962 16.1854 18.7943 16.185 18.8044 16.3449C18.8145 16.5049 18.9641 16.5725 19.049 16.654C19.1408 16.7389 19.2157 16.8816 19.1749 17.0416C19.2257 17.0178 19.3176 16.9905 19.4025 16.807C19.4874 16.6236 20.0812 15.5056 20.0812 15.5056H19.6433V15.5054Z" fill="#685026"/>
        <path fill-rule="evenodd" clip-rule="evenodd" d="M21.9854 12.9261C21.9854 12.9261 22.0363 12.7904 21.9854 12.6918C21.9344 12.5899 21.6252 12.5559 21.4722 12.4403C21.3125 12.3213 21.1188 12.2387 20.9591 12.2909C20.9828 12.2331 21.078 12.1072 20.9998 12.0801C20.925 12.0564 20.6466 12.182 20.5718 12.2398C20.497 12.2976 20.3269 12.3655 20.2931 12.4065C20.2593 12.4475 20.2013 12.5254 20.1672 12.4914C20.1332 12.4676 20.1164 12.4065 20.0586 12.4403C20.0008 12.4741 19.7226 12.7019 19.6713 12.8345C19.62 12.9671 19.5046 13.2628 19.1581 13.599C18.8116 13.9353 18.6619 14.153 18.7639 14.2787C18.8658 14.4043 18.9135 14.3127 18.9305 14.4213C18.9436 14.528 18.9379 14.6361 18.9135 14.7408C18.8727 14.9175 18.8049 15.0839 18.8965 15.118C19.131 15.1928 19.3588 15.0508 19.4097 15.0942C19.5116 15.1859 19.3519 15.5156 19.5931 15.5801C19.8379 15.6473 20.0792 15.5223 20.0792 15.5223L20.9694 15.0432L21.8257 14.5914L22.2639 13.7247L22.0289 13.001L21.9841 12.9261H21.9854Z" fill="#D4B968"/>
        <path fill-rule="evenodd" clip-rule="evenodd" d="M21.1453 14.9956C21.1453 14.9956 20.9957 14.768 21.1794 14.5673C21.3631 14.3666 21.6245 14.282 21.7264 14.1563C21.707 14.1324 21.681 14.1147 21.6516 14.1054C21.7192 13.9844 21.8225 13.887 21.9473 13.8266C21.8964 13.7757 21.8283 13.7349 21.7537 13.7349C21.5871 13.7349 21.4849 13.8369 21.3322 13.8369C21.1828 13.8369 21.1657 13.7621 21.1657 13.7621C21.1657 13.7621 21.4173 13.7383 21.3933 13.6261C21.3696 13.5071 21.3261 13.5071 21.3261 13.5071C21.3261 13.5071 21.812 13.3055 21.8969 13.198C21.9818 13.0905 21.9717 12.9635 21.9887 12.9126C22.0463 12.9126 22.3827 12.7359 22.5187 12.8107C22.6547 12.8855 22.5595 13.0894 22.5595 13.0894C22.5595 13.0894 22.9709 12.78 23.1806 12.4767C23.3641 12.4938 23.4494 12.3511 23.5838 12.3511C23.7505 12.3511 24.0121 12.5787 24.0629 13.0645C24.097 13.3432 24.1478 13.5029 24.097 13.9957C24.0733 14.2743 24.08 14.8693 24.1642 15.1645C24.2218 15.399 24.3577 15.3753 24.3577 15.3753C24.3369 15.4468 24.2955 15.5105 24.2388 15.5588C24.1469 15.6437 24.1369 15.8681 24.1469 15.953C24.1605 16.0151 24.1775 16.0763 24.198 16.1365C24.198 16.1365 24.0894 16.2621 24.0621 16.3472C24.0383 16.4321 23.9263 16.4899 23.8445 16.4899C23.7628 16.4899 23.8038 16.483 23.6951 16.4899C23.5865 16.4969 23.5525 16.5137 23.4844 16.4899C23.4163 16.4662 23.3654 16.4388 23.3927 16.2211C23.4165 16.0036 22.5534 15.4974 22.5534 15.4974L21.1422 14.9945L21.1453 14.9956Z" fill="#CCA849"/>
        <path fill-rule="evenodd" clip-rule="evenodd" d="M19.5246 17.1429C19.5246 17.1429 19.8337 17.5542 21.1047 17.5542C21.7095 17.5542 21.9202 17.4964 22.0455 17.4624C22.1814 17.4283 22.691 17.2281 23.2042 16.623C23.6663 16.076 23.5644 15.8518 23.5644 15.8518L23.2956 15.811L22.422 15.93L19.837 17.0309L19.5234 17.1429H19.5246Z" fill="#585136"/>
        <path fill-rule="evenodd" clip-rule="evenodd" d="M20.4721 17.2449C20.4721 17.2449 19.3711 17.4898 19.3711 16.7931C19.3711 16.1135 20.0507 15.3998 20.2207 15.2742C20.3975 15.1483 20.8188 15.0054 20.8188 15.0054H21.8349L22.0284 15.5186L21.9435 16.6262L20.4721 17.2447V17.2449Z" fill="#252211"/>
        <path fill-rule="evenodd" clip-rule="evenodd" d="M21.4884 15.2132C21.4884 15.2132 21.2778 15.0195 20.7987 15.2804C20.3195 15.5414 19.932 16.0868 19.9083 16.5821C19.8845 17.0202 20.2685 17.3466 20.8665 17.3636C21.3116 17.3804 21.5802 17.3296 21.7162 17.2964C21.6821 17.2557 21.5054 17.0348 21.5054 17.0348L21.4886 15.2135L21.4884 15.2132Z" fill="#C3B378"/>
        <path fill-rule="evenodd" clip-rule="evenodd" d="M21.2815 15.3217C21.2815 15.3217 21.2306 15.2809 21.0799 15.3625C20.9542 15.4297 20.7708 15.6073 20.6281 15.733C20.5362 15.8078 20.4785 15.8416 20.4265 15.8994C20.2157 16.151 20.039 16.5622 20.1411 16.7661C20.2433 16.9699 20.5795 17.2044 21.4358 17.0447L21.279 15.3219L21.2815 15.3217Z" fill="#E6D89C"/>
        <path fill-rule="evenodd" clip-rule="evenodd" d="M21.0028 15.7431C21.0028 15.7431 20.8668 15.9539 20.8668 16.2903C20.8668 16.6335 21.0606 17.1805 21.7742 17.2213C22.3212 17.2553 22.6882 16.433 23.0858 16.1136C23.3882 15.869 23.5716 15.862 23.5716 15.862C23.5716 15.862 23.2625 15.526 22.4368 15.0908C21.6212 14.6524 20.7071 14.5946 20.2109 15.2675C20.4455 15.2505 21.2033 15.0567 21.2033 15.0567L21.5738 15.1757L21.0028 15.7433V15.7431Z" fill="#252211"/>
        <path fill-rule="evenodd" clip-rule="evenodd" d="M22.0692 16.1881C22.0455 16.1373 22.0284 16.0692 22.127 16.0524C22.2256 16.0356 22.2697 16.0454 22.3037 16.1196C22.3378 16.1937 22.3709 16.2555 22.3205 16.2862C22.2697 16.3133 22.1371 16.2862 22.069 16.1877L22.0692 16.1881ZM21.9095 15.709C21.9095 15.709 21.8754 15.7327 21.8925 15.6852C21.8992 15.6277 21.9435 15.5255 22.0522 15.5495C22.1608 15.5734 22.1373 15.6922 22.1194 15.7262C22.1015 15.7603 22.0107 15.8178 21.9426 15.7934C21.934 15.7912 21.926 15.787 21.9193 15.7811C21.9126 15.7752 21.9074 15.7679 21.9041 15.7596C21.9008 15.7513 21.8994 15.7424 21.9002 15.7335C21.901 15.7246 21.9039 15.7161 21.9086 15.7085L21.9095 15.709Z" fill="#6F674D"/>
        <path fill-rule="evenodd" clip-rule="evenodd" d="M12.7119 15.9262C12.7119 15.9262 12.9807 16.1278 13.293 16.12C13.6021 16.113 13.9997 15.7938 14.1831 15.5898C14.2918 15.4708 14.3847 15.3452 14.4855 15.2466C14.5707 15.1617 14.6282 15.1209 14.669 15.0631C14.7268 14.9959 14.7879 14.8696 14.8186 14.8286C14.7438 14.8864 14.6352 14.9885 14.523 15.0564C14.4143 15.1236 14.1798 15.25 14.0846 15.284C13.993 15.3181 13.0414 15.8216 13.0414 15.8216L12.7119 15.9262Z" fill="#AC924C"/>
        <path fill-rule="evenodd" clip-rule="evenodd" d="M13.1221 13.4155C13.1221 13.4155 13.2715 13.3136 13.5604 13.2488C13.8391 13.1816 14.3998 13.1299 14.3998 13.1299L14.8619 13.3315L15.0453 14.0281L14.7093 14.7521L14.2813 15.0209L13.7952 14.2394L13.1232 13.4168L13.1221 13.4155Z" fill="#9F8E57"/>
        <path fill-rule="evenodd" clip-rule="evenodd" d="M12.5174 14.0376L12.3574 14.157C12.3574 14.157 12.3984 14.0821 12.4322 13.8546C12.4661 13.627 12.643 13.073 12.9013 12.7536C13.1596 12.4342 13.1528 12.4512 13.1528 12.4512C13.1291 12.4469 13.1047 12.4476 13.0812 12.4535C13.0578 12.4593 13.0358 12.47 13.0169 12.485C13.0509 12.4098 13.2684 12.141 13.4859 12.0066C13.7034 11.8722 13.7883 11.8298 14.0159 11.9394C14.2435 12.0489 14.3013 12.1058 14.4679 12.0991C14.6346 12.0924 14.7771 11.9156 14.7771 11.9156C14.7771 11.9156 14.8111 12.0243 14.6855 12.2758C14.5598 12.5274 14.0636 13.0403 14.0636 13.0403L13.0305 13.747L12.5174 14.0382V14.0376Z" fill="#EAC970"/>
        <path fill-rule="evenodd" clip-rule="evenodd" d="M13.2821 13.3309C13.2821 13.3309 14.0299 13.4328 14.2574 13.2223C14.2642 13.246 14.2915 13.246 14.2915 13.263C14.2897 13.2759 14.2837 13.2877 14.2745 13.2969C14.2992 13.2929 14.3242 13.2907 14.3493 13.2901C14.3792 13.299 14.41 13.3048 14.4411 13.3072C14.4662 13.3066 14.4912 13.3043 14.5159 13.3002C14.5136 13.3171 14.5078 13.3334 14.4991 13.348C14.4903 13.3626 14.4787 13.3753 14.4649 13.3853C14.4989 13.3853 14.5321 13.3921 14.5321 13.4192C14.5321 13.4463 14.5388 13.528 14.498 13.5451C14.4642 13.5544 14.4283 13.5519 14.3961 13.5381C14.3988 13.6024 14.4163 13.6653 14.4472 13.7218C14.5144 13.8475 14.6577 13.9906 14.8504 13.9494C14.8504 13.9494 14.9521 14.194 14.524 14.7376C14.4664 14.8124 14.4051 14.9144 14.3305 14.9993C14.301 15.0635 14.2785 15.1307 14.2633 15.1997C14.2633 15.1997 14.9872 14.9211 15.1944 14.2856C15.4052 13.6467 15.446 13.0182 15.4052 12.4304C15.3983 12.2638 15.3712 12.1451 15.3304 12.0599C15.2285 11.8491 14.9429 11.8832 14.8275 12.0021C14.6609 12.1688 14.3822 12.5832 13.9949 12.8686C13.6007 13.1539 13.5839 13.2046 13.2812 13.3309H13.2821Z" fill="#D7BC6B"/>
        <path fill-rule="evenodd" clip-rule="evenodd" d="M12.3851 14.248C12.3851 14.248 12.2424 14.3329 12.1676 14.6512C12.0928 14.9773 12.2348 15.3749 12.317 15.5006C12.3992 15.6262 12.5858 15.9696 12.9729 15.9867C13.0687 15.9861 13.1634 15.9665 13.2515 15.9289C13.3866 15.8669 13.5134 15.7881 13.6287 15.6943C13.7954 15.5687 13.9311 15.46 13.9141 15.4497C13.8733 15.4327 12.888 14.6171 12.888 14.6171L12.5175 14.2036L12.3849 14.2484L12.3851 14.248Z" fill="#585136"/>
        <path fill-rule="evenodd" clip-rule="evenodd" d="M13.3167 15.6006C13.3167 15.6006 13.5171 15.5838 13.6361 15.5089C13.755 15.4341 12.9395 14.6255 12.9395 14.6255L12.9972 15.4991L13.3167 15.6006Z" fill="#453A25"/>
        <path fill-rule="evenodd" clip-rule="evenodd" d="M12.449 14.1866C12.449 14.1866 12.3471 14.3803 12.3471 14.4314C12.3301 14.5978 12.3812 15.1211 12.4219 15.2875C12.4627 15.4643 12.6836 15.7326 12.9692 15.7326C13.1457 15.7326 13.3905 15.624 13.3905 15.5969C13.3905 15.5628 13.139 15.5297 13.0711 15.4031C13.0303 15.3359 13.0133 15.1688 13.0039 14.9999C12.9972 14.8913 12.9972 14.7723 13.0379 14.7311C13.1298 14.6292 13.1466 14.3369 13.1466 14.3369L13.4727 13.731H13.0438L12.5306 14.0504L12.449 14.1866Z" fill="#84754B"/>
        <path fill-rule="evenodd" clip-rule="evenodd" d="M12.3242 14.374C12.3242 14.374 12.6602 13.929 12.9631 13.8268C13.2659 13.7247 13.4014 13.786 13.4014 13.786L13.2247 14.2381L12.9731 14.5167L12.9902 14.6594C12.9902 14.6594 12.9492 15.0366 13.2007 15.2983C13.4523 15.5599 13.6391 15.5498 13.748 15.5498C13.8568 15.5498 14.1693 15.458 14.329 15.0808C14.4717 14.7275 14.5907 14.2744 14.3053 13.8201C14.0264 13.3681 13.5338 13.3506 13.4386 13.3506C13.3434 13.3506 12.5959 13.388 12.3242 14.3734V14.374Z" fill="#252211"/>
        <path fill-rule="evenodd" clip-rule="evenodd" d="M20.9519 15.8857C20.8263 15.8279 20.9452 15.4747 21.0709 15.3658C21.1965 15.2569 21.3562 15.1315 21.6351 15.1143C21.7368 15.1075 21.8354 15.172 21.8186 15.2401C21.7948 15.3658 21.6181 15.5425 21.4584 15.6682C21.2375 15.8416 21.0946 15.9502 20.9519 15.8857Z" fill="#F7F7E7"/>
        <path fill-rule="evenodd" clip-rule="evenodd" d="M14.155 13.9594C14.2468 13.9527 14.3658 14.0266 14.3895 14.1261C14.4133 14.2347 14.3317 14.4522 14.155 14.4522C14.0123 14.4522 13.9375 14.2755 13.9375 14.2246C13.9391 14.1828 13.9508 14.142 13.9715 14.1057C13.9783 14.0954 13.9953 13.9764 14.155 13.9594Z" fill="#F8F6DE"/>
        <path fill-rule="evenodd" clip-rule="evenodd" d="M12.8298 14.0376C12.8298 14.0376 12.5952 14.1462 12.4866 14.3736C12.409 14.5415 12.3855 14.7294 12.4194 14.9112C12.4364 14.9961 12.5213 15.2067 12.5791 15.2815C12.6369 15.3563 12.7151 15.4074 12.7729 15.4004C12.8307 15.3935 12.9494 15.2407 12.9494 15.1491C12.9494 15.0575 12.9563 14.6699 13.0683 14.4592C13.1669 14.2486 12.8304 14.0378 12.8304 14.0378L12.8298 14.0376Z" fill="#D4C38B"/>
        <path fill-rule="evenodd" clip-rule="evenodd" d="M12.864 14.0202C12.8232 14.0439 12.7554 14.0779 12.7722 14.1221C12.7892 14.1628 12.9319 14.1893 12.9829 14.2887C13.0407 14.3906 13.0407 14.4993 13.0237 14.5504C13.0681 14.5293 13.1084 14.5004 13.1426 14.4652C13.2175 14.3803 13.3091 14.265 13.3873 14.265C13.4383 14.265 13.4892 14.2887 13.5369 14.2887C13.6117 14.2887 13.6863 14.265 13.6966 14.1868C13.7134 14.0849 13.5539 13.993 13.4621 14.0101C13.4791 13.9429 13.5028 13.8436 13.428 13.7755C13.3532 13.7074 13.1189 13.8266 13.0678 13.8607C13.0168 13.8947 12.864 14.0204 12.864 14.0204V14.0202Z" fill="#E2D59D"/>
        <path fill-rule="evenodd" clip-rule="evenodd" d="M18.2633 21.1597L18.7662 21.0112L18.9089 21.1132C18.9089 21.1132 19.0106 21.3307 19.1705 21.3578C19.1194 21.4664 18.9868 21.5594 18.9938 21.6364C19.0007 21.7135 19.0686 21.7724 19.0686 21.7724C19.0686 21.7724 18.6166 22.5199 19.507 23.2732C19.2962 23.3581 19.0278 23.4748 18.8851 23.542C18.9868 23.5657 19.2043 23.6092 19.2962 23.6916C19.388 23.774 19.388 23.8003 19.4729 23.8513C19.5578 23.9024 19.6087 23.9703 19.5919 24.0007C19.5341 23.9667 19.3403 23.865 19.3065 23.96C19.2727 24.0549 18.4672 24.0178 18.4672 24.0178L17.1079 24.2794C17.1079 24.2794 17.1588 24.1434 17.0161 24.0178C16.8497 23.8684 16.6458 24.0245 16.4283 23.858C16.1429 23.6405 16.1326 23.389 16.041 23.294C16.1326 23.2362 16.3197 23.1513 16.7648 23.0924C16.7477 23.0584 16.6899 22.9564 16.724 22.8648C16.7648 22.7459 16.9346 22.6711 16.8837 22.5288C16.9585 22.5118 16.9923 22.5118 17.1794 22.2773C17.3561 22.0428 17.4648 21.9919 17.6007 21.9749C17.7367 21.9579 17.8182 21.9749 18.0698 21.7404C18.2463 21.5739 18.1887 21.4312 18.1887 21.4312C18.1887 21.4312 18.3041 21.3938 18.2635 21.1593L18.2633 21.1597Z" fill="#CBAC5A"/>
        <path fill-rule="evenodd" clip-rule="evenodd" d="M16.7786 21.2354C16.7853 21.2014 16.8127 21.1843 16.9961 21.2014C17.1796 21.2184 18.3417 21.0927 18.6578 21.0757C18.9772 21.052 20.1019 21.0688 20.6491 21.1843C21.1963 21.2999 21.7501 21.4359 22.0184 21.5038C22.2872 21.5786 22.3719 21.6055 22.3616 21.6395C22.3549 21.6736 22.2944 21.7067 22.2597 21.6973C22.2259 21.6906 21.3355 21.4186 21.0604 21.3613C20.7853 21.304 19.8335 21.1505 19.3132 21.1597C18.8273 21.1666 18.6336 21.153 18.2225 21.2005C17.8113 21.2515 17.1316 21.3194 16.9278 21.2923C16.7262 21.2686 16.7679 21.2686 16.7782 21.2345L16.7786 21.2354Z" fill="#D6BC6F"/>
        <path fill-rule="evenodd" clip-rule="evenodd" d="M19.514 23.8984C19.514 23.8984 20.2106 24.2756 20.4622 24.7377C20.6457 25.0809 20.3536 25.2509 20.3536 25.2509C20.3536 25.2509 20.7478 25.2509 20.6967 25.4684C20.673 25.6041 20.0171 25.9711 19.5787 26.1648C19.1337 26.3586 19.1507 26.3485 18.9332 26.3823C18.7224 26.4164 18.1447 26.3151 18.0257 26.4842C17.9068 26.6534 17.9585 26.8276 17.9917 26.8547C18.0257 26.8785 18.301 26.9125 18.301 26.9125C18.301 26.9125 18.2433 27.0722 17.6725 27.0893C17.1017 27.1063 16.9588 27.1468 16.9248 27.2082C16.8907 27.2658 17.0334 27.232 17.2953 27.2754C17.5569 27.3162 17.9238 27.3426 17.9238 27.3426C17.9238 27.3426 17.8049 27.4445 17.4958 27.5261C17.1423 27.6177 16.5883 27.7028 16.4219 27.8047C16.5068 27.8625 16.6327 27.9474 16.6907 27.9541C16.548 27.9882 16.3473 28.063 16.3135 28.0901C16.3643 28.1241 16.4324 28.1649 16.4324 28.1649C16.4324 28.1649 16.1468 28.5081 15.9804 28.5932C15.814 28.6783 14.8557 29.1232 14.526 29.0383C13.7037 28.8208 13.6017 27.9203 13.4013 27.8524C13.0989 27.7505 12.9562 27.9541 12.6876 27.8114C12.8065 27.7265 12.8713 27.6757 12.9969 27.6179C12.861 27.5507 12.1576 27.1047 12.1576 27.1047C12.0841 26.9444 12.0024 26.7879 11.913 26.6359C11.777 26.4014 11.577 26.0887 11.4269 25.8134C11.1008 25.2086 11.0838 24.9299 10.7881 24.5867C10.8392 24.5195 11.0157 24.529 11.0157 24.529L13.4931 25.3445L17.886 25.4718L19.0284 23.8408L19.5142 23.8986L19.514 23.8984Z" fill="#DFC677"/>
        <path fill-rule="evenodd" clip-rule="evenodd" d="M13.0068 26.3858C13.0333 26.4153 13.0642 26.4405 13.0985 26.4606C13.1836 26.5184 13.3092 26.5865 13.3941 26.6882C13.4282 26.6374 13.5131 26.5455 13.6629 26.6882C13.8128 26.8309 13.9989 26.7292 14.1147 26.763C14.2337 26.804 14.2404 26.8208 14.2404 26.8208C14.2404 26.8208 14.3076 26.763 14.4579 26.7019C14.5497 26.6678 14.6584 26.6441 14.7773 26.6103C14.886 26.5865 15.0049 26.5525 15.0867 26.5525C15.1615 26.6033 15.4298 26.8885 16.5071 26.4676C17.5231 26.0733 17.7574 26.0292 17.9274 26.0901C17.9445 26.0494 17.9615 25.9712 18.2231 25.9815C18.2231 25.8728 18.0056 25.5023 18.0056 25.5023L16.8061 25.0913H16.15L14.1826 25.4515L13.0924 26.0735L13.0075 26.3871L13.0068 26.3858Z" fill="#C4A859"/>
        <path fill-rule="evenodd" clip-rule="evenodd" d="M12.3506 25.6964C12.3506 25.6964 12.3743 25.8799 12.6463 26.0736C12.9151 26.2671 12.9995 26.3827 12.9995 26.3827C12.9995 26.3827 13.0506 26.3155 13.0914 26.247C13.1321 26.1722 13.1662 26.0873 13.234 26.0635C13.37 26.0057 13.6791 26.1144 13.7472 26.0974C13.805 26.0806 13.788 25.9616 13.8491 25.9616C13.9918 25.9547 14.0834 26.0532 14.1345 26.0532C14.1856 26.0532 14.311 26.0465 14.3281 26.0194C14.3451 25.9923 14.3518 25.7101 14.5456 25.5741C14.7563 25.4247 15.0146 25.4892 15.0832 25.5232C15.0832 25.5741 15.0899 25.7 15.2258 25.7067C15.3618 25.7134 15.3753 25.6897 15.4947 25.7304C15.614 25.7712 15.7563 25.7237 15.8208 25.924C15.8786 25.9072 16.0146 25.8902 15.9805 25.6964C16.0477 25.6455 16.1064 25.6115 16.2493 25.411C16.2834 25.3602 16.3409 25.3024 16.3853 25.2276C16.5042 25.2276 16.6469 25.2038 16.8371 25.3703C16.7793 25.411 16.7452 25.4375 16.7284 25.4789C16.7782 25.5281 16.8236 25.5816 16.8642 25.6386C16.9153 25.7058 16.9493 25.7882 17.0138 25.8053C17.1565 25.846 17.391 25.7882 17.6527 25.8053C17.9042 25.8223 18.1148 25.9139 18.2066 25.9717C18.2407 25.9549 18.2407 25.9479 18.3256 25.965C18.4105 25.982 18.475 25.9887 18.3834 25.8801C18.4342 25.9038 18.492 25.9549 18.5431 25.9038C18.5941 25.8527 18.6347 25.7782 18.7774 25.7611C18.9201 25.7441 18.9711 25.7679 19.0289 25.6184C19.1037 25.435 18.8455 25.435 18.8455 25.435C18.8455 25.435 18.9644 25.3261 19.097 25.1834C19.2567 25.034 19.4402 24.8403 19.4843 24.6024C19.5591 24.164 19.1311 24.1064 19.1311 24.1064L17.0548 24.7453L14.5164 24.6194L12.3519 25.6966L12.3506 25.6964Z" fill="#927D49"/>
        <path fill-rule="evenodd" clip-rule="evenodd" d="M10.4852 19.6986C10.4852 19.6986 10.418 19.7835 10.3766 19.984C10.3351 20.1845 10.3528 20.1607 10.3188 20.3034C10.2847 20.4461 9.86653 21.8665 10.0233 22.3456C10.1801 22.8248 10.4516 23.0015 10.6214 23.3888C10.6555 23.4737 10.6886 23.5248 10.7063 23.5996C10.7641 23.8509 10.7132 24.0447 10.7811 24.2962C10.8049 24.3811 10.8662 24.4797 10.9579 24.5816C11.1595 24.7921 11.4881 24.9926 11.6299 25.1353C11.8301 25.3461 12.1157 25.7744 12.4793 25.8149C12.673 25.8387 12.9483 25.7571 13.1759 25.6214C13.3775 25.4955 13.502 25.319 13.7135 25.2182C13.8629 25.1434 14.0226 25.1163 14.1653 25.0822C14.461 25.0244 14.7296 25.015 14.8893 25.0482C15.1339 25.0993 15.7116 25.276 16.0317 25.276C16.2818 25.272 16.5305 25.2377 16.7724 25.1741C17.2583 25.0314 17.8461 24.7865 18.2336 24.6779C18.4612 24.6107 18.6446 24.593 18.8317 24.5522C19.1511 24.4774 19.4195 24.3755 19.5724 24.1817C19.4705 24.0628 19.3449 23.8793 18.665 23.8861C17.8938 23.9031 17.0034 24.3312 16.565 24.3993C16.1267 24.4673 15.9365 24.5249 15.447 24.3482C14.9672 24.1697 14.9513 24.0516 14.9513 24.0516C14.9513 24.0516 14.4475 23.6993 14.2368 22.801C14.026 21.9028 14.2368 21.2482 14.784 20.6262C14.9267 20.4665 14.8926 20.3238 14.8926 20.3238C14.8926 20.3238 15.2528 19.8379 15.1543 19.383C15.0456 18.931 14.349 19.0228 14.349 19.0228L10.4854 19.6986H10.4852Z" fill="#6E6342"/>
        <path fill-rule="evenodd" clip-rule="evenodd" d="M11.0666 21.2109C11.0367 21.2673 11.0226 21.3307 11.0259 21.3944C11.0326 21.486 11.0599 21.605 11.335 21.8735C11.5695 22.1078 11.5184 22.3695 11.5184 22.3695C11.5184 22.3695 11.6365 22.3932 11.9568 22.2434C12.2084 22.1244 12.2928 22.3352 12.2928 22.3352C12.366 22.2968 12.4454 22.2715 12.5273 22.2604C12.6016 22.2535 12.6734 22.2306 12.7379 22.1932C12.7379 22.1932 13.0336 22.4956 13.2918 22.6383C13.5264 22.7642 13.6623 22.8491 13.7779 22.7642C13.8866 22.6893 13.8866 22.5363 13.8796 22.4685C13.8527 22.4058 13.8185 22.3465 13.7779 22.2917C13.7031 22.1831 13.5842 22.0572 13.5763 21.9557C13.5593 21.7214 13.7531 21.4426 13.7121 21.3747C13.6711 21.3068 13.5185 21.2898 13.1413 21.4258C12.7507 21.5548 11.0651 21.2116 11.0651 21.2116L11.0666 21.2109Z" fill="#39331F"/>
        <path fill-rule="evenodd" clip-rule="evenodd" d="M11.9565 22.7297C11.9565 22.7297 11.763 22.5463 11.8308 21.6559C11.913 21.6547 11.995 21.6626 12.0754 21.6796C12.0754 21.6796 12.181 22.3695 11.9565 22.7297Z" fill="#292311"/>
        <path fill-rule="evenodd" clip-rule="evenodd" d="M10.5776 19.0191C10.6046 18.9991 10.6297 18.9766 10.6524 18.9519C10.5852 19.0776 10.275 19.5805 10.5265 20.3723C10.7781 21.1606 11.41 21.7483 12.1882 21.7757C12.9663 21.803 13.3754 21.4222 13.8431 20.8515C14.0265 20.6239 14.2373 20.3383 14.4241 20.1447C14.7028 19.8421 14.9203 19.7572 14.9203 19.4651C14.9203 18.867 14.3085 18.5985 13.4081 18.3301C12.5076 18.0618 11.6954 18.0949 11.274 18.2786C10.863 18.4788 10.6862 18.6896 10.5774 19.0194L10.5776 19.0191Z" fill="#252211"/>
        <path fill-rule="evenodd" clip-rule="evenodd" d="M13.4694 22.998L13.5366 22.9639C13.5366 22.9639 13.5534 22.6951 13.6623 22.7023C13.7709 22.7193 13.822 22.8622 13.8117 22.9131C13.805 22.9639 13.7779 23.049 13.669 23.0387C13.5263 23.0421 13.4688 22.998 13.4688 22.998H13.4694Z" fill="#3F3824"/>
        <path fill-rule="evenodd" clip-rule="evenodd" d="M13.167 21.8562C13.167 21.8562 13.2342 21.8325 13.3164 21.914C13.3836 21.914 13.6766 21.88 13.7684 21.9378C13.8603 21.9956 13.8874 22.0464 13.8874 22.0464C13.8874 22.0464 13.5442 22.1212 13.3572 22.0464C13.167 21.9819 13.167 21.8562 13.167 21.8562Z" fill="#2D2815"/>
        <path fill-rule="evenodd" clip-rule="evenodd" d="M14.6784 21.9071C14.6784 21.89 14.4949 21.7644 14.3011 21.7234C14.2671 21.7167 14.2602 21.7404 14.2339 21.7404C14.2169 21.7337 14.2102 21.6826 14.2102 21.6826L14.1 21.7406C14.1 21.7406 14.083 21.7644 14.1408 21.8078C14.1916 21.8486 14.2767 21.8826 14.3005 21.9505C14.3242 22.0184 14.3242 22.0421 14.3345 22.0524C14.3412 22.0592 14.4602 22.0524 14.518 22.0184C14.5758 21.9843 14.6846 21.9288 14.6777 21.9064L14.6784 21.9071Z" fill="#82764F"/>
        <path fill-rule="evenodd" clip-rule="evenodd" d="M12.9629 22.5971C12.9629 22.5971 12.9967 22.3628 13.2245 22.3525C13.4588 22.3354 13.5032 22.563 13.5032 22.563L13.3672 22.699C13.3672 22.6956 13.2653 22.553 12.964 22.5971H12.9629Z" fill="#2D2816"/>
        <path fill-rule="evenodd" clip-rule="evenodd" d="M14.4406 21.5878C14.4406 21.5878 14.3147 21.7238 14.0363 21.7646C14.0125 21.7305 13.9614 21.6627 14.0363 21.554C14.1111 21.4454 14.196 21.4113 14.2809 21.4452C14.3183 21.4512 14.3533 21.4679 14.3816 21.4932C14.4099 21.5185 14.4303 21.5513 14.4406 21.5878Z" fill="#574F35"/>
        <path fill-rule="evenodd" clip-rule="evenodd" d="M14.9541 21.7544C14.961 21.7204 14.9373 21.7136 14.9541 21.6966C14.9709 21.6796 15.0629 21.6458 15.0799 21.6626C15.0867 21.6695 15.0799 21.6966 15.0799 21.7298C15.0799 21.7629 15.0799 21.797 15.0629 21.8214C15.0392 21.8554 14.9713 21.8725 14.9373 21.8624C14.9032 21.8523 14.8965 21.8046 14.8965 21.7952C14.9133 21.7885 14.9541 21.7714 14.9541 21.7544ZM15.5342 21.3875C15.5342 21.3705 15.592 21.3364 15.6261 21.3364C15.6769 21.3364 15.6769 21.3772 15.6838 21.3875C15.7006 21.3942 15.7006 21.3806 15.7177 21.4112C15.7347 21.4419 15.7587 21.4961 15.7414 21.5302C15.7242 21.5642 15.6565 21.5878 15.6397 21.581C15.616 21.564 15.5412 21.4112 15.5342 21.3875Z" fill="#82764F"/>
        <path fill-rule="evenodd" clip-rule="evenodd" d="M14.3662 21.8327C14.3662 21.8327 14.441 21.8495 14.5429 21.9347C14.5089 21.9584 14.4578 21.9855 14.4578 21.9855C14.4578 21.9855 14.4511 21.9073 14.3662 21.8325V21.8327Z" fill="#6E6342"/>
        <path fill-rule="evenodd" clip-rule="evenodd" d="M14.2 21.0848C14.1829 21.068 14.2508 21.0272 14.2916 21.034C14.3323 21.0407 14.3494 21.068 14.3935 21.0747C14.4376 21.0814 14.4446 21.0577 14.4607 21.0407C14.4768 21.0237 14.5355 21.034 14.5456 21.0407C14.5519 21.0481 14.5576 21.0561 14.5626 21.0644C14.5633 21.0515 14.5667 21.0389 14.5725 21.0273C14.5783 21.0157 14.5865 21.0055 14.5964 20.9972C14.6095 20.9876 14.6245 20.9811 14.6404 20.9782C14.6563 20.9752 14.6727 20.9759 14.6883 20.9802C14.695 21.0039 14.729 21.0888 14.7223 21.1059C14.7156 21.1229 14.6137 21.1469 14.5964 21.1296C14.6135 21.1706 14.6883 21.2555 14.6984 21.2723C14.7084 21.2891 14.6235 21.3301 14.5897 21.3234C14.5422 21.32 14.2499 21.15 14.1991 21.0855L14.2 21.0848ZM14.645 20.5208C14.6387 20.5037 14.6267 20.4892 14.611 20.48C14.5872 20.4733 14.5091 20.48 14.5091 20.5208C14.5091 20.5615 14.5763 20.7896 14.6518 20.9083C14.7369 21.0272 14.7944 21.1256 14.8522 21.1529C14.8704 21.1612 14.891 21.1622 14.9099 21.1559C14.9288 21.1496 14.9446 21.1364 14.9542 21.1189C14.9609 21.1018 14.9779 20.9762 14.9712 20.6805C14.9645 20.3848 14.9542 20.0994 14.9371 20.0824C14.9201 20.0654 14.8522 20.0656 14.8285 20.0994C14.8048 20.1333 14.6518 20.4699 14.6448 20.5208H14.645Z" fill="#585136"/>
        <path fill-rule="evenodd" clip-rule="evenodd" d="M14.3424 22.2608C14.3424 22.2608 14.2234 22.186 14.1079 22.2371C13.9992 22.2882 14.0059 22.4886 14.0059 22.4886C14.0304 22.4982 14.0568 22.5017 14.0829 22.4987C14.1089 22.4957 14.1339 22.4864 14.1556 22.4716C14.2304 22.4208 14.3254 22.3359 14.3424 22.261V22.2608Z" fill="#574F35"/>
        <path fill-rule="evenodd" clip-rule="evenodd" d="M14.5662 22.5294C14.5595 22.4622 14.499 22.4622 14.499 22.4275C14.5032 22.4109 14.5128 22.3962 14.5263 22.3857C14.5399 22.3752 14.5565 22.3696 14.5736 22.3697C14.6077 22.3697 14.6408 22.4104 14.6825 22.4369C14.7232 22.4606 14.7844 22.5041 14.7911 22.5558C14.7978 22.6076 14.7239 22.7494 14.6417 22.7494C14.5595 22.7494 14.5839 22.5964 14.5669 22.5285L14.5662 22.5294ZM15.2221 22.4376C15.2221 22.4376 15.0861 22.4783 15.0962 22.4376C15.1063 22.3968 15.1372 22.3867 15.1813 22.3867C15.2037 22.3632 15.2339 22.3487 15.2662 22.3457C15.2847 22.3448 15.3029 22.3509 15.3171 22.3627C15.3171 22.3627 15.4089 22.322 15.436 22.3457C15.4631 22.3695 15.443 22.3695 15.4598 22.3968C15.4812 22.4271 15.4952 22.462 15.5008 22.4987C15.5008 22.5258 15.3988 22.5836 15.3171 22.5735C15.2221 22.5531 15.2389 22.4546 15.2221 22.4376ZM16.0137 22.2846C16.0137 22.2846 16.0545 22.3083 16.0207 22.3356C15.9969 22.3594 15.878 22.4028 15.7758 22.4104C15.6739 22.4104 15.5823 22.4272 15.5823 22.3934C15.5823 22.3596 15.6672 22.2915 15.718 22.2745C15.7282 22.2617 15.7412 22.2514 15.7559 22.2443C15.7707 22.2373 15.7868 22.2337 15.8032 22.2337C15.8439 22.2337 16.0034 22.2167 16.0478 22.21C16.0885 22.203 16.1226 22.2268 16.0986 22.2608C16.0885 22.2846 16.0137 22.2846 16.0137 22.2846ZM16.2482 21.2353C16.2482 21.2353 16.1972 21.344 16.1396 21.344C16.0818 21.3373 16.0818 21.3202 16.0818 21.3032C16.0818 21.2795 16.1396 21.2183 16.1327 21.2013C16.1159 21.2013 16.0749 21.2013 16.0818 21.1605C16.0818 21.1265 16.1396 21.0857 16.1904 21.0933C16.2289 21.0618 16.2767 21.0439 16.3264 21.0425C16.3842 21.0425 16.4351 21.0593 16.4351 21.0933C16.4351 21.1274 16.3679 21.202 16.3432 21.2192C16.3161 21.2463 16.2821 21.264 16.2482 21.236V21.2353ZM15.4734 23.2435C15.4734 23.2435 15.4062 23.2504 15.4062 23.2843C15.4062 23.3013 15.423 23.3013 15.447 23.2912C15.4608 23.2904 15.4745 23.2881 15.4878 23.2843C15.4945 23.2912 15.4945 23.325 15.5456 23.325C15.5875 23.3194 15.6279 23.3055 15.6645 23.2843C15.7053 23.2675 15.7393 23.2502 15.7393 23.2171C15.7223 23.1593 15.6882 23.132 15.6374 23.132C15.6113 23.1303 15.5854 23.1362 15.5626 23.149C15.5626 23.149 15.5456 23.1149 15.4878 23.149C15.43 23.183 15.4367 23.183 15.4537 23.2C15.4842 23.2272 15.4741 23.2448 15.4741 23.2448L15.4734 23.2435ZM15.0895 23.597C15.0895 23.58 15.1744 23.5459 15.1981 23.5562C15.2219 23.5629 15.2897 23.692 15.2897 23.7056C15.2897 23.7226 15.2048 23.7634 15.1708 23.7634C15.1368 23.7634 15.0792 23.7056 15.0792 23.6962C15.0792 23.6895 15.12 23.6794 15.12 23.6725C15.13 23.6557 15.0895 23.6147 15.0895 23.5976V23.597ZM14.8207 23.1008C14.8377 23.0941 14.8377 23.0771 14.8615 23.06C14.8689 23.0551 14.8774 23.0519 14.8862 23.0508C14.8951 23.0496 14.9041 23.0505 14.9125 23.0533C14.9185 23.0426 14.9268 23.0334 14.9368 23.0263C14.9468 23.0192 14.9582 23.0145 14.9703 23.0123C15.0111 23.0056 15.0451 23.0123 15.0375 23.0294C15.0375 23.0804 15.0716 23.1143 15.0716 23.155C15.0716 23.1958 15.0478 23.2469 14.9629 23.2809C14.878 23.3047 14.7624 23.3047 14.7454 23.2979C14.7284 23.2912 14.7114 23.2231 14.7284 23.1891C14.7454 23.155 14.7929 23.1178 14.8202 23.1008H14.8207Z" fill="#82764F"/>
        <path fill-rule="evenodd" clip-rule="evenodd" d="M14.9289 23.1235C14.9289 23.1235 14.8711 23.1576 14.8711 23.1746C14.866 23.191 14.8637 23.2082 14.8644 23.2255C14.8644 23.2355 14.9392 23.2187 14.9493 23.2084C14.9526 23.2017 14.9289 23.1412 14.9289 23.1235Z" fill="#6E6342"/>
        <path fill-rule="evenodd" clip-rule="evenodd" d="M14.4234 22.9641C14.4572 22.971 14.515 22.9641 14.5592 22.9811C14.5932 22.9981 14.617 23.0322 14.5829 23.0729C14.5489 23.1137 14.5157 23.1748 14.4402 23.1645C14.3553 23.1578 14.2738 23.1137 14.2738 23.0796C14.2724 23.0581 14.2752 23.0365 14.2822 23.0161C14.2892 22.9957 14.3002 22.9768 14.3146 22.9607C14.3486 22.9336 14.3654 22.9506 14.4232 22.9641H14.4234Z" fill="#585136"/>
        <path fill-rule="evenodd" clip-rule="evenodd" d="M14.3828 22.998C14.3828 22.998 14.2742 23.0829 14.2468 23.1239C14.2128 23.1647 14.0464 23.3753 13.9955 23.4194C14.0124 23.3896 14.0317 23.3612 14.0531 23.3345C13.9859 23.3775 13.9355 23.4422 13.9104 23.518C13.8696 23.6438 14.1382 23.7117 14.3147 23.7628C14.4912 23.8139 14.5596 23.83 14.5596 23.83C14.4946 23.7323 14.4388 23.6288 14.3929 23.5209C14.3257 23.3612 14.291 23.3441 14.3351 23.2693C14.3692 23.1945 14.4202 23.1436 14.4202 23.0859C14.3998 23.0321 14.3828 22.998 14.3828 22.998Z" fill="#574F35"/>
        <path fill-rule="evenodd" clip-rule="evenodd" d="M10.5092 23.2666C10.534 23.2711 10.5593 23.2711 10.5841 23.2666C10.6349 23.2596 11.1651 23.065 11.7191 23.0999C12.1338 23.125 12.5448 23.1925 12.9457 23.3015C13.6423 23.485 14.5088 23.8485 15.0694 24.0559C15.2188 24.1135 15.3651 24.2156 15.4726 24.2562C15.9009 24.4228 15.9177 24.4228 16.1693 24.467C16.4649 24.5077 16.7673 24.4092 17.0834 24.3413C17.4707 24.2562 18.1333 24.2154 18.7144 24.1305C18.9022 24.1045 19.0876 24.0624 19.2683 24.0049C19.2683 24.0049 18.8062 24.467 17.6983 24.6334C17.2505 24.7014 16.7954 24.7071 16.346 24.6504C15.9925 24.6164 15.7582 24.5653 15.5815 24.5145C15.381 24.4567 14.9697 24.3037 14.4635 24.1785C14.11 24.0866 13.7158 24.0187 13.264 23.9338C12.1494 23.7298 10.9398 23.4955 10.5088 23.2679L10.5092 23.2666Z" fill="#252211"/>
        <path fill-rule="evenodd" clip-rule="evenodd" d="M9.25822 21.1665C8.98942 21.3941 8.70427 21.6116 8.42584 21.8222L7.58651 22.467C7.30114 22.6776 7.02248 22.8951 6.73688 23.1059C6.45128 23.3167 6.16613 23.5169 5.86328 23.7107C6.13208 23.4831 6.41723 23.2723 6.70261 23.0651C6.98799 22.8579 7.28389 22.6548 7.55918 22.4446L8.39851 21.7989C8.68725 21.5883 8.9659 21.3708 9.25822 21.167V21.1665ZM7.77333 23.5452C7.77333 23.5452 8.07573 23.2936 8.45294 22.9404C8.92178 22.5022 9.49611 21.9413 9.67957 21.8396L7.7731 23.5454L7.77333 23.5452Z" fill="#CFB66C"/>
        <path fill-rule="evenodd" clip-rule="evenodd" d="M7.77344 23.5452C7.92307 23.3958 8.08278 23.2498 8.24249 23.1069L8.4871 22.8963C8.56192 22.8291 8.64704 22.7536 8.72163 22.6788C8.87104 22.5294 9.01731 22.3694 9.16672 22.2167C9.24077 22.1399 9.31907 22.0672 9.40125 21.9992C9.44233 21.9628 9.48796 21.9319 9.53699 21.9073C9.57798 21.8836 9.62211 21.8401 9.67968 21.8325C9.64585 21.8836 9.60509 21.9073 9.57104 21.9515C9.53027 21.9855 9.49622 22.0263 9.4624 22.0601C9.38758 22.1349 9.30269 22.2028 9.22787 22.2709C9.06816 22.4069 8.90173 22.5397 8.74201 22.6819C8.5823 22.8242 8.43289 22.9776 8.27296 23.1203C8.09981 23.2666 7.94009 23.4093 7.77344 23.5459V23.5452ZM9.80557 22.186C9.80557 22.186 8.69789 23.2702 8.47008 23.4467L9.80557 22.186Z" fill="#CFB66C"/>
        <path fill-rule="evenodd" clip-rule="evenodd" d="M9.80619 22.186C9.70655 22.3014 9.59971 22.4103 9.48632 22.5122L9.15032 22.8316C9.04168 22.9402 8.93954 23.0491 8.82418 23.1577C8.70523 23.2597 8.59659 23.3593 8.4707 23.4534L8.79685 23.134C8.90571 23.0254 9.02465 22.9337 9.14024 22.8249L9.46638 22.5055C9.57838 22.3935 9.68725 22.2846 9.80619 22.186ZM9.85704 22.7738C9.75494 23.0588 9.63463 23.3369 9.49685 23.6064C9.21147 24.1774 8.78341 24.8908 8.59637 25.2546L9.85704 22.7738Z" fill="#CFB66C"/>
        <path fill-rule="evenodd" clip-rule="evenodd" d="M9.85692 22.7739C9.85692 22.8996 9.82287 23.0085 9.7821 23.1171C9.74237 23.2258 9.69706 23.3324 9.64636 23.4365C9.59529 23.5384 9.5375 23.6473 9.4797 23.7459C9.42191 23.8444 9.35404 23.9461 9.30297 24.0483L8.9598 24.6531C8.84086 24.8547 8.72527 25.0574 8.59961 25.2511C8.68451 25.0336 8.80009 24.8298 8.90895 24.6293C9.0279 24.4277 9.13654 24.2261 9.24495 24.0176C9.29789 23.9137 9.34551 23.8071 9.38764 23.6984C9.43849 23.5895 9.48934 23.4876 9.53033 23.389C9.58118 23.2804 9.62194 23.1782 9.67302 23.0799C9.73058 22.9744 9.7783 22.8725 9.85647 22.7739H9.85692Z" fill="#CFB66C"/>
        <path fill-rule="evenodd" clip-rule="evenodd" d="M11.0665 25.5601C11.0665 25.5601 10.7305 26.0051 10.7641 26.5692C10.8557 26.2737 10.9713 25.8217 11.0665 25.5601ZM11.3859 26.0063C11.3859 26.0063 11.267 27.2159 11.1684 27.8106C11.3077 27.1231 11.3348 27.1809 11.3859 26.0063ZM13.6116 27.882C13.6116 27.882 13.1087 29.3604 13.0984 29.7713C13.2073 29.3488 13.4178 28.4857 13.6116 27.8809V27.882Z" fill="#DEC270"/>
        <path fill-rule="evenodd" clip-rule="evenodd" d="M14.7871 25.4688C14.7871 25.4688 15.6027 26.8143 16.2144 27.9628C16.0489 27.3848 15.6681 26.3249 14.7871 25.4688Z" fill="#CBAF59"/>
        <path fill-rule="evenodd" clip-rule="evenodd" d="M16.9795 27.4497C17.4273 28.2412 17.8311 29.0569 18.1891 29.8929C18.1212 29.3152 17.9375 28.3264 16.9795 27.4497Z" fill="#E3C677"/>
        <path fill-rule="evenodd" clip-rule="evenodd" d="M23.4223 29.4338C23.558 29.3489 23.8266 28.8866 24.0611 28.7712C24.2954 28.6523 24.4722 28.6285 24.683 28.394C24.8935 28.1491 24.9518 27.9997 25.4134 27.8062C26.0592 27.5273 25.615 27.1671 25.615 27.1671C25.6862 27.0973 25.7622 27.0326 25.8426 26.9736C26.0093 26.8479 26.2028 26.6949 26.186 26.4264C26.1623 25.9746 26.0774 25.3187 25.7069 24.9381C26.0671 24.8633 26.7568 24.8124 27.1853 24.7038C27.6812 24.5779 27.909 24.4012 27.909 24.4012C27.909 24.4012 27.6236 23.9153 28.0857 23.4261C28.5479 22.9369 28.9251 22.6446 29.2037 22.0973C28.8843 22.0566 28.3973 21.8868 27.1546 22.359C27.2217 22.3905 27.2864 22.4268 27.3483 22.4676C27.3483 22.4676 26.5838 22.6784 26.3052 22.9129C25.8191 23.324 25.7579 23.6604 25.2313 23.912C24.7047 24.1635 24.1745 24.0954 23.7363 24.2993C23.2982 24.5031 23.2335 24.6765 23.0735 24.7513C23.1076 24.7921 23.0668 24.8599 23.1313 24.9177C23.0905 24.9755 22.8527 25.3628 22.6114 25.3628C22.6352 25.4547 22.839 25.5225 22.839 25.5225C22.839 25.5225 22.6896 25.6314 22.309 25.6585C22.5025 25.8601 22.6862 26.0798 23.1925 26.3993C23.1517 26.4842 22.9817 26.61 23.0498 26.7698C23.1246 26.9295 23.3186 27.147 24.0929 27.3237C23.6987 27.3405 23.2368 27.4324 22.6145 27.3475C21.9927 27.2726 21.8908 27.2285 21.5069 27.3237C21.5476 27.3645 21.6563 27.3645 21.7515 27.4731C21.6496 27.4798 21.0107 27.3983 20.7932 27.6839C20.5656 27.9794 20.4671 28.4654 20.4841 28.7916C20.3651 28.8494 20.2496 28.9513 20.3073 29.1621C20.3651 29.3729 20.6675 29.4407 20.8613 29.5731C21.0548 29.7158 21.0719 29.7667 21.2555 29.7328C21.4491 29.6921 21.7344 29.4985 21.9011 29.4985C22.0678 29.4985 22.1865 29.6242 22.1865 29.6242C22.1865 29.6242 22.6385 29.4067 22.6826 29.4475C22.7234 29.4882 22.6894 29.7499 22.7335 29.7906C22.7783 29.8213 23.2874 29.5189 23.4234 29.4338H23.4223Z" fill="#ECD592"/>
        <path fill-rule="evenodd" clip-rule="evenodd" d="M33.3 15.835C31.1763 10.3505 25.9261 9.33447 25.9261 9.33447H10.9475L11.0053 14.9208H13.9883V27.3951H10.9473V32.9714H25.5115C29.0216 32.9714 31.8353 29.4441 31.8353 29.4441C36.341 23.0491 33.2998 15.835 33.2998 15.835H33.3ZM25.5897 25.6858C25.5897 25.6858 24.4473 27.334 23.2043 27.334H20.7179L20.659 14.9345H23.8499C23.8499 14.9345 25.3283 15.2436 26.3612 18.1693C26.3612 18.1693 27.7305 22.3581 25.5897 25.6858Z" fill="white"/>
    </g>
    <defs>
        <clipPath id="clip0_21227_430">
            <rect width="42" height="42" fill="white" transform="translate(0.75)"/>
        </clipPath>
    </defs>
</svg>
