<svg width="110" height="32" viewBox="0 0 110 32" xmlns="http://www.w3.org/2000/svg">
    <g clip-path="url(#clip0_21645_293)">
        <path d="M10.04 21.881L10.2472 22.0949L19.7296 16.2965L10.2472 0.0200195L10.04 0.748289V21.881Z" fill="#627EEA"/>
        <path d="M10.2471 22.0949V0.0200195L0.764648 16.2964L10.2471 22.0949Z" fill="#8B9FF7"/>
        <path d="M10.1309 31.6273L10.2476 31.98L19.7357 18.1567L10.2476 23.9522L10.1309 24.0994L10.1309 31.6273Z" fill="#4C63D2"/>
        <path d="M0.764648 18.1567L10.2471 31.9801V23.9522L0.764648 18.1567Z" fill="#8B9FF7"/>
        <path d="M10.2471 11.8379V22.0949L19.7294 16.2966L10.2471 11.8379Z" fill="#627EEA"/>
        <path d="M10.2469 11.8379L0.764648 16.2965L10.2469 22.0948V11.8379Z" fill="#5A73E8"/>
    </g>
    <path fill="#627EEA" d="M36.9705 19.0348C36.9705 19.2126 36.8228 19.3574 36.6464 19.3574H30.4023C30.5582 20.912 31.7192 22.3302 33.3521 22.3302C34.4679 22.3302 35.2967 21.9002 35.9203 21.003C36.0105 20.8789 36.1459 20.8004 36.3182 20.8748C36.4126 20.9161 36.4782 21.003 36.4946 21.1022C36.511 21.2056 36.4823 21.2634 36.4536 21.3213C35.8259 22.4253 34.5746 22.9669 33.3479 22.9669C31.2474 22.9669 29.75 21.0732 29.75 19.0472C29.75 17.0213 31.2474 15.1276 33.3479 15.1276C35.4485 15.1234 36.9664 17.013 36.9705 19.0348ZM36.3018 18.7289C36.1664 17.1742 34.9849 15.7561 33.3521 15.7561C31.7192 15.7561 30.5582 17.1742 30.4023 18.7289H36.3018ZM44.5479 15.2806C44.7285 15.2806 44.8597 15.4377 44.8597 15.5948C44.8597 15.7767 44.7244 15.909 44.5479 15.909H42.8741V22.5286C42.8741 22.6858 42.7387 22.8429 42.5623 22.8429C42.3818 22.8429 42.2505 22.6858 42.2505 22.5286V15.909H40.6423C40.4618 15.909 40.3305 15.7726 40.3305 15.5948C40.3305 15.4377 40.4659 15.2806 40.6423 15.2806H42.2505V12.8576C42.2505 12.7047 42.3531 12.5641 42.5008 12.5393C42.71 12.5062 42.8741 12.6509 42.8741 12.8494V15.2806H44.5479ZM54.7592 18.4808V22.4914C54.7592 22.6734 54.6033 22.8057 54.4474 22.8057C54.2669 22.8057 54.1356 22.6692 54.1356 22.4914V18.4808C54.1356 17.1288 53.3767 15.7767 51.8792 15.7767C49.9592 15.7767 49.1305 17.4678 49.2413 19.2002C49.2413 19.2457 49.2618 19.4483 49.2618 19.469V22.479C49.2618 22.632 49.1592 22.7726 49.0115 22.7974C48.8023 22.8305 48.6382 22.6858 48.6382 22.4873V9.31423C48.6382 9.15712 48.7736 9 48.95 9C49.1305 9 49.2618 9.15712 49.2618 9.31423V16.769C49.7992 15.8015 50.7592 15.1483 51.8751 15.1483C53.709 15.1483 54.7592 16.769 54.7592 18.4808ZM65.9551 19.0348C65.9551 19.2126 65.8074 19.3574 65.631 19.3574H59.3828C59.5387 20.912 60.6997 22.3302 62.3326 22.3302C63.4485 22.3302 64.2772 21.9002 64.9008 21.003C64.991 20.8789 65.1264 20.8004 65.2987 20.8748C65.3931 20.9161 65.4587 21.003 65.4751 21.1022C65.4915 21.2056 65.4628 21.2634 65.4341 21.3213C64.8064 22.4253 63.5551 22.9669 62.3285 22.9669C60.2279 22.9669 58.7305 21.0732 58.7305 19.0472C58.7305 17.0213 60.2279 15.1276 62.3285 15.1276C64.4331 15.1234 65.951 17.013 65.9551 19.0348ZM65.2823 18.7289C65.1469 17.1742 63.9654 15.7561 62.3326 15.7561C60.6997 15.7561 59.5387 17.1742 59.3828 18.7289H65.2823ZM73.6187 15.5741C73.6187 15.7767 73.5079 15.8884 73.3274 15.9132C71.4936 16.1819 70.669 17.6911 70.669 19.4483V22.4584C70.669 22.6113 70.5664 22.7519 70.4187 22.7767C70.2095 22.8098 70.0454 22.6651 70.0454 22.4666V15.6072C70.0454 15.4542 70.1479 15.3136 70.2956 15.2888C70.5049 15.2558 70.669 15.4005 70.669 15.5989V16.9965C71.1818 16.1199 72.2115 15.2847 73.2823 15.2847C73.4382 15.2806 73.6187 15.3963 73.6187 15.5741ZM83.8751 19.0348C83.8751 19.2126 83.7274 19.3574 83.551 19.3574H77.3069C77.4628 20.912 78.6238 22.3302 80.2567 22.3302C81.3726 22.3302 82.2013 21.9002 82.8249 21.003C82.9151 20.8789 83.0505 20.8004 83.2228 20.8748C83.3172 20.9161 83.3828 21.003 83.3992 21.1022C83.4156 21.2056 83.3869 21.2634 83.3582 21.3213C82.7305 22.4253 81.4792 22.9669 80.2526 22.9669C78.1521 22.9669 76.6546 21.0732 76.6546 19.0472C76.6546 17.0213 78.1521 15.1276 80.2526 15.1276C82.3531 15.1234 83.871 17.013 83.8751 19.0348ZM83.2064 18.7289C83.071 17.1742 81.8895 15.7561 80.2567 15.7561C78.6238 15.7561 77.4628 17.1742 77.3069 18.7289H83.2064ZM93.9551 15.6527V22.5286C93.9551 22.7106 93.7992 22.8429 93.6433 22.8429C93.4628 22.8429 93.3315 22.7064 93.3315 22.5286V21.2221C92.8187 22.2599 91.8997 23 90.7387 23C88.8844 23 87.8546 21.3792 87.8546 19.6675V15.6361C87.8546 15.479 87.99 15.3219 88.1664 15.3219C88.3469 15.3219 88.4782 15.479 88.4782 15.6361V19.6675C88.4782 21.0195 89.2372 22.3715 90.7346 22.3715C92.8351 22.3715 93.3274 20.391 93.3274 18.2038V15.6361C93.3274 15.4542 93.5079 15.2682 93.7295 15.3343C93.8649 15.3798 93.9551 15.5121 93.9551 15.6527ZM109.75 18.456V22.4873C109.75 22.6692 109.594 22.8015 109.438 22.8015C109.258 22.8015 109.126 22.6651 109.126 22.4873V18.456C109.126 17.104 108.367 15.7767 106.87 15.7767C104.991 15.7767 104.277 17.8027 104.277 19.378V22.4873C104.277 22.6692 104.121 22.8015 103.965 22.8015C103.785 22.8015 103.654 22.6651 103.654 22.4873V18.456C103.654 17.104 102.895 15.7767 101.397 15.7767C99.4977 15.7767 98.7141 17.2859 98.7838 19.2912C98.7838 19.3367 98.8044 19.4276 98.7838 19.4483V22.479C98.7838 22.632 98.6813 22.7726 98.5295 22.7974C98.3203 22.8305 98.1562 22.6858 98.1562 22.4873V15.6072C98.1562 15.4542 98.2587 15.3136 98.4064 15.2888C98.6156 15.2558 98.7797 15.4005 98.7797 15.5989V16.7484C99.3172 15.7809 100.277 15.1483 101.393 15.1483C102.665 15.1483 103.649 15.9587 104.052 17.1536C104.564 15.9835 105.569 15.1483 106.866 15.1483C108.7 15.1483 109.75 16.7442 109.75 18.456Z" />
    <defs>
        <clipPath id="clip0_21645_293">
            <rect width="19" height="32" fill="white" transform="translate(0.75)"/>
        </clipPath>
    </defs>
</svg>
