<svg width="62" height="38" viewBox="0 0 62 38" fill="none" xmlns="http://www.w3.org/2000/svg">
    <g clip-path="url(#clip0_21227_820)">
        <path d="M21.877 4.47412H39.7925V33.5234H21.877V4.47412Z" fill="#FF5F00"/>
        <path d="M23.7225 19.001C23.7203 16.2038 24.3591 13.4428 25.5904 10.9269C26.8217 8.41091 28.6134 6.20599 30.8298 4.47896C28.0847 2.33719 24.7879 1.00535 21.3164 0.63566C17.8449 0.265966 14.3386 0.873332 11.1984 2.38834C8.05809 3.90335 5.41051 6.26488 3.55821 9.20302C1.70591 12.1412 0.723633 15.5374 0.723633 19.0035C0.723633 22.4697 1.70591 25.8659 3.55821 28.8041C5.41051 31.7422 8.05809 34.1037 11.1984 35.6187C14.3386 37.1338 17.8449 37.7411 21.3164 37.3714C24.7879 37.0017 28.0847 35.6699 30.8298 33.5281C28.6127 31.8006 26.8206 29.5948 25.5892 27.0779C24.3579 24.561 23.7195 21.799 23.7225 19.0009V19.001Z" fill="#EB001B"/>
        <path d="M59.1603 30.4493V29.8542H59.4188V29.731H58.8037V29.8542H59.0466V30.4494L59.1603 30.4493ZM60.3543 30.4493V29.7311H60.1682L59.9512 30.2441L59.734 29.731H59.548V30.4493H59.6824V29.9054L59.884 30.3725H60.0235L60.2252 29.9054V30.4493H60.3543Z" fill="#F79E1B"/>
        <path d="M60.9391 19.001C60.939 22.4674 59.9565 25.8639 58.1038 28.8021C56.2512 31.7404 53.6032 34.1019 50.4625 35.6167C47.3219 37.1314 43.8152 37.7384 40.3435 37.3682C36.8718 36.9979 33.575 35.6654 30.8301 33.523C33.0456 31.7944 34.8368 29.5889 36.0684 27.0728C37.3001 24.5568 37.94 21.7958 37.94 18.9984C37.94 16.201 37.3001 13.44 36.0684 10.924C34.8368 8.4079 33.0456 6.20238 30.8301 4.47381C33.575 2.33136 36.8718 0.99886 40.3435 0.628628C43.8153 0.258395 47.3219 0.86537 50.4626 2.38017C53.6033 3.89497 56.2512 6.25647 58.1039 9.19473C59.9565 12.133 60.939 15.5295 60.9391 18.9959V19.001Z" fill="#F79E1B"/>
    </g>
    <defs>
        <clipPath id="clip0_21227_820">
            <rect width="61" height="37" fill="white" transform="translate(0.75 0.5)"/>
        </clipPath>
    </defs>
</svg>
