<svg width="97" height="28" viewBox="0 0 97 28" fill="none" xmlns="http://www.w3.org/2000/svg">
    <g clip-path="url(#clip0_21227_413)">
        <path d="M35.6974 10.5864C35.4428 10.5011 34.9057 10.4441 34.3684 10.4441C32.7568 10.4441 31.032 11.7578 31.032 13.3795V21.1132H27.3564V7.31459H30.8907V8.70855C31.7107 7.68439 33.2091 7.03003 34.8773 7.03003C35.2945 7.03304 35.7106 7.07109 36.1214 7.14379L35.6974 10.5864ZM39.8534 0.0595703C41.1823 0.0595703 42.2567 1.08384 42.2567 2.42098C42.2567 3.75822 41.1824 4.78238 39.8534 4.78238C38.5244 4.78238 37.4501 3.75822 37.4501 2.42098C37.4501 1.08395 38.5245 0.0595703 39.8534 0.0595703ZM41.6912 21.1132H38.0155V7.31459H41.6912V21.1132ZM52.5488 7.02936C51.0901 7.01079 49.6705 7.50421 48.5341 8.42476V7.31448H44.999V27.9407H48.675V20.1461C49.7203 20.9771 51.0188 21.4194 52.3509 21.3982C54.3868 21.3982 56.3372 20.4871 57.553 19.0645C58.6279 17.8123 59.277 16.1062 59.277 14.2281C59.277 10.1596 56.2803 7.02936 52.5488 7.02936ZM52.1021 18.0401C49.8188 18.0401 48.3182 16.4547 48.3182 14.2401C48.3182 12.0256 49.8188 10.4401 52.102 10.4401C54.0509 10.4401 55.6311 12.1417 55.6311 14.2402C55.6311 16.3386 54.0509 18.0402 52.102 18.0402L52.1021 18.0401ZM81.5858 21.1132H77.9101V0.913037H81.5858V21.1132ZM96.5712 18.9224C95.2421 20.5157 93.0649 21.3977 90.9445 21.3977C86.8449 21.3977 83.7629 18.5527 83.7629 14.2281C83.7629 10.3872 86.3641 7.03003 90.4357 7.03003C94.2243 7.03003 96.9104 10.2449 96.9104 14.0858C96.9126 14.4385 96.8842 14.7908 96.8255 15.1385H87.3254C87.5234 17.0731 89.0784 18.4103 91.0294 18.4103C92.5844 18.4103 93.8285 17.5283 94.4788 16.817L96.5712 18.9224ZM93.1498 12.4357C93.0368 11.2123 91.9342 10.0174 90.4355 10.0174C88.9087 10.0174 87.6648 11.1838 87.495 12.4357H93.1498ZM69.0046 7.02936C67.5458 7.01079 66.1262 7.50421 64.9899 8.42476V7.31448H61.4548V27.9407H65.1307V20.1461C66.1761 20.9771 67.4746 21.4194 68.8067 21.3982C70.8426 21.3982 72.793 20.4871 74.0089 19.0645C75.0837 17.8123 75.7329 16.1062 75.7329 14.2281C75.7329 10.1596 72.7361 7.02936 69.0046 7.02936ZM68.5579 18.0401C66.2746 18.0401 64.7739 16.4547 64.7739 14.2401C64.7739 12.0256 66.2747 10.44 68.5579 10.44C70.5068 10.44 72.0869 12.1417 72.0869 14.2401C72.0869 16.3385 70.5068 18.0402 68.5579 18.0402V18.0401Z" fill="#434C54"/>
        <path d="M19.7793 16.086C18.9494 15.6037 18.0149 15.464 17.0893 15.4315C16.3125 15.4042 15.1537 14.9034 15.1537 13.4817C15.1537 12.4225 16.0071 11.57 17.0896 11.532C18.0152 11.4994 18.9496 11.3595 19.7793 10.8775C20.5246 10.4445 21.1435 9.82178 21.5738 9.07186C22.004 8.32194 22.2305 7.47125 22.2305 6.60532C22.2305 5.73939 22.004 4.88871 21.5737 4.1388C21.1434 3.38888 20.5245 2.76615 19.7792 2.3332C19.034 1.90025 18.1886 1.67234 17.328 1.67236C16.4675 1.67239 15.6221 1.90036 14.8768 2.33335C14.1316 2.76634 13.5127 3.38911 13.0825 4.13905C12.6522 4.88899 12.4257 5.73968 12.4258 6.60561C12.4258 7.5614 12.7636 8.44084 13.1946 9.25668C13.5572 9.94279 13.7406 11.2162 12.4973 11.9385C11.5723 12.4759 10.418 12.1356 9.84136 11.2071C9.3543 10.4228 8.76632 9.68797 7.94319 9.20963C7.19795 8.77669 6.35259 8.54877 5.49206 8.54877C4.63154 8.54878 3.78618 8.77672 3.04095 9.20967C2.29572 9.64263 1.67687 10.2653 1.24662 11.0152C0.816356 11.7651 0.589844 12.6158 0.589844 13.4817C0.589844 14.3476 0.816356 15.1982 1.24662 15.9481C1.67687 16.698 2.29572 17.3207 3.04095 17.7537C3.78618 18.1866 4.63154 18.4146 5.49206 18.4146C6.35259 18.4146 7.19795 18.1867 7.94319 17.7537C8.7661 17.2756 9.35408 16.5412 9.84081 15.7575C10.2405 15.1138 11.2388 14.2935 12.4971 15.0251C13.4208 15.562 13.7062 16.7384 13.1942 17.7074C12.7633 18.5231 12.4259 19.4024 12.4259 20.358C12.4259 21.2239 12.6524 22.0745 13.0827 22.8244C13.5129 23.5743 14.1318 24.1971 14.877 24.63C15.6222 25.063 16.4676 25.2909 17.3281 25.2909C18.1887 25.2909 19.0341 25.063 19.7793 24.63C20.5245 24.1971 21.1434 23.5744 21.5737 22.8245C22.0039 22.0746 22.2304 21.2239 22.2304 20.358C22.2304 19.4921 22.0039 18.6414 21.5736 17.8915C21.1433 17.1416 20.5245 16.5189 19.7792 16.086H19.7793Z" fill="url(#paint0_linear_21227_413)"/>
    </g>
    <defs>
        <linearGradient id="paint0_linear_21227_413" x1="6.69289" y1="5.29689" x2="23.0622" y2="21.5645" gradientUnits="userSpaceOnUse">
            <stop stop-color="#00AAE4"/>
            <stop offset="1" stop-color="#006097"/>
        </linearGradient>
        <clipPath id="clip0_21227_413">
            <rect width="96" height="28" fill="white" transform="translate(0.75)"/>
        </clipPath>
    </defs>
</svg>
