<svg width="88" height="28" viewBox="0 0 88 28" fill="none" xmlns="http://www.w3.org/2000/svg">
    <g clip-path="url(#clip0_21227_826)">
        <mask id="mask0_21227_826" style="mask-type:luminance" maskUnits="userSpaceOnUse" x="0" y="-1" width="88" height="30">
            <path d="M45.2434 8.95003C45.1938 12.8514 48.7275 15.0287 51.3895 16.3231C54.1247 17.6514 55.0433 18.503 55.0329 19.6906C55.012 21.5085 52.851 22.3107 50.8284 22.3419C47.2999 22.3966 45.2486 21.3913 43.6174 20.6308L42.3464 26.5663C43.9828 27.3189 47.0128 27.9753 50.1551 28.0039C57.5305 28.0039 62.3561 24.3707 62.3822 18.7374C62.4109 11.5883 52.4726 11.1924 52.5405 7.99682C52.564 7.02798 53.4905 5.99402 55.5209 5.73098C56.5257 5.59815 59.3 5.49658 62.4449 6.94203L63.6793 1.1993C61.9881 0.584658 59.8141 -0.00394058 57.1077 -0.00394058C50.1655 -0.00394058 45.2825 3.6787 45.2434 8.95003ZM75.5411 0.490898C74.1944 0.490898 73.0591 1.27483 72.5528 2.47807L62.0169 27.582H69.387L70.8538 23.5373H79.8604L80.7112 27.582H87.2071L81.5385 0.490898H75.5411ZM76.572 7.8093L78.699 17.9821H72.8738L76.572 7.8093ZM36.3072 0.490898L30.4977 27.582H37.5208L43.3277 0.490898H36.3072ZM25.9174 0.490898L18.6072 18.9301L15.6503 3.25158C15.3032 1.50141 13.933 0.490898 12.4115 0.490898H0.46099L0.293945 1.27743C2.7472 1.80873 5.53452 2.66559 7.22309 3.58234C8.25659 4.14229 8.55149 4.63191 8.89077 5.96277L14.4915 27.582H21.9139L33.2929 0.490898H25.9174Z" fill="white"/>
        </mask>
        <g mask="url(#mask0_21227_826)">
            <path d="M-8.80762 3.34078L76.8276 -28.1309L96.3092 24.6596L10.6749 56.1313" fill="#1332C5"/>
        </g>
    </g>
    <defs>
        <clipPath id="clip0_21227_826">
            <rect width="87" height="28" fill="white" transform="translate(0.25)"/>
        </clipPath>
    </defs>
</svg>
