<svg width="16" height="16" viewBox="0 0 16 16" fill="none" xmlns="http://www.w3.org/2000/svg">
    <g clip-path="url(#clip0_21411_6329)">
        <path d="M8 15.5C12.1421 15.5 15.5 12.1421 15.5 8C15.5 3.85786 12.1421 0.5 8 0.5C3.85786 0.5 0.5 3.85786 0.5 8C0.5 12.1421 3.85786 15.5 8 15.5Z" fill="#006C35"/>
        <path d="M7.9248 6.675C7.8998 6.45 8.0248 6.225 8.2498 6.275C8.4248 6.3 8.6248 6.475 8.5248 6.65C8.3748 6.925 7.9748 6.925 7.7248 7.075C7.7498 7.225 8.4748 7.05 8.5998 7.05C8.7248 7.05 8.8498 7.1 8.7748 7.25C8.6998 7.4 8.4498 7.4 8.2998 7.425C8.1498 7.45 7.8998 7.45 7.8248 7.575C7.6748 7.775 7.9748 7.8 8.0748 7.85C8.3248 7.975 7.9248 8.1 7.8248 8.075C7.4498 8 7.3748 7.8 7.1498 7.55C6.9248 7.85 6.2248 8.525 6.0748 7.825C5.8248 7.925 5.5748 8.05 5.2998 8.075C5.4248 7.9 5.6748 7.825 5.8748 7.725C6.1248 7.6 6.1248 7.375 6.2748 7.175C6.3248 7.25 6.2748 7.35 6.2998 7.45C6.4998 7.35 6.7498 7.15 6.6498 6.9C6.6498 6.875 6.3498 6.275 6.5998 6.375C6.8248 6.475 6.7498 6.7 6.7998 6.875C6.8748 7.2 6.7248 7.375 6.4748 7.575C6.3748 7.65 6.0998 7.95 6.4248 7.95C6.6498 7.95 6.8498 7.7 6.9748 7.55C7.1248 7.35 7.0748 7.15 6.9748 6.925C6.8998 6.75 6.7248 6.375 6.9498 6.25C7.1248 6.525 7.1998 6.85 7.2748 7.175C7.3248 7.45 7.3748 7.725 7.6748 7.8C7.6498 7.6 7.7748 7.45 7.9498 7.375C7.8248 7.275 7.1248 7.4 7.3998 7.025C7.4248 6.85 7.9248 6.775 7.9248 6.675Z" fill="white"/>
        <path d="M4.10015 7.6C4.22515 7.95 4.65015 7.825 4.90015 7.725C5.30015 7.525 5.30015 7.225 5.30015 6.825C5.15015 6.9 5.17515 7.175 5.12515 7.3C5.02515 7.5 4.70015 7.675 4.47515 7.65C4.15015 7.6 4.00015 7.05 4.25015 6.85C4.30015 7.025 4.17515 7.4 4.47515 7.425C4.70015 7.45 5.15015 7.175 5.07515 6.925C4.77515 7.025 4.60015 6.925 4.70015 6.6C4.77515 6.3 5.07515 6.525 5.20015 6.675C5.67515 6.4 4.82515 5.35 5.32515 5.075C5.42515 5.25 5.57515 5.475 5.45015 5.65C5.30015 5.85 5.45015 6.275 5.47515 6.5C5.72515 6.275 5.52515 6.675 5.72515 6.7C5.85015 6.725 5.90015 6.4 5.97515 6.4C6.00015 6.475 6.00015 6.7 6.12515 6.675C6.27515 6.625 6.10015 6.425 6.25015 6.375C6.30015 6.5 6.27515 6.875 6.10015 6.85C5.95015 6.825 5.97515 6.725 5.80015 6.825C5.65015 6.9 5.60015 6.825 5.50015 6.75C5.47515 7.05 5.57515 7.375 5.40015 7.65C5.25015 7.875 4.95015 8 4.70015 8.05C4.05015 8.175 3.87515 7.525 4.10015 7C4.15015 7.15 4.05015 7.425 4.10015 7.6ZM10.2002 7.725C10.3252 8.05 10.5752 7.375 10.6502 7.275C10.8502 6.975 11.1502 7.75 11.2752 7.25C11.3502 6.925 11.2502 6.6 11.2252 6.275C11.2002 6.05 11.1252 5.85 10.9752 5.675C10.8252 5.475 10.6752 5.3 10.7502 5.05C11.0002 5.15 11.0002 5.35 11.1252 5.55C11.1502 5.4 11.0502 5.2 11.1502 5.075C11.2752 4.9 11.3752 5.375 11.3752 5.425C11.4002 5.55 11.2752 5.6 11.3502 5.8C11.4002 5.95 11.5002 6.1 11.6002 6.225C11.5752 6.075 11.3502 5.05 11.6002 5.05C11.6752 5.05 11.7502 5.35 11.7502 5.4C11.8002 5.55 11.7002 5.675 11.7002 5.85C11.6752 6.15 11.7252 6.5 11.9252 6.725C12.0252 6.85 12.4002 7.3 12.2002 7.45C12.0502 7.275 11.9502 7.075 11.8252 6.9C11.8252 7.1 11.8752 7.325 11.7752 7.475C11.6752 7.425 11.7252 7.1 11.7252 7.025C11.7252 6.75 11.5502 6.525 11.4002 6.3C11.3502 6.675 11.6502 7.375 11.3002 7.65C11.0752 7.85 10.7752 7.4 10.7002 7.575C10.6252 7.7 10.4502 8.15 10.2502 8.1C10.0002 8.05 9.82515 7.35 10.1002 7.275C10.1252 7.4 10.1252 7.575 10.2002 7.725Z" fill="white"/>
        <path d="M4.85022 6.025C5.02522 6.05 4.85022 5.45 4.85022 5.35C4.87522 5.25 4.95022 5.2 5.00022 5.3C5.07522 5.45 5.07522 5.625 5.10022 5.775C5.10022 5.9 5.12522 6.05 5.02522 6.15C4.87522 6.3 4.67522 6.225 4.60022 6.025C4.25022 6.325 4.70022 6.85 4.40022 7.15C4.35022 6.875 4.40022 6.575 4.30022 6.325C4.25022 6.2 4.02522 6.25 4.00022 6.025C4.00022 5.925 4.07522 5.65 3.97522 5.575C3.92522 5.675 3.87522 6.45 3.62522 6.225C3.42522 6.075 3.47522 5.575 3.55022 5.375C3.70022 5.45 3.52522 6 3.72522 6.025C3.82522 6.05 3.85022 5.625 3.87522 5.55C3.95022 5.425 4.20022 5.075 4.15022 5.425C4.12522 5.575 4.00022 6.05 4.30022 6.025C4.27522 5.775 4.25022 5.525 4.20022 5.275C4.17522 5.15 4.25022 4.9 4.35022 5.125C4.42522 5.275 4.37522 5.35 4.35022 5.5C4.32522 5.675 4.40022 5.85 4.42522 6C4.57522 5.875 4.37522 5.4 4.50022 5.2C4.80022 5.375 4.47522 5.975 4.85022 6.025ZM8.07522 6.075C7.95022 6.25 7.72522 6.1 7.62522 5.975C7.50022 6.125 7.25022 6.375 7.05022 6.175C6.90022 6.025 7.07522 5.75 6.95022 5.625C6.87522 5.75 6.75022 6.35 6.52522 6.075C6.40022 5.925 6.22522 5.4 6.50022 5.275C6.47522 5.475 6.42522 5.7 6.55022 5.875C6.67522 6.05 6.80022 5.6 6.85022 5.5C6.92522 5.325 7.17522 5.025 7.12522 5.4C7.10022 5.55 7.05022 5.9 7.20022 6C7.30022 6.075 7.42522 5.95 7.47522 5.875C7.57522 5.75 7.52522 5.55 7.50022 5.4C7.47522 5.275 7.42522 5.125 7.50022 5C7.60022 4.85 7.67522 5.2 7.67522 5.275C7.67522 5.35 7.77522 6.125 7.95022 5.875C8.12522 5.65 7.65022 5.15 7.97522 5.025C8.10022 4.975 8.32522 5.475 8.07522 5.325C8.15022 5.55 8.25022 5.875 8.07522 6.075ZM9.02522 6.375C9.05022 6.7 9.32522 7.6 8.95022 7.8C8.90022 7.7 8.95022 7.55 8.97522 7.425C9.00022 7.2 8.95022 6.975 8.92522 6.775C8.87522 6.3 8.82522 5.95 8.50022 5.575C8.42522 5.475 8.30022 5.4 8.27522 5.25C8.27522 5.2 8.25022 4.975 8.35022 5.025C8.42522 5.05 8.85022 5.425 8.62522 5.425C8.65022 5.475 8.75022 5.675 8.80022 5.675C8.80022 5.55 8.65022 5.175 8.80022 5.1C8.92522 5.025 9.07522 5.5 9.02522 5.6C8.97522 5.725 8.97522 5.8 9.02522 5.975C9.07522 6.175 9.20022 6.35 9.30022 6.525C9.45022 6.775 9.75022 7.125 9.67522 7.45C9.52522 7.375 9.42522 7.025 9.35022 6.875C9.30022 6.75 9.25022 6.625 9.17522 6.525C9.15022 6.5 9.00022 6.3 9.02522 6.425V6.375ZM12.5002 6.85C12.5252 7.375 12.3502 8.05 11.7002 8.05C11.7002 7.9 12.0252 7.75 12.1252 7.675C12.3752 7.475 12.3502 7.1 12.3252 6.825C12.3002 6.45 12.2752 6.075 12.2002 5.7C12.1752 5.475 12.0502 5.15 12.2502 5C12.3752 5.1 12.5502 5.375 12.4752 5.475C12.3502 5.625 12.4752 6.75 12.5002 6.85Z" fill="white"/>
        <path d="M9.3002 7.975C9.9502 7.6 9.7502 6.8 9.7002 6.175C9.6752 6 9.6752 5.825 9.6502 5.65C9.6502 5.525 9.5502 5.35 9.6002 5.225C9.7252 4.9 9.8252 5.2 9.8502 5.4C9.8752 5.525 9.7752 5.55 9.8002 5.65C9.8252 5.85 9.8252 6.05 9.8502 6.25C9.8752 6.575 9.9252 6.9 9.9002 7.2C9.85019 7.675 9.60019 8.2 9.0252 8.1C9.0502 8.05 9.2252 8.025 9.3002 7.975ZM10.3502 6.725C10.3752 6.975 10.4752 7.425 10.3502 7.65C10.2502 7.8 10.2502 7.55 10.2252 7.525C10.2002 7.325 10.2002 7.125 10.2002 6.9C10.1502 6.35 9.9752 5.8 9.9752 5.275C9.9752 4.6 10.5502 5.65 10.2252 5.6C10.2502 5.975 10.3002 6.35 10.3502 6.725ZM6.2752 5.45C6.3252 5.575 5.7002 5.9 5.6252 5.9C5.6002 5.775 5.9002 5.6 5.9752 5.55C6.0502 5.475 6.1002 5.475 6.0752 5.375C6.0252 5.275 6.0502 5.1 6.1752 5.05C6.4252 4.975 6.2502 5.35 6.2752 5.45ZM3.7002 7.675C3.7002 7.875 3.7752 7.775 3.8752 7.725C3.9252 7.825 3.8002 8.1 3.6752 7.975C3.5002 7.8 3.6502 7.4 3.7252 7.225C3.7752 7.35 3.6752 7.55 3.7002 7.675ZM10.7502 6.125C10.7752 6.025 10.7002 5.925 10.7752 5.825C10.8752 5.7 10.9752 5.85 10.9252 5.9C10.8752 5.95 10.8002 5.85 10.8002 6C10.8002 6.075 10.8502 6.225 10.7752 6.3C10.7252 6.275 10.5002 5.95 10.5252 5.9C10.6252 5.8 10.7252 6.1 10.7502 6.125ZM4.2252 6.55C4.1752 6.65 3.6002 6.975 3.5752 6.9C3.5752 6.825 4.3002 6.4 4.2252 6.55ZM8.4752 7.825C8.4002 8.05 8.7252 7.85 8.8002 7.825C8.7002 8 8.35019 8.15 8.4002 7.825C8.3752 7.825 8.3252 7.85 8.3002 7.85C8.2502 7.8 8.5502 7.6 8.4752 7.825ZM11.2002 7.75C11.2752 7.75 11.4002 7.975 11.3252 8.025C11.2752 8.075 11.0502 8.1 11.1752 8C11.3252 7.85 11.2002 7.75 11.2002 7.75ZM7.6752 6.475C7.7002 6.425 7.70019 6.35 7.72519 6.3C7.97519 6.5 7.3252 6.825 7.4502 6.35C7.5002 6.4 7.5002 6.475 7.5502 6.5C7.5502 6.45 7.5752 6.375 7.5752 6.325C7.6252 6.375 7.6252 6.45 7.6752 6.475ZM10.6002 6.8C10.5252 6.7 10.9752 6.425 11.0502 6.375C11.1002 6.45 10.7502 6.725 10.6002 6.8ZM12.0002 5.8C11.9502 5.65 11.8002 5.35 11.9502 5.225C12.0502 5.3 12.1002 5.675 12.0002 5.8ZM9.2752 5.3C9.2502 5.25 9.1752 5.2 9.1752 5.125C9.2002 5.025 9.2502 5.05 9.3002 5.1C9.3752 5.2 9.4252 5.475 9.3002 5.55C9.3002 5.475 9.3252 5.375 9.2752 5.3ZM6.2252 5.975C6.2252 6.125 5.9752 6.275 5.9502 6.075C5.92519 6 6.0502 5.725 6.1002 5.8C6.0002 6.025 6.0002 6.1 6.2252 5.975Z" fill="white"/>
        <path d="M9.35059 5.7C9.45059 5.95 9.40059 5.725 9.50059 5.675C9.67559 6 9.12559 5.925 9.25059 5.725C9.27559 5.75 9.30059 5.8 9.30059 5.825C9.32559 5.8 9.32559 5.75 9.35059 5.7ZM10.9506 6.85C10.8256 6.75 10.9756 6.625 11.0506 6.75C11.1006 6.825 11.1006 7.025 11.0006 7.075C11.0006 7 11.0256 6.9 10.9506 6.85ZM5.82559 7.4C5.82559 7.35 5.80059 6.975 5.87559 7.025C5.97559 7.075 5.95059 7.35 5.82559 7.4ZM4.77559 5.05C4.80059 5.125 4.82559 5.225 4.87559 5.1C5.07559 5.325 4.37559 5.25 4.62559 5.025C4.62559 5.05 4.67559 5.2 4.77559 5.05ZM7.32559 5.6C7.32559 5.5 7.17559 5.075 7.30059 5.075C7.45059 5.1 7.42559 5.475 7.32559 5.6ZM3.82559 5.375C3.75059 5.35 3.87559 5.225 3.82559 5.125C3.77559 5.15 3.72559 5.075 3.77559 5.025C3.97559 4.875 3.90059 5.375 3.82559 5.375ZM10.3006 10.45L10.2006 10.15L10.1006 10.45H4.62559C4.62559 10.45 4.67559 10.9 5.22559 10.9H10.0756V11.25H11.4006V10.45H10.3006ZM11.1506 11.05H10.2506V10.8H11.1506V11.05Z" fill="white"/>
    </g>
    <defs>
        <clipPath id="clip0_21411_6329">
            <rect width="16" height="16" fill="white"/>
        </clipPath>
    </defs>
</svg>
