<svg width="16" height="16" viewBox="0 0 16 16" fill="none" xmlns="http://www.w3.org/2000/svg">
    <g clip-path="url(#clip0_21411_6237)">
        <path d="M0.5 8C0.5 9.475 0.925 10.85 1.65 12H14.325C15.05 10.85 15.475 9.475 15.475 8C15.475 6.525 15.05 5.15 14.325 4H1.65C0.925 5.15 0.5 6.525 0.5 8Z" fill="#FFCE31"/>
        <path d="M14.3504 4C13.0254 1.9 10.6754 0.5 8.00039 0.5C5.32539 0.5 2.97539 1.9 1.65039 4H14.3504ZM1.65039 12C2.97539 14.1 5.32539 15.5 8.00039 15.5C10.6754 15.5 13.0254 14.1 14.3504 12H1.65039Z" fill="#ED4C5C"/>
        <path d="M2.2998 7.175H3.0998V7.625H2.2998V7.175ZM2.2998 10.475H3.1248V10.9H2.2998V10.475Z" fill="#C8B100"/>
        <path d="M2.22461 9.77499C2.14961 9.82499 2.09961 9.87499 2.09961 9.89999C2.09961 9.92499 2.12461 9.94999 2.17461 9.97499C2.22461 9.99999 2.27461 10.05 2.24961 10.1C2.29961 10.05 2.32461 9.99999 2.32461 9.94999C2.32461 9.87499 2.27461 9.79999 2.22461 9.77499Z" fill="#ED4C5C"/>
        <path d="M2.4248 7.625H2.9998V10.475H2.4248V7.625Z" fill="white"/>
        <path d="M3.60048 8.675C3.47548 8.625 3.25048 8.575 3.00048 8.575C2.92548 8.575 2.82548 8.575 2.72548 8.6C2.37548 8.65 2.10048 8.8 2.12548 8.9L2.00048 8.625C1.97548 8.5 2.27548 8.35 2.65048 8.275C2.77548 8.25 2.90048 8.25 3.00048 8.25C3.25048 8.25 3.47548 8.275 3.60048 8.325V8.675Z" fill="#ED4C5C"/>
        <path d="M2.42539 9.05C2.27539 9.05 2.15039 9 2.15039 8.925C2.15039 8.875 2.20039 8.8 2.30039 8.75H2.45039L2.42539 9.05ZM3.00039 8.825C3.10039 8.85 3.17539 8.875 3.22539 8.9C3.25039 8.925 3.15039 9.025 3.00039 9.1V8.825Z" fill="#ED4C5C"/>
        <path d="M2.05023 9.59999C2.02523 9.54999 2.20023 9.44999 2.42523 9.37499C2.52523 9.34999 2.60023 9.29999 2.72523 9.24999C3.02523 9.12499 3.27523 8.94999 3.22523 8.89999L3.27523 9.19999C3.30023 9.24999 3.10023 9.39999 2.80023 9.54999C2.70023 9.59999 2.52523 9.67499 2.42523 9.69999C2.25023 9.74999 2.10023 9.84999 2.10023 9.87499L2.05023 9.59999Z" fill="#ED4C5C"/>
        <path d="M7.67539 7.175H8.47539V7.625H7.67539V7.175ZM7.65039 10.475H8.47539V10.9H7.65039V10.475Z" fill="#C8B100"/>
        <path d="M8.5502 9.77499C8.6252 9.82499 8.6752 9.87499 8.6752 9.89999C8.6752 9.92499 8.6502 9.94999 8.6002 9.97499C8.5502 10.025 8.5002 10.1 8.5252 10.125C8.4752 10.075 8.4502 10.025 8.4502 9.97499C8.4502 9.87499 8.5002 9.79999 8.5502 9.77499Z" fill="#ED4C5C"/>
        <path d="M7.77539 7.625H8.35039V10.475H7.77539V7.625Z" fill="white"/>
        <path d="M7.1748 8.675C7.2998 8.625 7.5248 8.575 7.7748 8.575C7.8498 8.575 7.9498 8.575 8.0498 8.6C8.3998 8.65 8.6748 8.8 8.6498 8.9L8.7748 8.6C8.7998 8.475 8.4998 8.325 8.1248 8.25H7.7748C7.5248 8.25 7.2998 8.275 7.1748 8.325V8.675Z" fill="#ED4C5C"/>
        <path d="M8.34973 9.05C8.49973 9.05 8.62473 9 8.62473 8.925C8.62473 8.875 8.57473 8.8 8.47473 8.75H8.32473L8.34973 9.05ZM7.77473 8.825C7.67473 8.85 7.59973 8.875 7.54973 8.9C7.52473 8.925 7.62473 9.025 7.77473 9.1V8.825Z" fill="#ED4C5C"/>
        <path d="M8.7252 9.6C8.7502 9.55 8.5752 9.45 8.3502 9.375C8.2502 9.35 8.1752 9.3 8.0502 9.25C7.7502 9.125 7.5002 8.95 7.5502 8.9L7.5002 9.2C7.4752 9.25 7.67519 9.4 7.97519 9.55C8.07519 9.6 8.2502 9.675 8.3502 9.7C8.5252 9.75 8.6752 9.875 8.6502 9.9L8.7252 9.6ZM5.3752 5.575C5.8502 5.575 6.8252 5.675 7.1752 6.025C6.8002 6.925 6.2002 6.55 5.3752 6.55C4.5752 6.55 3.9502 6.925 3.5752 6.025C3.9252 5.675 4.8752 5.575 5.3752 5.575Z" fill="#ED4C5C"/>
        <path d="M6.6002 6.575C6.3002 6.4 5.8502 6.375 5.3752 6.375C4.9002 6.375 4.4502 6.425 4.1502 6.575L4.2502 7C4.5252 7.075 4.9252 7.125 5.3752 7.125C5.8252 7.125 6.2002 7.075 6.5002 7L6.6002 6.575ZM7.0252 5.5C6.9252 5.425 6.7252 5.35 6.5502 5.35C6.4752 5.35 6.4002 5.35 6.3252 5.375C6.3252 5.375 6.1752 5.175 5.8252 5.175C5.7002 5.175 5.6002 5.2 5.5002 5.25V5.225C5.4752 5.175 5.4252 5.125 5.3752 5.125C5.3252 5.125 5.2502 5.2 5.2502 5.25V5.275C5.1502 5.225 5.0502 5.2 4.9252 5.2C4.5752 5.2 4.4252 5.425 4.4252 5.4C4.3502 5.375 4.2752 5.375 4.2002 5.375C3.0502 5.375 3.6252 6.15 3.6252 6.15L3.7502 6C3.4752 5.65 3.7252 5.45 4.2252 5.45C4.3002 5.45 4.3502 5.45 4.4002 5.475C4.2252 5.725 4.5502 5.95 4.5502 5.95L4.6252 5.825C4.4502 5.7 4.4252 5.275 4.9252 5.275C5.0502 5.275 5.1502 5.3 5.2502 5.375C5.2502 5.4 5.2252 5.75 5.2002 5.8L5.4002 5.975L5.6002 5.8C5.5752 5.725 5.5502 5.4 5.5502 5.375C5.6252 5.325 5.7502 5.275 5.8752 5.275C6.4002 5.275 6.4002 5.7 6.1752 5.825L6.2502 5.95C6.2502 5.95 6.5252 5.725 6.4002 5.475C6.4502 5.475 6.5252 5.45 6.5752 5.45C7.1752 5.45 7.2002 5.9 7.0502 6L7.1502 6.15C7.1002 6.15 7.3752 5.8 7.0252 5.5Z" fill="#C8B100"/>
        <path d="M5.22461 5.025C5.22461 4.95 5.29961 4.875 5.37461 4.875C5.47461 4.875 5.52461 4.95 5.52461 5.025C5.52461 5.1 5.44961 5.175 5.37461 5.175C5.29961 5.175 5.22461 5.1 5.22461 5.025Z" fill="#005BBF"/>
        <path d="M5.32461 4.60001V4.67501H5.24961V4.75001H5.32461V5.00001H5.22461V5.07501H5.52461L5.54961 5.02501L5.52461 5.00001H5.42461V4.75001H5.49961V4.67501H5.42461V4.60001H5.32461Z" fill="#C8B100"/>
        <path d="M5.37461 7.075C4.97461 7.075 4.62461 7.025 4.34961 6.95C4.62461 6.875 4.97461 6.825 5.37461 6.825C5.77461 6.825 6.12461 6.875 6.39961 6.95C6.14961 7.025 5.77461 7.075 5.37461 7.075Z" fill="#ED4C5C"/>
        <path d="M5.39961 11.4C4.92461 11.4 4.47461 11.275 4.07461 11.1C3.77461 10.95 3.59961 10.675 3.59961 10.35V9.14999H7.19961V10.35C7.19961 10.675 6.99961 10.975 6.72461 11.1C6.32461 11.3 5.87461 11.4 5.39961 11.4ZM5.37461 7.14999H7.17461V9.14999H5.37461V7.14999Z" fill="white"/>
        <path d="M5.39961 10.35C5.39961 10.825 4.99961 11.2 4.49961 11.2C3.99961 11.2 3.59961 10.825 3.59961 10.35V9.14999H5.39961V10.35Z" fill="#ED4C5C"/>
        <path d="M3.9752 11.05C4.0252 11.075 4.1002 11.125 4.2002 11.15V9.10001H4.0002L3.9752 11.05ZM3.5752 10.325C3.5752 10.575 3.6752 10.775 3.7752 10.875V9.10001H3.5752V10.325Z" fill="#C8B100"/>
        <path d="M4.375 11.2H4.575V9.10001H4.375V11.2Z" fill="#C7B500"/>
        <path d="M4.77539 11.15C4.85039 11.125 4.95039 11.075 5.00039 11.05V9.10001H4.80039L4.77539 11.15Z" fill="#C8B100"/>
        <path d="M3.5752 7.14999H5.3752V9.14999H3.5752V7.14999Z" fill="#ED4C5C"/>
        <path d="M5.2002 10.875C5.3002 10.8 5.3752 10.625 5.4002 10.425V9.125H5.2002V10.875Z" fill="#C8B100"/>
        <path d="M7.19961 9.15V10.35C7.19961 10.825 6.79961 11.2 6.29961 11.2C5.79961 11.2 5.39961 10.825 5.39961 10.35V9.15H7.19961ZM6.54961 7.5C6.62461 7.65 6.62461 8.025 6.39961 7.95C6.44961 7.975 6.47461 8.15 6.54961 8.25C6.67461 8.4 6.82461 8.275 6.79961 8.1C6.74961 7.825 6.77461 7.65 6.82461 7.375C6.82461 7.4 6.94961 7.4 6.99961 7.35C6.97461 7.425 6.94961 7.525 6.99961 7.525C6.94961 7.6 6.82461 7.725 6.79961 7.8C6.77461 7.975 7.04961 8.3 6.74961 8.375C6.54961 8.425 6.67461 8.575 6.74961 8.65C6.74961 8.65 6.64961 8.975 6.69961 8.95C6.49961 9.025 6.54961 8.85 6.54961 8.85C6.64961 8.55 6.37461 8.525 6.39961 8.475C6.14961 8.45 6.42461 8.7 6.19961 8.7C6.14961 8.7 6.04961 8.75 6.04961 8.75C5.77461 8.725 5.92461 8.475 6.02461 8.5C6.09961 8.525 6.17461 8.65 6.17461 8.475C6.17461 8.475 6.04961 8.275 6.37461 8.275C6.24961 8.275 6.17461 8.175 6.12461 8.05C6.07461 8.075 5.99961 8.2 5.72461 8.225C5.72461 8.225 5.64961 7.95 5.72461 8C5.82461 8.05 5.87461 8.05 5.97461 7.95C5.92461 7.875 5.62461 7.775 5.67461 7.6C5.67461 7.55 5.82461 7.475 5.82461 7.475C5.79961 7.6 5.87461 7.725 6.02461 7.725C6.22461 7.75 6.14961 7.675 6.17461 7.625C6.19961 7.575 6.34961 7.65 6.29961 7.525C6.29961 7.5 6.12461 7.475 6.17461 7.4C6.27461 7.275 6.42461 7.375 6.54961 7.5ZM5.39961 11.15L5.34961 11.025L5.39961 10.875L5.44961 11.025L5.39961 11.15Z" fill="#ED4C5C"/>
        <path d="M4.12461 7.575V7.7H4.17461V7.8H4.04961V8.05H4.12461V8.6H3.97461V8.875H4.99961V8.6H4.87461V8.05H4.92461V7.8H4.79961V7.7H4.87461V7.575H4.62461V7.7H4.67461V7.8H4.54961V7.5H4.62461V7.375H4.34961V7.5H4.42461V7.8H4.29961V7.7H4.34961V7.575H4.12461ZM6.94961 10.65V9.4H5.64961V10.65L6.24961 10.925H6.32461L6.94961 10.65ZM6.24961 9.5V9.925L5.82461 9.5H6.24961ZM5.72461 9.525L6.22461 10.025L5.72461 10.525V9.525ZM5.77461 10.625L6.24961 10.15V10.85L5.77461 10.625ZM6.32461 10.825V10.125L6.79961 10.6L6.32461 10.825ZM6.84961 10.525L6.34961 10.025L6.84961 9.525V10.525ZM6.32461 9.5H6.74961L6.32461 9.925V9.5Z" fill="#C8B100"/>
        <path d="M4.7998 9.12501C4.7998 8.75001 5.0498 8.47501 5.3748 8.47501C5.6998 8.47501 5.9498 8.77501 5.9498 9.12501C5.9498 9.47501 5.6998 9.77501 5.3748 9.77501C5.0498 9.77501 4.7998 9.50001 4.7998 9.12501Z" fill="#ED4C5C"/>
        <path d="M4.97461 9.12499C4.97461 8.84999 5.14961 8.64999 5.37461 8.64999C5.59961 8.64999 5.77461 8.87499 5.77461 9.12499C5.77461 9.39999 5.59961 9.59999 5.37461 9.59999C5.17461 9.62499 4.97461 9.39999 4.97461 9.12499Z" fill="#005BBF"/>
        <path d="M5.19961 8.8L5.09961 9.075L5.17461 9.1L5.12461 9.2H5.27461L5.22461 9.1L5.29961 9.075L5.19961 8.8ZM5.57461 8.8L5.47461 9.075L5.54961 9.1L5.49961 9.2H5.64961L5.62461 9.1L5.69961 9.075L5.57461 8.8ZM5.39961 9.125L5.27461 9.4L5.34961 9.425L5.32461 9.525H5.44961L5.42461 9.425L5.49961 9.4L5.39961 9.125Z" fill="#C8B100"/>
    </g>
    <defs>
        <clipPath id="clip0_21411_6237">
            <rect width="16" height="16" fill="white"/>
        </clipPath>
    </defs>
</svg>
