<svg width="16" height="16" viewBox="0 0 16 16" fill="none" xmlns="http://www.w3.org/2000/svg">
    <g clip-path="url(#clip0_21411_6273)">
        <path d="M4.25 14.5V1.5C2 2.8 0.5 5.225 0.5 8C0.5 10.775 2 13.2 4.25 14.5Z" fill="#699635"/>
        <path d="M8 0.5C6.625 0.5 5.35 0.875 4.25 1.5V14.5C5.35 15.15 6.625 15.5 8 15.5C12.15 15.5 15.5 12.15 15.5 8C15.5 3.85 12.15 0.5 8 0.5Z" fill="#ED4C5C"/>
        <path d="M4.25 5C2.6 5 1.25 6.35 1.25 8C1.25 9.65 2.6 11 4.25 11C5.9 11 7.25 9.65 7.25 8C7.25 6.35 5.9 5 4.25 5ZM4.25 10.625C2.8 10.625 1.625 9.45 1.625 8C1.625 6.55 2.8 5.375 4.25 5.375C5.7 5.375 6.875 6.55 6.875 8C6.875 9.45 5.7 10.625 4.25 10.625Z" fill="#FFE62E"/>
        <path d="M5.2752 10.925C5.2252 10.975 5.1502 10.975 5.1002 10.925L1.6752 6.4C1.6252 6.35 1.6252 6.275 1.6752 6.225L1.7502 6.15C1.8002 6.1 1.8752 6.1 1.9252 6.15L5.3502 10.675C5.4002 10.725 5.4002 10.8 5.3502 10.85L5.2752 10.925Z" fill="#FFE62E"/>
        <path d="M4.30078 4.875C4.37578 4.875 4.42578 4.925 4.42578 5V11C4.42578 11.075 4.37578 11.125 4.30078 11.125H4.17578C4.10078 11.125 4.05078 11.075 4.05078 11V5C4.05078 4.925 4.10078 4.875 4.17578 4.875H4.30078Z" fill="#FFE62E"/>
        <path d="M7.2253 8.325L4.2503 7.8V8.175L7.1753 8.7C7.2503 8.7 7.3003 8.675 7.3253 8.6L7.3503 8.475C7.3503 8.425 7.3003 8.35 7.2253 8.325ZM4.2503 7.775L1.9003 6.125C1.8503 6.075 1.7753 6.1 1.7253 6.15L1.6503 6.25C1.6003 6.3 1.6253 6.375 1.6753 6.425L4.2503 8.225V7.775Z" fill="#FFE62E"/>
        <path d="M4.1504 7.5L1.8004 9.85C1.7504 9.9 1.7504 9.975 1.8004 10.025L1.9004 10.125C1.9504 10.175 2.0254 10.175 2.0754 10.125L4.1504 8.05V7.5ZM4.2504 6.375L1.1254 7.85C1.0754 7.875 1.0254 7.95 1.0754 8.025L1.1254 8.15C1.1504 8.2 1.2254 8.25 1.3004 8.2L4.2504 6.8V6.375Z" fill="#FFE62E"/>
        <path d="M7.02578 6.79999L4.05078 6.27499V6.64999L6.97578 7.17499C7.05078 7.17499 7.10078 7.14999 7.12578 7.07499L7.15078 6.94999C7.12578 6.87499 7.07578 6.79999 7.02578 6.79999ZM4.22578 9.72499C4.17578 9.74999 4.12578 9.82499 4.17578 9.89999L4.22578 10.025C4.25078 10.075 4.32578 10.125 4.40078 10.075L6.90078 8.92499L7.02578 8.44999L4.22578 9.72499ZM4.22578 8.87499L1.42578 7.84999V8.24999L4.22578 9.27499V8.87499Z" fill="#FFE62E"/>
        <path d="M2.27539 9.7V10.075L5.97539 10.325C6.12539 10.225 6.25039 10.1 6.37539 9.975L2.27539 9.7Z" fill="#FFE62E"/>
        <path d="M3 6.75V8.5C3 9.2 3.55 9.75 4.25 9.75C4.95 9.75 5.5 9.2 5.5 8.5V6.75H3Z" fill="white"/>
        <path d="M4.25 10.25C3.275 10.25 2.5 9.475 2.5 8.5V6.25H6V8.5C6 9.475 5.225 10.25 4.25 10.25ZM3.5 7.25V8.5C3.5 8.925 3.825 9.25 4.25 9.25C4.675 9.25 5 8.925 5 8.5V7.25H3.5Z" fill="#ED4C5C"/>
        <path d="M4.02539 7.35V7.75C4.02539 7.825 4.07539 7.875 4.15039 7.875H4.35039C4.42539 7.875 4.47539 7.825 4.47539 7.75V7.325H4.02539V7.35ZM4.02539 7.975V8.4C4.02539 8.475 4.07539 8.525 4.15039 8.525H4.35039C4.42539 8.525 4.47539 8.475 4.47539 8.4V7.975H4.02539ZM3.52539 7.975V8.4C3.52539 8.475 3.57539 8.525 3.65039 8.525H3.85039C3.92539 8.525 3.97539 8.475 3.97539 8.4V7.975H3.52539ZM4.52539 7.975V8.4C4.52539 8.475 4.57539 8.525 4.65039 8.525H4.85039C4.92539 8.525 4.97539 8.475 4.97539 8.4V7.975H4.52539ZM4.02539 8.575V9C4.02539 9.075 4.07539 9.125 4.15039 9.125H4.35039C4.42539 9.125 4.47539 9.075 4.47539 9V8.575H4.02539Z" fill="#0071BC"/>
        <path d="M4.24922 8.275C4.27683 8.275 4.29922 8.25262 4.29922 8.225C4.29922 8.19739 4.27683 8.175 4.24922 8.175C4.2216 8.175 4.19922 8.19739 4.19922 8.225C4.19922 8.25262 4.2216 8.275 4.24922 8.275Z" fill="white"/>
        <path d="M4.14961 8.4C4.17722 8.4 4.19961 8.37762 4.19961 8.35C4.19961 8.32239 4.17722 8.3 4.14961 8.3C4.122 8.3 4.09961 8.32239 4.09961 8.35C4.09961 8.37762 4.122 8.4 4.14961 8.4Z" fill="white"/>
        <path d="M4.3498 8.4C4.37742 8.4 4.3998 8.37762 4.3998 8.35C4.3998 8.32239 4.37742 8.3 4.3498 8.3C4.32219 8.3 4.2998 8.32239 4.2998 8.35C4.2998 8.37762 4.32219 8.4 4.3498 8.4Z" fill="white"/>
        <path d="M4.14961 8.15C4.17722 8.15 4.19961 8.12762 4.19961 8.1C4.19961 8.07239 4.17722 8.05 4.14961 8.05C4.122 8.05 4.09961 8.07239 4.09961 8.1C4.09961 8.12762 4.122 8.15 4.14961 8.15Z" fill="white"/>
        <path d="M4.3498 8.15C4.37742 8.15 4.3998 8.12762 4.3998 8.1C4.3998 8.07239 4.37742 8.05 4.3498 8.05C4.32219 8.05 4.2998 8.07239 4.2998 8.1C4.2998 8.12762 4.32219 8.15 4.3498 8.15Z" fill="white"/>
        <path d="M4.24922 7.65C4.27683 7.65 4.29922 7.62762 4.29922 7.6C4.29922 7.57239 4.27683 7.55 4.24922 7.55C4.2216 7.55 4.19922 7.57239 4.19922 7.6C4.19922 7.62762 4.2216 7.65 4.24922 7.65Z" fill="white"/>
        <path d="M4.14961 7.775C4.17722 7.775 4.19961 7.75262 4.19961 7.725C4.19961 7.69739 4.17722 7.675 4.14961 7.675C4.122 7.675 4.09961 7.69739 4.09961 7.725C4.09961 7.75262 4.122 7.775 4.14961 7.775Z" fill="white"/>
        <path d="M4.3498 7.775C4.37742 7.775 4.3998 7.75262 4.3998 7.725C4.3998 7.69739 4.37742 7.675 4.3498 7.675C4.32219 7.675 4.2998 7.69739 4.2998 7.725C4.2998 7.75262 4.32219 7.775 4.3498 7.775Z" fill="white"/>
        <path d="M4.14961 7.525C4.17722 7.525 4.19961 7.50262 4.19961 7.475C4.19961 7.44739 4.17722 7.425 4.14961 7.425C4.122 7.425 4.09961 7.44739 4.09961 7.475C4.09961 7.50262 4.122 7.525 4.14961 7.525Z" fill="white"/>
        <path d="M4.3498 7.525C4.37742 7.525 4.3998 7.50262 4.3998 7.475C4.3998 7.44739 4.37742 7.425 4.3498 7.425C4.32219 7.425 4.2998 7.44739 4.2998 7.475C4.2998 7.50262 4.32219 7.525 4.3498 7.525Z" fill="white"/>
        <path d="M4.74922 8.275C4.77683 8.275 4.79922 8.25262 4.79922 8.225C4.79922 8.19739 4.77683 8.175 4.74922 8.175C4.7216 8.175 4.69922 8.19739 4.69922 8.225C4.69922 8.25262 4.7216 8.275 4.74922 8.275Z" fill="white"/>
        <path d="M4.64961 8.4C4.67722 8.4 4.69961 8.37762 4.69961 8.35C4.69961 8.32239 4.67722 8.3 4.64961 8.3C4.622 8.3 4.59961 8.32239 4.59961 8.35C4.59961 8.37762 4.622 8.4 4.64961 8.4Z" fill="white"/>
        <path d="M4.8498 8.4C4.87742 8.4 4.8998 8.37762 4.8998 8.35C4.8998 8.32239 4.87742 8.3 4.8498 8.3C4.82219 8.3 4.7998 8.32239 4.7998 8.35C4.7998 8.37762 4.82219 8.4 4.8498 8.4Z" fill="white"/>
        <path d="M4.64961 8.15C4.67722 8.15 4.69961 8.12762 4.69961 8.1C4.69961 8.07239 4.67722 8.05 4.64961 8.05C4.622 8.05 4.59961 8.07239 4.59961 8.1C4.59961 8.12762 4.622 8.15 4.64961 8.15Z" fill="white"/>
        <path d="M4.8498 8.15C4.87742 8.15 4.8998 8.12762 4.8998 8.1C4.8998 8.07239 4.87742 8.05 4.8498 8.05C4.82219 8.05 4.7998 8.07239 4.7998 8.1C4.7998 8.12762 4.82219 8.15 4.8498 8.15Z" fill="white"/>
        <path d="M3.74922 8.275C3.77683 8.275 3.79922 8.25262 3.79922 8.225C3.79922 8.19739 3.77683 8.175 3.74922 8.175C3.7216 8.175 3.69922 8.19739 3.69922 8.225C3.69922 8.25262 3.7216 8.275 3.74922 8.275Z" fill="white"/>
        <path d="M3.64961 8.4C3.67722 8.4 3.69961 8.37762 3.69961 8.35C3.69961 8.32239 3.67722 8.3 3.64961 8.3C3.622 8.3 3.59961 8.32239 3.59961 8.35C3.59961 8.37762 3.622 8.4 3.64961 8.4Z" fill="white"/>
        <path d="M3.8498 8.4C3.87742 8.4 3.8998 8.37762 3.8998 8.35C3.8998 8.32239 3.87742 8.3 3.8498 8.3C3.82219 8.3 3.7998 8.32239 3.7998 8.35C3.7998 8.37762 3.82219 8.4 3.8498 8.4Z" fill="white"/>
        <path d="M3.64961 8.15C3.67722 8.15 3.69961 8.12762 3.69961 8.1C3.69961 8.07239 3.67722 8.05 3.64961 8.05C3.622 8.05 3.59961 8.07239 3.59961 8.1C3.59961 8.12762 3.622 8.15 3.64961 8.15Z" fill="white"/>
        <path d="M3.8498 8.15C3.87742 8.15 3.8998 8.12762 3.8998 8.1C3.8998 8.07239 3.87742 8.05 3.8498 8.05C3.82219 8.05 3.7998 8.07239 3.7998 8.1C3.7998 8.12762 3.82219 8.15 3.8498 8.15Z" fill="white"/>
        <path d="M4.24922 8.9C4.27683 8.9 4.29922 8.87762 4.29922 8.85C4.29922 8.82239 4.27683 8.8 4.24922 8.8C4.2216 8.8 4.19922 8.82239 4.19922 8.85C4.19922 8.87762 4.2216 8.9 4.24922 8.9Z" fill="white"/>
        <path d="M4.14961 9.025C4.17722 9.025 4.19961 9.00262 4.19961 8.975C4.19961 8.94739 4.17722 8.925 4.14961 8.925C4.122 8.925 4.09961 8.94739 4.09961 8.975C4.09961 9.00262 4.122 9.025 4.14961 9.025Z" fill="white"/>
        <path d="M4.3498 9.025C4.37742 9.025 4.3998 9.00262 4.3998 8.975C4.3998 8.94739 4.37742 8.925 4.3498 8.925C4.32219 8.925 4.2998 8.94739 4.2998 8.975C4.2998 9.00262 4.32219 9.025 4.3498 9.025Z" fill="white"/>
        <path d="M4.14961 8.775C4.17722 8.775 4.19961 8.75262 4.19961 8.725C4.19961 8.69739 4.17722 8.675 4.14961 8.675C4.122 8.675 4.09961 8.69739 4.09961 8.725C4.09961 8.75262 4.122 8.775 4.14961 8.775Z" fill="white"/>
        <path d="M4.3498 8.775C4.37742 8.775 4.3998 8.75262 4.3998 8.725C4.3998 8.69739 4.37742 8.675 4.3498 8.675C4.32219 8.675 4.2998 8.69739 4.2998 8.725C4.2998 8.75262 4.32219 8.775 4.3498 8.775Z" fill="white"/>
        <path d="M4 7H4.5L4.45 6.75V6.5H4.5V6.375H4.425V6.45H4.4V6.375H4.325V6.45H4.275V6.375H4.225V6.45H4.175V6.375H4.1V6.45H4.05V6.375H4V6.5H4.05V6.75L4 7Z" fill="#FFE62E"/>
        <path d="M4.32461 6.99999H4.29961V6.89999C4.29961 6.87499 4.27461 6.84999 4.24961 6.84999C4.22461 6.84999 4.19961 6.87499 4.19961 6.89999V6.99999H4.17461V6.89999C4.17461 6.84999 4.19961 6.82499 4.24961 6.82499C4.29961 6.82499 4.32461 6.84999 4.32461 6.89999V6.99999ZM4.24961 6.72499H4.09961V6.59999C4.09961 6.54999 4.12461 6.52499 4.17461 6.52499C4.22461 6.52499 4.24961 6.54999 4.24961 6.59999V6.72499ZM4.12461 6.69999H4.22461V6.59999C4.22461 6.57499 4.19961 6.54999 4.17461 6.54999C4.14961 6.54999 4.12461 6.57499 4.12461 6.59999V6.69999ZM4.39961 6.72499H4.24961V6.59999C4.24961 6.54999 4.27461 6.52499 4.32461 6.52499C4.37461 6.52499 4.39961 6.54999 4.39961 6.59999V6.72499ZM4.27461 6.69999H4.37461V6.59999C4.37461 6.57499 4.34961 6.54999 4.32461 6.54999C4.29961 6.54999 4.27461 6.57499 4.27461 6.59999V6.69999Z" fill="#3E4347"/>
        <path d="M2.75 7H3.25L3.2 6.75V6.5H3.25V6.375H3.175V6.45H3.15V6.375H3.075V6.45H3.025V6.375H2.975V6.45H2.925V6.375H2.85V6.45H2.8V6.375H2.75V6.5H2.8V6.75L2.75 7Z" fill="#FFE62E"/>
        <path d="M3.07461 6.99999H3.04961V6.89999C3.04961 6.87499 3.02461 6.84999 2.99961 6.84999C2.97461 6.84999 2.94961 6.87499 2.94961 6.89999V6.99999H2.92461V6.89999C2.92461 6.84999 2.94961 6.82499 2.99961 6.82499C3.04961 6.82499 3.07461 6.84999 3.07461 6.89999V6.99999ZM2.99961 6.72499H2.84961V6.59999C2.84961 6.54999 2.87461 6.52499 2.92461 6.52499C2.97461 6.52499 2.99961 6.54999 2.99961 6.59999V6.72499ZM2.87461 6.69999H2.97461V6.59999C2.97461 6.57499 2.94961 6.54999 2.92461 6.54999C2.89961 6.54999 2.87461 6.57499 2.87461 6.59999V6.69999Z" fill="#3E4347"/>
        <path d="M3.15 6.72499H3V6.59999C3 6.54999 3.025 6.52499 3.075 6.52499C3.125 6.52499 3.15 6.54999 3.15 6.59999V6.72499ZM3.025 6.69999H3.125V6.59999C3.125 6.57499 3.1 6.54999 3.075 6.54999C3.05 6.54999 3.025 6.57499 3.025 6.59999V6.69999Z" fill="#3E4347"/>
        <path d="M2.75 8.47501H3.25L3.2 8.22501V7.97501H3.25V7.85001H3.2V7.92501H3.15V7.85001H3.1V7.92501H3.025V7.85001H2.975V7.92501H2.925V7.85001H2.875V7.92501H2.825V7.85001H2.75V7.97501H2.825V8.22501L2.75 8.47501Z" fill="#FFE62E"/>
        <path d="M3.07461 8.475H3.04961V8.375C3.04961 8.35 3.02461 8.325 2.99961 8.325C2.97461 8.325 2.94961 8.35 2.94961 8.375V8.475H2.92461V8.375C2.92461 8.325 2.94961 8.3 2.99961 8.3C3.04961 8.3 3.07461 8.325 3.07461 8.375V8.475ZM2.99961 8.2H2.84961V8.075C2.84961 8.025 2.87461 8 2.92461 8C2.97461 8 2.99961 8.025 2.99961 8.075V8.2ZM2.87461 8.175H2.97461V8.075C2.97461 8.05 2.94961 8.025 2.92461 8.025C2.89961 8.025 2.87461 8.05 2.87461 8.075V8.175ZM3.17461 8.2H3.02461V8.075C3.02461 8.025 3.04961 8 3.09961 8C3.14961 8 3.17461 8.025 3.17461 8.075V8.2ZM3.04961 8.175H3.14961V8.075C3.14961 8.05 3.12461 8.025 3.09961 8.025C3.07461 8.025 3.04961 8.05 3.04961 8.075V8.175Z" fill="#3E4347"/>
        <path d="M5.25 8.49999H5.75L5.7 8.24999V7.99999H5.75V7.89999H5.675V7.94999H5.65V7.89999H5.575V7.94999H5.525V7.89999H5.475V7.94999H5.425V7.89999H5.35V7.94999H5.3V7.89999H5.25V7.99999H5.3V8.24999L5.25 8.49999Z" fill="#FFE62E"/>
        <path d="M5.57461 8.49999H5.54961V8.39999C5.54961 8.37499 5.52461 8.34999 5.49961 8.34999C5.47461 8.34999 5.44961 8.37499 5.44961 8.39999V8.49999H5.42461V8.39999C5.42461 8.34999 5.44961 8.32499 5.49961 8.32499C5.54961 8.32499 5.57461 8.34999 5.57461 8.39999V8.49999ZM5.49961 8.22499H5.34961V8.09999C5.34961 8.04999 5.37461 8.02499 5.42461 8.02499C5.47461 8.02499 5.49961 8.04999 5.49961 8.09999V8.22499ZM5.37461 8.19999H5.47461V8.09999C5.47461 8.07499 5.44961 8.04999 5.42461 8.04999C5.39961 8.04999 5.37461 8.07499 5.37461 8.09999V8.19999ZM5.64961 8.22499H5.49961V8.09999C5.49961 8.04999 5.52461 8.02499 5.57461 8.02499C5.62461 8.02499 5.64961 8.04999 5.64961 8.09999V8.22499ZM5.52461 8.19999H5.62461V8.09999C5.62461 8.07499 5.59961 8.04999 5.57461 8.04999C5.54961 8.04999 5.52461 8.07499 5.52461 8.09999V8.19999Z" fill="#3E4347"/>
        <path d="M5.25 7H5.75L5.7 6.75V6.5H5.75V6.375H5.675V6.45H5.65V6.375H5.575V6.45H5.525V6.375H5.475V6.45H5.425V6.375H5.35V6.45H5.3V6.375H5.25V6.5H5.3V6.75L5.25 7Z" fill="#FFE62E"/>
        <path d="M5.57461 6.99999H5.54961V6.89999C5.54961 6.87499 5.52461 6.84999 5.49961 6.84999C5.47461 6.84999 5.44961 6.87499 5.44961 6.89999V6.99999H5.42461V6.89999C5.42461 6.84999 5.44961 6.82499 5.49961 6.82499C5.54961 6.82499 5.57461 6.84999 5.57461 6.89999V6.99999ZM5.49961 6.72499H5.34961V6.59999C5.34961 6.54999 5.37461 6.52499 5.42461 6.52499C5.47461 6.52499 5.49961 6.54999 5.49961 6.59999V6.72499ZM5.37461 6.69999H5.47461V6.59999C5.47461 6.57499 5.44961 6.54999 5.42461 6.54999C5.39961 6.54999 5.37461 6.57499 5.37461 6.59999V6.69999ZM5.64961 6.72499H5.49961V6.59999C5.49961 6.54999 5.52461 6.52499 5.57461 6.52499C5.62461 6.52499 5.64961 6.54999 5.64961 6.59999V6.72499ZM5.52461 6.69999H5.62461V6.59999C5.62461 6.57499 5.59961 6.54999 5.57461 6.54999C5.54961 6.54999 5.52461 6.57499 5.52461 6.59999V6.69999Z" fill="#3E4347"/>
        <path d="M3.55 9.90001L3.9 9.52501L3.675 9.40001L3.5 9.22501L3.55 9.17501L3.475 9.10001L3.425 9.15001L3.475 9.20001L3.45 9.22501L3.4 9.17501L3.35 9.22501L3.4 9.25001L3.35 9.30001L3.325 9.25001L3.275 9.30001L3.325 9.35001L3.275 9.37501L3.25 9.32501L3.2 9.37501L3.225 9.42501L3.2 9.45001L3.175 9.40001L3.125 9.45001L3.2 9.52501H3.225L3.25 9.50001L3.425 9.67501L3.55 9.90001Z" fill="#FFE62E"/>
        <path d="M3.67484 9.59999C3.64984 9.57499 3.62484 9.57499 3.59984 9.59999C3.57484 9.62499 3.57484 9.64999 3.59984 9.67499L3.67484 9.74999L3.64984 9.77499L3.57484 9.69999C3.54984 9.67499 3.54984 9.62499 3.57484 9.59999C3.59984 9.57499 3.64984 9.57499 3.67484 9.59999ZM3.52484 9.52499L3.42484 9.62499L3.34984 9.54999C3.32484 9.52499 3.32484 9.47499 3.34984 9.44999C3.37484 9.42499 3.42484 9.42499 3.44984 9.44999L3.52484 9.52499ZM3.42484 9.59999L3.49984 9.52499L3.42484 9.44999C3.39984 9.42499 3.37484 9.42499 3.34984 9.44999C3.31234 9.48749 3.32484 9.49999 3.34984 9.52499L3.42484 9.59999ZM3.64984 9.39999L3.54984 9.49999L3.47484 9.42499C3.44984 9.39999 3.44984 9.34999 3.47484 9.32499C3.49984 9.29999 3.54984 9.29999 3.57484 9.32499L3.64984 9.39999ZM3.54984 9.47499L3.62484 9.39999L3.54984 9.32499C3.52484 9.29999 3.49984 9.29999 3.47484 9.32499C3.43734 9.36249 3.44984 9.37499 3.47484 9.39999L3.54984 9.47499Z" fill="#3E4347"/>
        <path d="M4.94961 9.90001L4.59961 9.52501L4.79961 9.40001L4.97461 9.22501L4.94961 9.17501L5.02461 9.10001L5.07461 9.15001L5.02461 9.20001L5.04961 9.22501L5.09961 9.17501L5.14961 9.22501L5.09961 9.25001L5.14961 9.30001L5.17461 9.25001L5.22461 9.30001L5.17461 9.35001L5.22461 9.37501L5.24961 9.32501L5.29961 9.37501L5.24961 9.42501L5.29961 9.45001L5.32461 9.40001L5.37461 9.45001L5.29961 9.52501H5.27461L5.24961 9.50001L5.07461 9.67501L4.94961 9.90001Z" fill="#FFE62E"/>
        <path d="M4.72461 9.64999L4.82461 9.59999C4.84961 9.57499 4.87461 9.57499 4.89961 9.59999C4.93711 9.63749 4.92461 9.64999 4.89961 9.67499L4.79961 9.74999L4.82461 9.77499L4.89961 9.69999C4.92461 9.67499 4.92461 9.62499 4.89961 9.59999C4.87461 9.57499 4.82461 9.57499 4.79961 9.59999L4.72461 9.64999ZM5.04961 9.44999C5.07461 9.42499 5.12461 9.42499 5.14961 9.44999C5.17461 9.47499 5.17461 9.52499 5.14961 9.54999L5.07461 9.62499L4.97461 9.52499L5.04961 9.44999ZM5.12461 9.52499C5.14961 9.49999 5.14961 9.47499 5.12461 9.44999C5.09961 9.42499 5.07461 9.42499 5.04961 9.44999L4.99961 9.52499L5.07461 9.59999L5.12461 9.52499ZM4.92461 9.32499C4.94961 9.29999 4.99961 9.29999 5.02461 9.32499C5.04961 9.34999 5.04961 9.39999 5.02461 9.42499L4.94961 9.49999L4.84961 9.39999L4.92461 9.32499ZM5.02461 9.39999C5.04961 9.37499 5.04961 9.34999 5.02461 9.32499C4.99961 9.29999 4.97461 9.29999 4.94961 9.32499L4.87461 9.39999L4.94961 9.47499L5.02461 9.39999Z" fill="#3E4347"/>
    </g>
    <defs>
        <clipPath id="clip0_21411_6273">
            <rect width="16" height="16" fill="white"/>
        </clipPath>
    </defs>
</svg>
